<svg width="53" height="53" viewBox="0 0 53 53" fill="none" xmlns="http://www.w3.org/2000/svg">
<g id="Apollo logo" clip-path="url(#clip0_19_4189)">
<g id="XMLID_1_">
<path id="XMLID_13_" d="M6.86407 26.3944L2.17688 39.8908H4.92004L5.89206 36.8868H10.5358L11.4788 39.8908H14.3089L9.67969 26.3944M6.60321 34.6663L8.21391 29.7173H8.2429L9.81012 34.6663H6.60321ZM22.7848 31.4449C22.4515 30.9657 22.0301 30.5889 21.5219 30.298C21.0136 30.0081 20.4039 29.8622 19.6938 29.8622C19.1421 29.8622 18.6348 29.9781 18.17 30.2245C17.7053 30.4564 17.3285 30.8487 17.0231 31.3714H16.9941V30.123H14.6578V47.2476H17.1245V38.6848H17.1535C17.4579 39.1641 17.8357 39.5264 18.315 39.7728C18.7798 40.0191 19.3015 40.1351 19.8532 40.1351C20.5064 40.1351 21.0871 39.9902 21.5798 39.7138C22.0726 39.4374 22.4794 39.0606 22.8138 38.5958C23.1471 38.131 23.3945 37.5948 23.5539 36.9851C23.7133 36.3754 23.8003 35.7512 23.8003 35.098C23.8003 34.4013 23.7133 33.7337 23.5539 33.095C23.3655 32.4749 23.1181 31.9232 22.7848 31.4449ZM21.2031 36.1901C21.1306 36.5679 21.0147 36.9012 20.8552 37.1911C20.6813 37.4809 20.4629 37.6994 20.2021 37.8733C19.9267 38.0472 19.5924 38.1341 19.1866 38.1341C18.7942 38.1341 18.4609 38.0472 18.1856 37.8733C17.9102 37.6994 17.6773 37.4664 17.5179 37.1911C17.344 36.9012 17.2281 36.5814 17.1556 36.1901C17.0831 35.8123 17.0397 35.4355 17.0397 35.0431C17.0397 34.6363 17.0686 34.245 17.1411 33.8672C17.2136 33.4894 17.3295 33.1561 17.5034 32.8662C17.6773 32.5764 17.8957 32.3435 18.1566 32.1551C18.4319 31.9811 18.7663 31.8797 19.1721 31.8797C19.5644 31.8797 19.8977 31.9667 20.1731 32.1551C20.4484 32.3435 20.6668 32.5764 20.8407 32.8807C21.0147 33.1705 21.1306 33.5194 21.2186 33.8962C21.291 34.274 21.3345 34.6653 21.3345 35.0576C21.3045 35.421 21.2755 35.8133 21.2031 36.1901ZM32.3341 31.2555C31.9273 30.8052 31.449 30.4574 30.8683 30.211C30.2876 29.9647 29.6489 29.8487 28.9522 29.8487C28.2411 29.8487 27.6169 29.9647 27.0362 30.211C26.4699 30.4574 25.9917 30.8062 25.5849 31.2555C25.1781 31.7058 24.8737 32.242 24.6418 32.8807C24.4245 33.5194 24.3085 34.2305 24.3085 35.0142C24.3085 35.7978 24.4245 36.5089 24.6418 37.1331C24.8592 37.7573 25.1791 38.3091 25.5849 38.7438C25.9917 39.1941 26.4699 39.5419 27.0362 39.7738C27.6024 40.0057 28.2411 40.1361 28.9522 40.1361C29.6634 40.1361 30.3021 40.0202 30.8683 39.7738C31.449 39.5419 31.9273 39.1931 32.3341 38.7438C32.7409 38.2935 33.0452 37.7573 33.2771 37.1331C33.4945 36.5089 33.6104 35.7978 33.6104 35.0142C33.6104 34.2305 33.4945 33.5194 33.2771 32.8807C33.0452 32.243 32.7399 31.7058 32.3341 31.2555ZM31.0277 36.1611C30.9553 36.5389 30.8393 36.8723 30.6799 37.1621C30.506 37.4519 30.2876 37.6994 29.9977 37.8733C29.7224 38.0472 29.359 38.1341 28.9533 38.1341C28.532 38.1341 28.1841 38.0472 27.9088 37.8733C27.6334 37.6994 27.4005 37.4664 27.2411 37.1621C27.0672 36.8723 26.9513 36.5379 26.8788 36.1611C26.8064 35.7833 26.7774 35.4065 26.7774 35.0142C26.7774 34.6218 26.8064 34.245 26.8788 33.8672C26.9513 33.4894 27.0672 33.1561 27.2411 32.8662C27.4005 32.5764 27.6334 32.3435 27.9088 32.1551C28.1841 31.9811 28.533 31.8797 28.9533 31.8797C29.3746 31.8797 29.7224 31.9667 29.9977 32.1551C30.2876 32.3435 30.506 32.5764 30.6799 32.8662C30.8538 33.1561 30.9697 33.4904 31.0277 33.8672C31.1002 34.245 31.1292 34.6363 31.1292 35.0142C31.1292 35.4065 31.1002 35.7843 31.0277 36.1611ZM34.3081 39.8908H36.7749V26.3944H34.3081V39.8908ZM38.3566 39.8908H40.8234V26.3944H38.3566V39.8908ZM50.4897 32.8817C50.2723 32.243 49.9524 31.7058 49.5467 31.2565C49.1399 30.8062 48.6616 30.4584 48.0809 30.2121C47.5002 29.9657 46.8615 29.8498 46.1648 29.8498C45.4537 29.8498 44.8295 29.9657 44.2487 30.2121C43.6825 30.4584 43.2043 30.8073 42.7974 31.2565C42.3906 31.7068 42.0863 32.243 41.8544 32.8817C41.637 33.5204 41.5211 34.2316 41.5211 35.0152C41.5211 35.7988 41.637 36.51 41.8544 37.1342C42.0718 37.7584 42.3917 38.3101 42.7974 38.7449C43.2043 39.1952 43.6825 39.543 44.2487 39.7748C44.815 40.0067 45.4537 40.1371 46.1648 40.1371C46.876 40.1371 47.5147 40.0212 48.0809 39.7748C48.6471 39.543 49.1399 39.1941 49.5467 38.7449C49.9535 38.2946 50.2578 37.7584 50.4897 37.1342C50.7071 36.51 50.823 35.7988 50.823 35.0152C50.8085 34.2305 50.7071 33.5204 50.4897 32.8817ZM48.2403 36.1611C48.1678 36.5389 48.0519 36.8723 47.878 37.1621C47.7041 37.4519 47.4857 37.6994 47.1958 37.8733C46.9205 38.0472 46.5571 38.1341 46.1514 38.1341C45.73 38.1341 45.3822 38.0472 45.1069 37.8733C44.8315 37.6994 44.5986 37.4664 44.4392 37.1621C44.2653 36.8723 44.1494 36.5379 44.0914 36.1611C44.0189 35.7833 43.9899 35.4065 43.9899 35.0142C43.9899 34.6218 44.0189 34.245 44.0914 33.8672C44.1639 33.4894 44.2798 33.1561 44.4392 32.8662C44.6131 32.5764 44.8315 32.3435 45.1069 32.1551C45.3822 31.9811 45.7311 31.8797 46.1514 31.8797C46.5727 31.8797 46.9205 31.9667 47.1958 32.1551C47.4857 32.3435 47.7041 32.5764 47.878 32.8662C48.0374 33.1561 48.1678 33.4904 48.2403 33.8672C48.3128 34.245 48.3417 34.6363 48.3417 35.0142C48.3562 35.4065 48.3128 35.7843 48.2403 36.1611Z" fill="#2582A1"/>
<path id="XMLID_26_" d="M21.6958 44.5935H19.8232V42.9538H19.3295V46.9154H19.8232V45.0718H21.6958V46.9299H22.1896V42.9683H21.6958M24.9328 42.8369C24.3231 42.8369 23.8593 43.0832 23.5394 43.577C23.2931 43.9548 23.1771 44.4186 23.1771 44.9558C23.1771 45.551 23.3221 46.0438 23.6129 46.4361C23.9318 46.8429 24.3821 47.0458 24.9338 47.0458C25.529 47.0458 25.9928 46.8139 26.3126 46.3491C26.588 45.9568 26.7339 45.4641 26.7339 44.8689C26.7339 44.3171 26.618 43.8679 26.3716 43.519C26.0497 43.0687 25.5715 42.8369 24.9328 42.8369ZM25.9193 46.0448C25.7309 46.3781 25.411 46.5531 24.9762 46.5531C24.526 46.5531 24.1926 46.3936 23.9897 46.1028C23.7869 45.7984 23.6854 45.4351 23.6854 45.0003C23.6854 44.4486 23.8013 44.0283 24.0477 43.7519C24.2796 43.4621 24.5994 43.3306 24.9762 43.3306C25.3686 43.3306 25.6729 43.4755 25.8903 43.7519C26.1222 44.0418 26.2236 44.4051 26.2236 44.8844C26.2102 45.3192 26.1222 45.7104 25.9193 46.0448ZM30.0413 44.9993C29.9108 44.8978 29.7224 44.8109 29.4895 44.7529L28.9958 44.6225C28.6624 44.5355 28.444 44.4631 28.3571 44.4051C28.2121 44.3182 28.1397 44.1732 28.1397 43.9838C28.1397 43.8099 28.1977 43.6505 28.3281 43.519C28.444 43.3886 28.6469 43.3161 28.9233 43.3161C29.2711 43.3161 29.5185 43.4176 29.6634 43.635C29.7359 43.7509 29.7939 43.9103 29.8084 44.1287H30.2731C30.2731 43.6929 30.1427 43.3596 29.8808 43.1712C29.62 42.9683 29.3001 42.8669 28.9378 42.8669C28.531 42.8669 28.2266 42.9828 27.9948 43.2147C27.7774 43.4466 27.6614 43.7374 27.6614 44.0997C27.6614 44.4331 27.7774 44.6805 27.9948 44.8399C28.1252 44.9268 28.3426 45.0138 28.6624 45.1007L29.1417 45.2167C29.4026 45.2746 29.592 45.3616 29.7079 45.4486C29.8239 45.5355 29.8963 45.6949 29.8963 45.9133C29.8963 46.2032 29.7514 46.4071 29.475 46.5086C29.3301 46.5665 29.1707 46.5955 28.9813 46.5955C28.5889 46.5955 28.2991 46.4651 28.1397 46.2032C28.0527 46.0583 28.0093 45.8844 27.9948 45.6514H27.53C27.53 46.0872 27.6459 46.4206 27.8923 46.6669C28.1386 46.9133 28.4875 47.0448 28.9368 47.0448C29.3146 47.0448 29.6479 46.9578 29.9377 46.7694C30.2276 46.581 30.3736 46.2612 30.3736 45.8264C30.3746 45.4641 30.2731 45.1877 30.0413 44.9993ZM33.1322 42.9528H31.507V46.9143H32.0008V45.2457H33.1333C33.4956 45.2457 33.772 45.1297 33.9459 44.8978C34.1198 44.666 34.2067 44.4041 34.2067 44.0853C34.2067 43.7229 34.1053 43.4466 33.9169 43.2437C33.713 43.0542 33.4511 42.9528 33.1322 42.9528ZM33.5101 44.637C33.3652 44.7384 33.1912 44.7964 32.9728 44.7964H32.0008V43.4176H32.9728C33.1612 43.4176 33.3061 43.4466 33.4231 43.5045C33.626 43.606 33.713 43.8089 33.713 44.0997C33.713 44.3606 33.6405 44.5345 33.5101 44.637ZM35.3382 46.9154H35.8319V42.9538H35.3382V46.9154ZM36.717 43.4321H37.9364V46.9299H38.4302V43.4321H39.6641V42.9528H36.717V43.4321ZM41.1868 42.9528L39.808 46.9143H40.3162L40.7086 45.7239H42.1309L42.5087 46.9143H43.0459L41.7251 42.9528H41.1868ZM40.8524 45.2902L41.4332 43.5345L41.9994 45.2902H40.8524ZM44.3792 42.9528H43.8854V46.9143H46.2073V46.4495H44.3792V42.9528ZM49.4442 44.9993C49.3138 44.8978 49.1254 44.8109 48.8925 44.7529L48.3987 44.6225C48.0654 44.5355 47.847 44.4631 47.76 44.4051C47.6151 44.3182 47.5427 44.1732 47.5427 43.9838C47.5427 43.8099 47.6006 43.6505 47.731 43.519C47.847 43.3886 48.0499 43.3161 48.3263 43.3161C48.6741 43.3161 48.9215 43.4176 49.0664 43.635C49.1389 43.7509 49.1968 43.9103 49.2258 44.1287H49.6906C49.6906 43.6929 49.5602 43.3596 49.2983 43.1712C49.0374 42.9683 48.7176 42.8669 48.3553 42.8669C47.9484 42.8669 47.6441 42.9828 47.4267 43.2147C47.2093 43.4466 47.0934 43.7374 47.0934 44.0997C47.0934 44.4331 47.2093 44.6805 47.4267 44.8399C47.5571 44.9268 47.7745 45.0138 48.0944 45.1007L48.5737 45.2167C48.8345 45.2746 49.024 45.3616 49.1399 45.4486C49.2558 45.5355 49.3138 45.6949 49.3138 45.9133C49.3138 46.2032 49.1689 46.4071 48.8925 46.5086C48.7476 46.5665 48.5882 46.5955 48.4132 46.5955C48.0064 46.5955 47.7311 46.4651 47.5716 46.2032C47.4847 46.0583 47.4412 45.8844 47.4267 45.6514H46.9619C46.9619 46.0872 47.0779 46.4206 47.3242 46.6669C47.5706 46.9133 47.9194 47.0448 48.3542 47.0448C48.732 47.0448 49.0654 46.9578 49.3552 46.7694C49.6451 46.581 49.791 46.2612 49.791 45.8264C49.7786 45.4641 49.6761 45.1877 49.4442 44.9993Z" fill="#2582A1"/>
<path id="XMLID_34_" d="M24.1346 27.9472L25.6004 29.1811L27.0662 27.9472V24.2175H24.1491M27.2111 20.139H23.7133V19.2394L15.7312 29.0351H19.9546L24.1201 23.8107H27.2111V23.3024V20.4144V20.139ZM24.1346 19.7332H27.0517V16.5988L28.5899 14.0005H22.3935L24.1201 16.5988V19.7332H24.1346ZM15.195 8.7616H7.11145V24.1016H10.9281L19.7083 13.6237L15.195 8.7616ZM12.2924 14.073H11.0295V15.4373H9.92604V14.073H8.66418V12.8681H9.92708V11.5037H11.0295V12.8681H12.2924V14.073ZM18.5178 23.3904L19.1275 21.0396H19.9546V14.4943L11.4208 24.6968V29.1956L15.6877 24.1016H17.6473C17.6473 24.0871 18.3439 24.174 18.5178 23.3904ZM18.9826 17.8461L18.3584 18.5283L17.7342 17.8461H18.9826Z" fill="#2582A1"/>
<path id="XMLID_35_" d="M21.9722 4.887L21.8707 4.85801C16.9361 3.47918 16.6318 0.924419 16.7622 0.010376C16.4144 1.05485 16.4434 3.11584 16.8057 4.34975C17.4009 4.98844 19.3594 5.93147 21.261 6.13436C21.4639 6.16334 21.6678 6.20682 21.8562 6.2503C26.8343 7.26579 27.2546 11.6921 25.441 13.8256C25.6294 13.4188 27.7338 8.81852 22.6108 7.87549C22.35 7.83202 22.1171 7.78854 21.8997 7.74506C18.286 7.01942 17.9526 6.4242 17.7777 6.36624C17.6328 7.0484 18.5323 10.7056 21.8997 11.1559H21.9287C25.0921 11.5772 25.3975 13.2894 25.4265 13.8411V13.8556L25.441 13.8411C26.355 13.1299 26.9357 11.8526 26.9937 10.4592V10.0669C26.9212 7.89102 25.5134 5.58366 21.9722 4.887Z" fill="#FDB931"/>
<path id="XMLID_50_" d="M2.19141 50.5146H3.03299V52.909H3.3808V50.5291H4.22238V50.2103H2.19141M7.03904 50.1223C6.61773 50.1223 6.29891 50.2817 6.08152 50.6306C5.90762 50.8914 5.83516 51.1968 5.83516 51.5736C5.83516 51.9804 5.9366 52.3137 6.125 52.5746C6.34238 52.85 6.64775 52.9814 7.02455 52.9814C7.43137 52.9814 7.7502 52.822 7.96758 52.5166C8.15598 52.2413 8.25742 51.9069 8.25742 51.5011C8.25742 51.1233 8.17047 50.819 8.01105 50.5871C7.80816 50.2817 7.47381 50.1223 7.03904 50.1223ZM7.72018 52.3137C7.58975 52.5456 7.37236 52.6616 7.08148 52.6616C6.76266 52.6616 6.54424 52.5601 6.39932 52.3572C6.25439 52.1543 6.19643 51.9069 6.19643 51.6026C6.19643 51.2248 6.28338 50.9494 6.44279 50.7465C6.60221 50.5581 6.82062 50.4567 7.06699 50.4567C7.32785 50.4567 7.54627 50.5581 7.69119 50.7465C7.85061 50.9349 7.92307 51.1968 7.92307 51.5156C7.90961 51.8055 7.85164 52.0819 7.72018 52.3137ZM11.8277 51.8634C11.8277 52.0663 11.7987 52.2113 11.7407 52.3282C11.6393 52.5456 11.4364 52.6471 11.16 52.6471C10.9136 52.6471 10.7532 52.5456 10.6517 52.3572C10.5793 52.2268 10.5503 52.0674 10.5503 51.8634V50.1948H10.217V51.7185C10.217 52.0518 10.2604 52.2992 10.3329 52.4876C10.4778 52.8065 10.7687 52.9814 11.189 52.9814C11.6103 52.9814 11.9001 52.822 12.0451 52.4876C12.132 52.3137 12.161 52.0518 12.161 51.7185V50.1948H11.8277V51.8634ZM15.7747 52.3427C15.6443 52.5456 15.4559 52.6471 15.223 52.6471C14.9621 52.6471 14.7582 52.5456 14.6278 52.3572C14.4973 52.1543 14.4249 51.9069 14.4249 51.5881C14.4249 51.1958 14.4973 50.9204 14.6423 50.7175C14.7872 50.5291 14.9756 50.4422 15.223 50.4422C15.4114 50.4422 15.5708 50.4857 15.6733 50.6016C15.7892 50.703 15.8617 50.848 15.8907 51.0229H16.224C16.2095 50.791 16.108 50.5871 15.9341 50.4132C15.7602 50.2393 15.5273 50.1378 15.2085 50.1378C14.8462 50.1378 14.5553 50.2828 14.3524 50.5592C14.164 50.82 14.0626 51.1399 14.0626 51.5457C14.0626 52.0684 14.193 52.4597 14.4404 52.7216C14.6288 52.91 14.8762 53.0114 15.1661 53.0114C15.4994 53.0114 15.7613 52.8955 15.9497 52.6636C16.1091 52.4752 16.2105 52.2278 16.2395 51.9525H15.9062C15.8917 52.0819 15.8482 52.2268 15.7747 52.3427ZM19.8387 51.3127H18.5614V50.1948H18.2136V52.909H18.5614V51.6461H19.8387V52.909H20.1721V50.1948H19.8387V51.3127ZM22.3055 52.909H22.6388V50.1948H22.3055V52.909ZM26.3406 52.3862L25.1067 50.1948H24.7143V52.909H25.0332V50.7175L26.2961 52.909H26.6739V50.1948H26.3551V52.3862H26.3406ZM29.7794 51.762H30.563C30.563 52.0808 30.4905 52.3137 30.3456 52.4442C30.2007 52.5891 30.0268 52.6616 29.8083 52.6616C29.5185 52.6616 29.3146 52.5601 29.1841 52.3572C29.0537 52.1543 28.9957 51.8924 28.9957 51.5736C28.9957 51.1958 29.0682 50.9204 29.2276 50.732C29.387 50.5436 29.5754 50.4567 29.7938 50.4567C29.9822 50.4567 30.1417 50.5001 30.2731 50.5871C30.4046 50.6741 30.476 50.819 30.5195 51.0229H30.8528C30.7948 50.6751 30.6499 50.4132 30.4025 50.2828C30.2286 50.1813 30.0402 50.1378 29.8073 50.1378C29.474 50.1378 29.1976 50.2683 28.9802 50.5157C28.7628 50.7765 28.6469 51.1399 28.6469 51.6036C28.6469 52.0539 28.7628 52.4162 28.9947 52.6771C29.1976 52.88 29.445 52.9814 29.7348 52.9814C29.9522 52.9814 30.1417 52.9379 30.2866 52.851C30.3735 52.793 30.475 52.7061 30.5909 52.5611L30.6634 52.909H30.8808V51.4577H29.7928V51.762H29.7794ZM35.745 50.1948H35.4116V52.909H36.9934V52.5901H35.745V50.1948ZM38.9229 52.909H39.2562V50.1948H38.9229V52.909ZM42.2312 52.5021L41.5201 50.1948H41.1578L42.0573 52.909H42.4196L43.3337 50.1948H42.9559L42.2312 52.5021ZM45.5117 51.6606H46.876V51.3417H45.5117V50.5146H46.9919V50.1813H45.1928V52.91H47.0209V52.5912H45.5117V51.6606ZM50.5912 51.5881C50.5042 51.5156 50.3738 51.4577 50.2133 51.4142L49.88 51.3272C49.6481 51.2693 49.5022 51.2258 49.4442 51.1823C49.3428 51.1243 49.2993 51.0229 49.2993 50.8925C49.2993 50.7765 49.3428 50.6751 49.4297 50.5736C49.5167 50.4867 49.6471 50.4432 49.8365 50.4432C50.0684 50.4432 50.2434 50.5157 50.3303 50.6606C50.3883 50.7331 50.4173 50.849 50.4318 50.9939H50.7506C50.7506 50.6896 50.6636 50.4712 50.4897 50.3407C50.3158 50.2103 50.0974 50.1378 49.8365 50.1378C49.5612 50.1378 49.3428 50.2103 49.1978 50.3697C49.0529 50.5291 48.966 50.7175 48.966 50.9649C48.966 51.1968 49.0384 51.3573 49.1978 51.4732C49.2848 51.5457 49.4442 51.6036 49.6481 51.6471L49.967 51.7341C50.1409 51.7775 50.2713 51.8355 50.3593 51.8935C50.4473 51.9514 50.4752 52.0529 50.4752 52.2123C50.4752 52.4007 50.3738 52.5456 50.1854 52.6191C50.0839 52.6626 49.968 52.6771 49.8521 52.6771C49.5767 52.6771 49.3873 52.5901 49.2858 52.4017C49.2279 52.3148 49.1989 52.1843 49.1844 52.0239H48.8656C48.8656 52.3137 48.9525 52.5466 49.1119 52.7206C49.2858 52.8945 49.5187 52.9814 49.8231 52.9814C50.0839 52.9814 50.3169 52.9234 50.5053 52.793C50.6936 52.6626 50.7951 52.4452 50.7951 52.1543C50.8086 51.908 50.7361 51.7185 50.5912 51.5881Z" fill="#97999C"/>
</g>
</g>
<defs>
<clipPath id="clip0_19_4189">
<rect width="53" height="53" fill="white"/>
</clipPath>
</defs>
</svg>
