<svg width="20" height="20" viewBox="0 0 20 20" fill="none" xmlns="http://www.w3.org/2000/svg">
<g id="ion:archive-outline">
<g id="Vector">
<path d="M3.125 5.9375V15.9375C3.12624 16.3515 3.29125 16.7482 3.58401 17.041C3.87677 17.3337 4.27348 17.4988 4.6875 17.5H15.3125C15.7265 17.4988 16.1232 17.3337 16.416 17.041C16.7087 16.7482 16.8738 16.3515 16.875 15.9375V5.9375" fill="#8930F9"/>
<path d="M3.125 5.9375V15.9375C3.12624 16.3515 3.29125 16.7482 3.58401 17.041C3.87677 17.3337 4.27348 17.4988 4.6875 17.5H15.3125C15.7265 17.4988 16.1232 17.3337 16.416 17.041C16.7087 16.7482 16.8738 16.3515 16.875 15.9375V5.9375" stroke="#8930F9" stroke-width="1.25" stroke-linecap="round" stroke-linejoin="round"/>
</g>
<path id="Vector_2" d="M17.0312 2.5H2.96875C2.36469 2.5 1.875 2.98969 1.875 3.59375V4.53125C1.875 5.13531 2.36469 5.625 2.96875 5.625H17.0312C17.6353 5.625 18.125 5.13531 18.125 4.53125V3.59375C18.125 2.98969 17.6353 2.5 17.0312 2.5Z" stroke="#8930F9" stroke-width="1.25" stroke-linejoin="round"/>
<path id="Vector_3" d="M12.5 11.875L10 14.375L7.5 11.875M10 13.5113V8.75" stroke="#EBF0F4" stroke-width="1.25" stroke-linecap="round" stroke-linejoin="round"/>
</g>
</svg>
