<svg width="25" height="24" viewBox="0 0 25 24" fill="none" xmlns="http://www.w3.org/2000/svg">
<g id="Icon Frame">
<path id="Subtract" fill-rule="evenodd" clip-rule="evenodd" d="M2.5 12C2.5 6.47715 6.97715 2 12.5 2C18.0228 2 22.5 6.47715 22.5 12C22.5 17.5228 18.0228 22 12.5 22C6.97715 22 2.5 17.5228 2.5 12ZM14.2071 9.70711C14.5976 9.31658 14.5976 8.68342 14.2071 8.29289C13.8166 7.90237 13.1834 7.90237 12.7929 8.29289L9.79289 11.2929C9.40237 11.6834 9.40237 12.3166 9.79289 12.7071L12.7929 15.7071C13.1834 16.0976 13.8166 16.0976 14.2071 15.7071C14.5976 15.3166 14.5976 14.6834 14.2071 14.2929L11.9142 12L14.2071 9.70711Z" fill="white"/>
</g>
</svg>
