<svg width="17" height="16" viewBox="0 0 17 16" fill="none" xmlns="http://www.w3.org/2000/svg">
<g id="4464288-200 1">
<g id="Group">
<path id="Vector" d="M6.41664 2.37951L6.41666 2.37955C6.29244 2.45776 6.1731 2.58814 6.07165 2.74084C5.96942 2.8947 5.8813 3.07733 5.82246 3.26647L5.82124 3.27039L5.82132 3.27041C5.81679 3.2874 5.8123 3.29227 5.8093 3.29497C5.80482 3.299 5.79228 3.30771 5.75822 3.31603C5.68608 3.33364 5.56072 3.34017 5.33395 3.34017C4.63404 3.34017 4.11114 3.54328 3.89288 3.9707L3.8925 3.97145C3.85911 4.03824 3.83077 4.15041 3.80141 4.31999C3.7714 4.49334 3.73863 4.73793 3.70057 5.07805C3.62439 5.75858 3.52629 6.82783 3.3863 8.48777L3.38629 8.4879C3.29026 9.64427 3.20822 10.7228 3.15318 11.5274C3.12566 11.9296 3.10487 12.2637 3.09245 12.505C3.08625 12.6256 3.0821 12.7236 3.08027 12.7956C3.07936 12.8315 3.079 12.8617 3.0793 12.8853C3.07956 12.9057 3.08028 12.9298 3.08389 12.9478L3.08513 12.954L3.08532 12.9539C3.10566 13.0302 3.15713 13.1252 3.21789 13.2159C3.2801 13.3087 3.35815 13.4058 3.43923 13.4869L3.70323 13.7509L3.73252 13.7802H3.77394H8.74995H13.7259H13.7674L13.7967 13.7509L14.0607 13.4869C14.1417 13.4058 14.2198 13.3087 14.282 13.2159C14.3428 13.1252 14.3942 13.0302 14.4146 12.9539L14.4162 12.9478L14.416 12.9478C14.4196 12.9298 14.4203 12.9057 14.4206 12.8853C14.4209 12.8617 14.4205 12.8315 14.4196 12.7956C14.4178 12.7236 14.4136 12.6256 14.4074 12.505C14.395 12.2637 14.3742 11.9296 14.3467 11.5274C14.2917 10.7228 14.2096 9.64427 14.1136 8.4879L14.1136 8.48757C13.9736 6.86771 13.8755 5.79657 13.7993 5.10523C13.7613 4.75971 13.7285 4.50748 13.6986 4.32842C13.6695 4.15468 13.6412 4.03662 13.6068 3.97035M6.41664 2.37951L9.78195 2.63217L9.71124 2.56146C9.7115 2.5612 9.71177 2.56093 9.71203 2.56066C9.84346 2.42929 9.94392 2.34004 10.0548 2.28698C10.1693 2.23215 10.2855 2.22017 10.4379 2.22017C10.7334 2.22017 10.9758 2.28594 11.1755 2.44617C11.3729 2.60454 11.517 2.84606 11.636 3.17409L11.636 3.1743C11.6541 3.22447 11.6658 3.24945 11.6784 3.26591C11.6879 3.2783 11.701 3.28979 11.7324 3.30093C11.7673 3.31331 11.8203 3.32364 11.9066 3.33258C11.9919 3.34142 12.1031 3.34831 12.2513 3.35632L12.2514 3.35632C12.9867 3.39672 13.3969 3.56001 13.6068 3.97035M6.41664 2.37951L6.41924 2.37798C6.57349 2.28725 6.84778 2.22017 7.06195 2.22017C7.21439 2.22017 7.33061 2.23215 7.44513 2.28698C7.55598 2.34004 7.65644 2.42929 7.78787 2.56067L6.41664 2.37951ZM13.6068 3.97035C13.6068 3.97025 13.6067 3.97014 13.6067 3.97004L13.5179 4.01617L13.607 3.97066C13.6069 3.97056 13.6069 3.97045 13.6068 3.97035ZM10.4459 3.72817C10.4699 3.86417 10.5819 3.88017 11.6299 3.92017M10.4459 3.72817L10.348 3.74857C10.3479 3.74808 10.3478 3.74759 10.3477 3.74709C10.3477 3.74658 10.3476 3.74607 10.3475 3.74555L10.4459 3.72817ZM10.4459 3.72817C10.4059 3.53617 10.5579 3.44017 10.8939 3.44017H11.0496L10.9903 3.34017L11.6299 3.92017M11.6299 3.92017C12.2699 3.94417 12.8459 3.99217 12.9259 4.02417L11.6299 3.92017ZM13.682 12.9379C13.707 12.8987 13.7247 12.8636 13.7357 12.7865C13.7476 12.703 13.751 12.573 13.742 12.3451C13.7241 11.8908 13.6584 11.0737 13.5303 9.52039L13.2659 6.34017H8.74995H4.23398L3.96961 9.52039L13.682 12.9379ZM13.682 12.9379C13.6819 12.938 13.6818 12.9381 13.6817 12.9383L13.5759 13.1002H8.74995H3.92404L3.81792 12.9379C3.79291 12.8987 3.77518 12.8636 3.7642 12.7865C3.75232 12.703 3.74889 12.573 3.75787 12.3451C3.77576 11.8909 3.8415 11.0737 3.9696 9.52046L13.682 12.9379ZM9.32347 3.1748C9.32352 3.1745 9.32357 3.17421 9.32362 3.17392L9.32347 3.1748ZM8.03628 4.03616C7.5094 4.02818 7.17897 4.01818 6.97495 3.99767C6.87369 3.9875 6.79615 3.97411 6.73907 3.95398C6.68152 3.93369 6.62731 3.90024 6.60164 3.83864L6.60156 3.83867L6.60017 3.83491C6.57361 3.7632 6.56903 3.68941 6.59345 3.61973C6.61765 3.55067 6.66655 3.49637 6.72768 3.45583C6.8467 3.3769 7.02608 3.34017 7.23795 3.34017C7.34743 3.34017 7.42549 3.33317 7.47757 3.32051C7.51229 3.31206 7.52637 3.30337 7.53125 3.29963C7.53079 3.29396 7.52811 3.28065 7.51558 3.25604C7.49342 3.21251 7.45015 3.15351 7.38031 3.07585C7.26785 2.95606 7.16646 2.89327 7.07809 2.87253C6.99399 2.85278 6.91089 2.86846 6.8235 2.92996L6.82315 2.9302C6.55613 3.11641 6.43568 3.46487 6.4636 3.80089C6.49165 4.13837 6.66476 4.42552 6.94017 4.51285L6.94017 4.51284L6.94157 4.51331C7.05113 4.54983 7.14089 4.58969 7.20166 4.65046C7.26932 4.71813 7.28995 4.79939 7.28995 4.88817C7.28995 4.93103 7.28819 4.97521 7.2779 5.01427C7.26658 5.05723 7.24351 5.09937 7.19891 5.12872C7.1587 5.15517 7.11187 5.16372 7.06882 5.1668C7.02509 5.16992 6.97275 5.16802 6.91277 5.16405C6.41151 5.14497 6.00348 4.71129 5.82189 4.08398L5.82179 4.08365C5.81777 4.06956 5.81397 4.06574 5.81127 4.06341C5.80685 4.0596 5.79442 4.05132 5.76152 4.04339C5.69211 4.02667 5.57235 4.02017 5.35795 4.02017C5.13282 4.02017 4.96384 4.02932 4.83364 4.05721C4.7057 4.08461 4.62216 4.12866 4.56119 4.19425C4.49876 4.26143 4.45076 4.36107 4.41346 4.51717C4.37612 4.67341 4.35158 4.87681 4.32963 5.14411C4.32962 5.14419 4.32962 5.14427 4.32961 5.14436L4.28993 5.66017H8.74995H13.21L13.1703 5.1441C13.1703 5.14402 13.1702 5.14393 13.1702 5.14384L8.03628 4.03616Z" fill="#737791" stroke="#737791" stroke-width="0.2"/>
<path id="Vector_2" d="M9.08992 9.42002H9.82992C10.1782 9.42002 10.4578 9.43087 10.6792 9.47208C10.9018 9.51353 11.0763 9.58754 11.2044 9.72209C11.3318 9.85602 11.4014 10.0376 11.4405 10.2695C11.4795 10.5009 11.4899 10.7938 11.4899 11.16V11.98L9.08992 9.42002ZM9.08992 9.42002V9.27202C9.08992 9.1313 9.14411 9.01251 9.29701 8.87417L9.2986 8.87274L9.29858 8.87272C9.46042 8.71987 9.55185 8.53061 9.56767 8.30811C9.58325 8.0888 9.52504 7.8437 9.40105 7.57484C9.30662 7.36148 9.18772 7.15228 9.0792 6.99518C9.02506 6.91681 8.97179 6.84891 8.92387 6.79944C8.90006 6.77486 8.87527 6.75243 8.8504 6.73544C8.82854 6.72051 8.79282 6.70002 8.74992 6.70002C8.72492 6.70002 8.70408 6.70765 8.69088 6.71362C8.67657 6.72009 8.66333 6.72827 8.65174 6.7364C8.62854 6.75268 8.60451 6.77401 8.58121 6.79731C8.53441 6.84411 8.48279 6.9067 8.43602 6.97463C8.43585 6.97487 8.43568 6.97512 8.43551 6.97537L8.51792 7.03202L9.08992 9.42002ZM8.55431 11.0821L8.55492 11.0822C8.7032 11.1109 8.88266 11.0815 9.04234 11.0229C9.20238 10.9642 9.35959 10.8701 9.45849 10.7523L9.45954 10.7511L9.45953 10.7511C9.47782 10.7286 9.48971 10.7154 9.4977 10.7077C9.50442 10.7119 9.51466 10.7189 9.52929 10.7308C9.55864 10.7546 9.59622 10.7897 9.64861 10.8401L9.64895 10.8404C9.73853 10.9257 9.82519 10.9887 9.92715 11.029C10.0289 11.0692 10.1386 11.084 10.2699 11.084C10.3685 11.084 10.4679 11.0734 10.5517 11.0546C10.5937 11.0452 10.6335 11.0334 10.6683 11.019C10.7015 11.0052 10.7372 10.9861 10.7646 10.9587C10.7724 10.951 10.7794 10.9442 10.7859 10.9383C10.7917 10.9679 10.7971 11.0103 10.8012 11.0692C10.8074 11.1608 10.8099 11.2826 10.8099 11.44V11.98H8.74992H6.68992V11.448V10.9591L6.8148 11.0121L6.81486 11.0121L6.85392 10.92C7.17392 11.056 7.48592 11 7.72592 10.76C7.80733 10.6786 7.87895 10.6119 7.91004 10.5829C7.91867 10.5749 7.92418 10.5698 7.92592 10.568C7.93392 10.56 8.03792 10.648 8.14992 10.752C8.26192 10.856 8.45392 10.96 8.57392 10.984L8.55431 11.0821ZM8.55431 11.0821C8.48037 11.0673 8.39234 11.0302 8.31103 10.9858C8.22883 10.941 8.1455 10.8844 8.08187 10.8253C8.02702 10.7744 7.97487 10.728 7.93592 10.6957L8.55431 11.0821ZM8.20283 8.87417L8.2028 8.8742L11.6539 12.08C11.9819 12.08 12.1339 12.176 12.0939 12.368L12.1926 12.3845C12.1924 12.3851 12.1923 12.3858 12.1922 12.3865C12.1879 12.4117 12.1786 12.4481 12.1492 12.4817C12.1203 12.5148 12.0813 12.5344 12.0394 12.5478C11.9591 12.5734 11.8274 12.588 11.6115 12.5979C11.1736 12.618 10.3405 12.62 8.74992 12.62C7.15937 12.62 6.32626 12.618 5.88832 12.5979C5.67246 12.588 5.54076 12.5734 5.46042 12.5478C5.41852 12.5344 5.37957 12.5148 5.3506 12.4817C5.32125 12.4481 5.31198 12.4117 5.30762 12.3865C5.29515 12.3252 5.2963 12.2636 5.31848 12.2061C5.34119 12.1472 5.38252 12.1014 5.43501 12.0678C5.53501 12.0038 5.68122 11.98 5.85392 11.98H6.00992V11.16C6.00992 10.7938 6.02029 10.5009 6.05931 10.2695C6.09841 10.0376 6.16803 9.85602 6.29547 9.72209C6.4235 9.58754 6.598 9.51353 6.82061 9.47208C7.042 9.43087 7.32162 9.42002 7.66992 9.42002H8.40992V9.27202C8.40992 9.1313 8.35572 9.01251 8.20283 8.87417ZM8.69424 8.40345L8.69462 8.40377C8.74015 8.4424 8.76535 8.4374 8.77726 8.43282C8.79686 8.42527 8.8269 8.39952 8.85217 8.34124C8.90187 8.22662 8.90723 8.04177 8.82285 7.88128C8.80315 7.84888 8.77907 7.81883 8.75746 7.79796C8.75056 7.7913 8.7447 7.78634 8.74006 7.78281C8.73023 7.78754 8.71408 7.80008 8.69414 7.8331C8.66559 7.88036 8.64202 7.95094 8.6298 8.03193C8.61768 8.11226 8.61785 8.19554 8.63106 8.26562C8.64474 8.33819 8.66962 8.38277 8.69424 8.40345ZM6.91977 10.2848L6.9198 10.2847L6.92215 10.2869C6.97607 10.3372 7.03972 10.3827 7.09653 10.4152C7.12489 10.4314 7.15004 10.4435 7.17009 10.4512C7.18659 10.4576 7.19534 10.4594 7.19774 10.4598C7.19784 10.4599 7.19793 10.4599 7.19801 10.4599C7.19992 10.4595 7.20688 10.4581 7.21994 10.4526C7.2364 10.4456 7.25707 10.4344 7.28117 10.4189C7.3293 10.3879 7.38431 10.344 7.43655 10.295C7.48882 10.2461 7.53558 10.1947 7.56838 10.1499C7.5752 10.1406 7.58117 10.1319 7.58633 10.1239C7.58007 10.1226 7.57326 10.1214 7.56587 10.1201C7.49594 10.1084 7.39701 10.102 7.28992 10.102C7.18337 10.102 7.07288 10.1083 6.98063 10.1206C6.93446 10.1268 6.89441 10.1342 6.86247 10.1426C6.83017 10.1511 6.81252 10.1589 6.80531 10.1633C6.80272 10.1651 6.80038 10.1668 6.79827 10.1683C6.80264 10.1736 6.80808 10.1798 6.8148 10.1869C6.83817 10.2117 6.8721 10.2431 6.91977 10.2848ZM10.6252 10.1416C10.6235 10.141 10.6215 10.1404 10.6194 10.1398C10.5969 10.1332 10.5628 10.1262 10.5182 10.1201C10.4297 10.1078 10.3104 10.1 10.1819 10.1H9.86623L9.9099 10.1844C9.94043 10.2383 9.9834 10.2916 10.0288 10.3336C10.0766 10.3777 10.1178 10.4009 10.1422 10.407L10.1428 10.4072C10.2627 10.4379 10.4123 10.3965 10.5188 10.3184C10.5711 10.28 10.6049 10.2384 10.6198 10.203C10.6301 10.1787 10.6312 10.1591 10.6252 10.1416ZM8.67565 10.4531C8.6884 10.4586 8.69452 10.4598 8.69526 10.46C8.70995 10.4594 8.74448 10.45 8.79743 10.4213C8.84833 10.3936 8.90492 10.3544 8.9579 10.3102C9.01102 10.2659 9.05758 10.2192 9.08983 10.1779C9.10564 10.1576 9.11659 10.1405 9.12329 10.127C9.11723 10.1251 9.10932 10.123 9.09913 10.1208C9.03103 10.1064 8.91143 10.1 8.70992 10.1C8.55645 10.1 8.43207 10.1079 8.34812 10.1209C8.33587 10.1227 8.32491 10.1247 8.31519 10.1266C8.31994 10.1339 8.32535 10.1417 8.33142 10.15C8.36415 10.1948 8.41073 10.2463 8.46262 10.2954C8.51446 10.3444 8.56887 10.3884 8.61609 10.4195C8.63976 10.435 8.65987 10.4461 8.67565 10.4531Z" fill="#737791" stroke="#737791" stroke-width="0.2"/>
</g>
</g>
</svg>
