<svg width="17" height="16" viewBox="0 0 17 16" fill="none" xmlns="http://www.w3.org/2000/svg">
<g id="breed_8211885 1" clip-path="url(#clip0_230_7906)">
<g id="Group">
<path id="Vector" d="M8.12191 2.04707C7.11254 2.2377 5.61879 2.91895 5.21254 3.36895C4.96254 3.64707 4.85941 3.9877 4.88441 4.4377C4.90004 4.69082 4.95941 4.94082 5.27816 6.08457C5.48441 6.82832 5.66254 7.45332 5.67191 7.47207C5.68754 7.49395 5.65004 7.49707 5.54379 7.48145C5.31879 7.44707 4.80004 7.45645 4.51566 7.5002C4.20316 7.54707 3.63441 7.70957 3.24691 7.85957C2.60004 8.11582 1.79379 8.5752 1.59066 8.80645C1.35004 9.08145 1.23441 9.51582 1.28441 9.96582C1.31879 10.2596 2.01879 12.8064 2.08754 12.8877C2.15629 12.9627 2.31879 13.0314 2.43129 13.0314C2.57504 13.0314 2.79691 12.9408 2.92816 12.8283L3.05316 12.7221L3.15941 12.9783C3.33754 13.4158 3.60629 13.6252 3.98441 13.6252C4.07191 13.6252 4.13129 13.6533 4.22504 13.7346C4.46254 13.9346 4.95629 14.0408 5.34379 13.9689C5.57816 13.9283 5.85629 13.8096 5.96879 13.7064C6.02504 13.6533 6.10004 13.6283 6.24379 13.6127C6.61566 13.5783 6.81879 13.4033 6.99691 12.9689L7.10316 12.7158L7.20004 12.8064C7.46254 13.0564 7.89379 13.1002 8.05629 12.8939C8.08754 12.8533 8.24691 12.3314 8.42191 11.7064C8.59066 11.0939 8.74066 10.5939 8.75004 10.5939C8.76254 10.5939 8.90629 11.0908 9.07504 11.6939C9.24066 12.3002 9.40004 12.8314 9.42504 12.8689C9.57816 13.1002 10.025 13.0689 10.3 12.8064L10.3969 12.7158L10.5032 12.9689C10.6813 13.4033 10.8969 13.5846 11.2625 13.6158C11.4032 13.6283 11.475 13.6533 11.5313 13.7064C11.65 13.8158 11.9282 13.9314 12.1813 13.9721C12.5813 14.0377 13.0438 13.9346 13.2844 13.7252C13.3688 13.6533 13.4282 13.6314 13.5813 13.6189C13.9469 13.5846 14.1688 13.3971 14.3469 12.9658L14.45 12.7189L14.5438 12.8096C14.7375 12.9908 14.9844 13.0627 15.2125 13.0033C15.2844 12.9814 15.3688 12.9408 15.4 12.9064C15.4344 12.8721 15.6032 12.3158 15.8282 11.5096L16.2032 10.1721V9.7502C16.2032 9.35332 16.1969 9.31582 16.1157 9.14395C15.9344 8.75645 15.6844 8.55332 14.9063 8.15957C14.2875 7.84707 13.6063 7.60957 13.0625 7.5127C12.7813 7.46582 12.125 7.44707 11.925 7.48457C11.8438 7.5002 11.8094 7.49707 11.825 7.4752C11.8344 7.45957 12.0125 6.83457 12.2219 6.0877C12.5157 5.0252 12.6 4.67832 12.6157 4.46895C12.6532 3.8627 12.4594 3.4377 12 3.1252C11.3719 2.7002 10.5 2.32207 9.64066 2.10645C9.24379 2.00645 8.49379 1.9752 8.12191 2.04707ZM9.32816 2.54707C10.3688 2.76582 11.7313 3.40645 11.9813 3.79395C12.2094 4.14395 12.1875 4.35645 11.7563 5.9002C11.5657 6.57832 11.4032 7.1377 11.3969 7.14707C11.3375 7.20332 11.1469 6.95645 11.0719 6.72832C11.0125 6.55332 10.9969 5.54395 11.0438 4.9377C11.0657 4.63145 11.0625 4.5502 11.0188 4.39395C10.9532 4.1752 10.6782 3.60957 10.5844 3.50645C10.5 3.41582 10.3688 3.41895 10.2625 3.50957C10.1375 3.61582 10.1563 3.7127 10.375 4.15645L10.5688 4.54707L10.55 4.8127C10.5063 5.44395 10.4938 6.24395 10.525 6.4502L10.5594 6.66895L10.4032 7.04395C10.1438 7.65645 10.125 7.69082 10.0125 7.7377C9.95316 7.7627 9.87816 7.78145 9.84066 7.78145C9.80316 7.78145 9.54379 7.69082 9.26254 7.57832L8.75004 7.37207L8.23129 7.58145C7.46566 7.8877 7.45004 7.88145 7.15004 7.16582L6.94066 6.66895L6.97504 6.4502C7.00629 6.24395 6.99379 5.44395 6.95004 4.8127L6.93129 4.54707L7.12191 4.1627C7.34066 3.72207 7.35941 3.60332 7.23129 3.50332C7.12191 3.41895 6.99691 3.41895 6.91566 3.50645C6.83129 3.59707 6.55629 4.1502 6.48441 4.37207C6.43441 4.52207 6.43129 4.59395 6.45629 4.93457C6.50316 5.5877 6.48754 6.55332 6.42816 6.72832C6.35316 6.95957 6.16254 7.20332 6.10316 7.14395C6.09379 7.13457 5.93129 6.5752 5.74379 5.9002C5.36566 4.54082 5.32504 4.30957 5.41879 3.99395C5.48441 3.76582 5.62191 3.62832 6.03441 3.38145C6.61879 3.03457 7.46566 2.7002 8.11566 2.5627C8.45629 2.49082 9.02504 2.48457 9.32816 2.54707ZM6.88754 7.84082C6.88441 7.84395 6.74066 7.80332 6.57504 7.7502L6.27191 7.64707L6.37816 7.59082C6.43754 7.5627 6.52816 7.49395 6.57816 7.4377L6.67191 7.34082L6.78441 7.58457C6.84691 7.71895 6.89379 7.83457 6.88754 7.84082ZM11.1375 7.6002L11.2282 7.64707L10.9344 7.74707C10.7719 7.8002 10.6313 7.84395 10.6188 7.84395C10.6063 7.84395 10.65 7.73145 10.7125 7.59395L10.825 7.34082L10.9344 7.4502C10.9969 7.50645 11.0875 7.5752 11.1375 7.6002ZM9.00941 8.01582L9.17191 8.0877L9.07816 8.1127C8.95004 8.1502 8.46566 8.14707 8.39691 8.10645C8.35004 8.07832 8.37191 8.0627 8.53754 7.99395C8.74691 7.90332 8.76254 7.90645 9.00941 8.01582ZM5.71254 8.01895C6.27191 8.13457 7.06566 8.4377 7.59691 8.74082C8.04691 8.99707 8.19066 9.11582 8.29066 9.3127C8.37504 9.4752 8.37816 9.50332 8.36566 9.79707C8.35316 10.0752 8.31879 10.2314 8.05316 11.1721C7.89066 11.7564 7.74066 12.2939 7.72191 12.3658C7.68129 12.5158 7.63441 12.5314 7.54066 12.4283C7.30941 12.1752 7.22191 11.4783 7.31879 10.6221C7.36879 10.1689 7.36254 9.98145 7.29691 9.78145C7.23129 9.58145 6.95316 9.00957 6.88129 8.92832C6.76566 8.8002 6.46879 8.92207 6.46879 9.1002C6.46879 9.14082 6.55316 9.3502 6.65941 9.5627L6.85004 9.95332L6.83129 10.2658C6.78129 11.0939 6.77504 11.5314 6.80941 11.7814L6.84691 12.0471L6.63441 12.5408C6.35004 13.2158 6.30629 13.2346 5.67504 12.9721L5.30629 12.8189L5.41566 12.7846C5.72504 12.6814 5.96879 12.0564 5.79066 11.8221C5.65004 11.6314 5.59066 11.6096 5.14691 11.6002C4.66566 11.5877 4.54379 11.6158 4.40941 11.7658C4.26879 11.9252 4.25941 12.0502 4.35629 12.3221C4.46879 12.6221 4.50316 12.6689 4.66879 12.7502C4.75004 12.7877 4.81254 12.8221 4.81254 12.8283C4.81254 12.8346 4.64691 12.9033 4.44379 12.9846C4.03441 13.1502 3.85004 13.1627 3.74691 13.0346C3.71879 13.0002 3.60629 12.7658 3.50316 12.5189L3.31254 12.0658L3.35004 11.6721C3.38129 11.3533 3.37816 11.1783 3.34379 10.7564C3.27816 9.99082 3.27816 9.99707 3.49691 9.54082C3.60316 9.3252 3.68754 9.12207 3.68754 9.0877C3.68754 8.99082 3.54691 8.8752 3.42816 8.8752C3.28441 8.8752 3.22191 8.95332 3.03129 9.35332C2.79379 9.85645 2.76566 10.0002 2.81566 10.4221C2.87816 10.9314 2.87191 11.7752 2.80316 12.0314C2.72504 12.3189 2.55316 12.5627 2.47816 12.4877C2.44379 12.4533 1.81254 10.1471 1.77816 9.93145C1.74379 9.70332 1.77504 9.44707 1.85629 9.28457C2.05004 8.9127 3.48129 8.20957 4.43754 8.01582C4.73129 7.95645 5.41879 7.95957 5.71254 8.01895ZM13.0563 8.01895C13.375 8.08145 14.1313 8.3377 14.4844 8.5002C14.9094 8.69707 15.4 9.0002 15.5313 9.14707C15.5969 9.22207 15.6688 9.34707 15.6907 9.42832C15.7782 9.73457 15.7438 9.93145 15.3813 11.2439C15.1938 11.9189 15.0313 12.4814 15.0188 12.4908C14.9875 12.5252 14.9 12.4596 14.8188 12.3439C14.6344 12.0689 14.5782 11.4221 14.6719 10.5533C14.7313 9.99082 14.6907 9.79707 14.4 9.20332C14.2719 8.94707 14.2 8.8752 14.0719 8.8752C13.95 8.8752 13.8125 8.99082 13.8125 9.09082C13.8125 9.1252 13.8907 9.30957 13.9844 9.50645C14.1813 9.9127 14.2188 10.0658 14.1844 10.3471C14.1313 10.7721 14.1157 11.4221 14.1532 11.7408L14.1907 12.0596L13.9844 12.5439C13.8688 12.8096 13.7563 13.0439 13.7313 13.0658C13.7063 13.0846 13.6282 13.1096 13.5532 13.1158C13.4469 13.1283 13.35 13.1033 13.0563 12.9846C12.8532 12.9033 12.6875 12.8314 12.6875 12.8252C12.6875 12.8189 12.7438 12.7908 12.8125 12.7627C12.9657 12.7002 13.0375 12.6033 13.1438 12.3221C13.2438 12.0627 13.2469 11.9064 13.1532 11.7783C13.0438 11.6221 12.9313 11.5939 12.4219 11.5939C11.9032 11.5939 11.7875 11.6252 11.6875 11.7877C11.6032 11.9252 11.6094 12.0658 11.7094 12.3283C11.8219 12.6252 11.8563 12.6721 12.0188 12.7533C12.0969 12.7908 12.1563 12.8252 12.15 12.8314C12.1 12.8783 11.4344 13.1252 11.3532 13.1252C11.1313 13.1252 11.0875 13.0752 10.8625 12.5439L10.6563 12.0533L10.6907 11.7846C10.725 11.5314 10.7188 11.1377 10.6688 10.2658L10.65 9.95332L10.8407 9.5627C10.9469 9.3502 11.0313 9.14082 11.0313 9.1002C11.0313 8.92207 10.7344 8.8002 10.6157 8.93145C10.5188 9.04082 10.2157 9.7127 10.1719 9.9252C10.1375 10.1002 10.1344 10.1846 10.1625 10.3752C10.1844 10.5033 10.2 10.8971 10.2 11.2502C10.2032 11.9408 10.175 12.1221 10.025 12.3439C9.94691 12.4564 9.85941 12.5252 9.82816 12.4939C9.81879 12.4846 9.65941 11.9439 9.47816 11.2939C8.97816 9.5002 8.98754 9.3252 9.61879 8.9127C10.2219 8.51895 11.2469 8.10645 11.9063 7.99082C12.1094 7.95645 12.8313 7.97207 13.0563 8.01895ZM8.96254 8.7877C8.88129 8.87207 8.80941 8.96582 8.79691 9.0002C8.76879 9.09082 8.74379 9.07832 8.64691 8.92207C8.59691 8.84707 8.51879 8.7502 8.47191 8.7127L8.38754 8.64082H8.75004H9.10941L8.96254 8.7877ZM5.30629 12.1908C5.26254 12.3189 5.10941 12.3877 4.97504 12.3408C4.92191 12.3221 4.87504 12.2846 4.86566 12.2564C4.85629 12.2283 4.84066 12.1783 4.82816 12.1471C4.80941 12.1002 4.83129 12.0939 5.07191 12.0939H5.34066L5.30629 12.1908ZM12.6719 12.1471C12.6594 12.1783 12.6438 12.2283 12.6344 12.2564C12.625 12.2846 12.5782 12.3221 12.525 12.3408C12.3907 12.3877 12.2375 12.3189 12.1938 12.1908L12.1594 12.0939H12.4282C12.6688 12.0939 12.6907 12.1002 12.6719 12.1471ZM5.27816 13.3502C5.39379 13.3971 5.43129 13.4252 5.40629 13.4502C5.36879 13.4877 4.90004 13.4971 4.76566 13.4596L4.67191 13.4314L4.84379 13.3596C5.06254 13.2689 5.08129 13.2658 5.27816 13.3502ZM12.6282 13.3471C12.7407 13.3971 12.775 13.4252 12.75 13.4502C12.7094 13.4908 12.2 13.4971 12.1094 13.4564C12.0563 13.4346 12.0657 13.4221 12.2032 13.3564C12.4 13.2658 12.4375 13.2658 12.6282 13.3471Z" fill="#737791"/>
<path id="Vector_2" d="M7.25928 4.67189C7.22178 4.70001 7.1749 4.77189 7.15928 4.83126C7.08428 5.10939 7.34053 5.33439 7.5874 5.20626C7.70615 5.14376 7.7499 5.06876 7.7499 4.92189C7.7499 4.68751 7.45303 4.53751 7.25928 4.67189Z" fill="#737791"/>
<path id="Vector_3" d="M9.82829 4.7252C9.75642 4.80957 9.74704 4.84707 9.75954 4.9627C9.77829 5.13457 9.85954 5.21895 10.0252 5.24082C10.1377 5.25645 10.1658 5.24707 10.2502 5.1627C10.3283 5.08457 10.3439 5.04395 10.3439 4.92207C10.3439 4.7252 10.247 4.6252 10.0502 4.6252C9.93142 4.6252 9.90017 4.64082 9.82829 4.7252Z" fill="#737791"/>
<path id="Vector_4" d="M8.29395 5.97178C7.9877 6.04365 7.88145 6.37178 8.04708 6.72803C8.18458 7.01553 8.48145 7.22803 8.7502 7.22803C9.13145 7.22803 9.53145 6.80928 9.53145 6.40928C9.53145 6.23115 9.4377 6.07178 9.29708 5.9999C9.18458 5.94678 8.48458 5.9249 8.29395 5.97178ZM9.01583 6.46553C9.0252 6.48428 8.9877 6.54678 8.93458 6.60615C8.86583 6.68428 8.80958 6.71865 8.7502 6.71865C8.69083 6.71865 8.63458 6.68428 8.56583 6.60615C8.5127 6.54678 8.4752 6.48428 8.48458 6.46553C8.49708 6.4499 8.61583 6.4374 8.7502 6.4374C8.88458 6.4374 9.00333 6.4499 9.01583 6.46553Z" fill="#737791"/>
<path id="Vector_5" d="M3.56899 9.69687C3.48149 9.7875 3.47836 9.96875 3.55649 10.0438C3.61586 10.0938 4.10024 10.2156 4.25336 10.2188C4.43461 10.2188 4.54711 9.92188 4.40961 9.8C4.34399 9.74062 3.89711 9.62813 3.73149 9.625C3.67211 9.625 3.61274 9.65 3.56899 9.69687Z" fill="#737791"/>
<path id="Vector_6" d="M6.05637 9.68416C5.922 9.71541 5.7845 9.76541 5.75012 9.79666C5.6595 9.87791 5.66575 10.0623 5.7595 10.1498C5.847 10.2342 5.90637 10.2342 6.26575 10.156C6.572 10.0873 6.65637 10.0279 6.65637 9.87478C6.65637 9.82791 6.62825 9.75291 6.59075 9.70603C6.51262 9.60916 6.41262 9.60291 6.05637 9.68416Z" fill="#737791"/>
<path id="Vector_7" d="M3.5873 10.4688C3.50293 10.5563 3.49355 10.5812 3.50918 10.7094C3.53105 10.9031 3.61543 10.9844 3.7998 10.9844C3.91855 10.9844 3.95605 10.9688 4.01855 10.8969C4.19043 10.6969 4.05293 10.375 3.79668 10.375C3.7123 10.375 3.65918 10.4 3.5873 10.4688Z" fill="#737791"/>
<path id="Vector_8" d="M6.15313 10.4657C6.08125 10.5376 6.0625 10.5845 6.0625 10.6876C6.0625 11.0032 6.46875 11.1157 6.6125 10.8407C6.66875 10.7282 6.66875 10.6438 6.60938 10.5313C6.51563 10.347 6.30313 10.3188 6.15313 10.4657Z" fill="#737791"/>
<path id="Vector_9" d="M10.9779 10.0002C10.8342 10.0596 10.7967 10.2877 10.9154 10.3971C11.0029 10.4815 11.5654 10.6034 11.6717 10.5627C11.8467 10.4971 11.8623 10.1752 11.6967 10.1096C11.6467 10.094 11.0623 9.96586 11.0498 9.97211C11.0498 9.97211 11.0154 9.98461 10.9779 10.0002Z" fill="#737791"/>
<path id="Vector_10" d="M13.625 10.0001C13.5656 10.0126 13.4344 10.0407 13.3344 10.0626C13.1219 10.1063 13.0312 10.1813 13.0312 10.3094C13.0312 10.4438 13.0594 10.4969 13.1594 10.5469C13.2375 10.5907 13.2781 10.5876 13.5594 10.5282C13.9156 10.4532 14 10.3938 14 10.2376C14 10.0407 13.85 9.94693 13.625 10.0001Z" fill="#737791"/>
<path id="Vector_11" d="M11.0752 10.7438C10.8658 10.775 10.7814 11.1094 10.9408 11.2656C11.0221 11.35 11.1439 11.3719 11.2752 11.3313C11.4221 11.2844 11.4877 10.9906 11.3814 10.8531C11.3252 10.775 11.1814 10.725 11.0752 10.7438Z" fill="#737791"/>
<path id="Vector_12" d="M13.6033 10.756C13.372 10.8154 13.3376 11.1998 13.5501 11.3123C13.6783 11.381 13.8189 11.3591 13.9158 11.2498C14.1314 11.0091 13.9158 10.6716 13.6033 10.756Z" fill="#737791"/>
<path id="Vector_13" d="M3.93748 4.60297C3.74061 4.75922 3.69373 4.9811 3.83123 5.09047C3.91561 5.1561 4.04686 5.17485 4.11873 5.1311C4.19686 5.0811 4.31248 4.89047 4.31248 4.81547C4.30936 4.6311 4.06873 4.49672 3.93748 4.60297Z" fill="#737791"/>
<path id="Vector_14" d="M13.3284 4.6C13.169 4.69062 13.1471 4.8375 13.2659 5C13.3627 5.13125 13.4002 5.15625 13.5034 5.15625C13.6284 5.15625 13.7502 5.04375 13.7502 4.92812C13.7502 4.76562 13.569 4.55937 13.4284 4.5625C13.4065 4.5625 13.3627 4.58125 13.3284 4.6Z" fill="#737791"/>
<path id="Vector_15" d="M13.8438 5.24394C13.7469 5.27519 13.6562 5.38769 13.6562 5.47519C13.6562 5.58144 13.7906 5.82519 13.8844 5.89082C14.0438 6.00019 14.25 5.88769 14.25 5.69082C14.25 5.46269 14.0031 5.19394 13.8438 5.24394Z" fill="#737791"/>
<path id="Vector_16" d="M3.4625 5.28419C3.37187 5.33419 3.25 5.57482 3.25 5.69669C3.25 5.78107 3.27187 5.82482 3.33125 5.87169C3.48437 5.99044 3.6125 5.94669 3.75312 5.72482C3.85937 5.55607 3.86875 5.44357 3.77812 5.33107C3.70937 5.24357 3.56562 5.22169 3.4625 5.28419Z" fill="#737791"/>
<path id="Vector_17" d="M3.02193 6.15018C2.97505 6.19705 2.91568 6.3033 2.88755 6.38143C2.8313 6.55643 2.86568 6.66893 3.0063 6.74705C3.14068 6.82518 3.25005 6.7658 3.35318 6.5658C3.45943 6.3533 3.46255 6.2408 3.35943 6.1408C3.2563 6.03455 3.12818 6.03768 3.02193 6.15018Z" fill="#737791"/>
<path id="Vector_18" d="M14.1343 6.14362C14.0656 6.21237 14.0593 6.2405 14.075 6.34987C14.1312 6.70612 14.3437 6.87175 14.5437 6.7155C14.6437 6.63737 14.6531 6.45612 14.5656 6.25925C14.4687 6.04987 14.2812 5.99675 14.1343 6.14362Z" fill="#737791"/>
<path id="Vector_19" d="M2.74982 7.02481C2.51857 7.25919 2.65919 7.62169 2.95294 7.54982C3.04669 7.52482 3.12169 7.41857 3.14669 7.26856C3.16857 7.13107 3.11857 7.02169 3.00919 6.97169C2.89357 6.91856 2.84669 6.92794 2.74982 7.02481Z" fill="#737791"/>
<path id="Vector_20" d="M14.469 6.97798C14.3596 7.03424 14.319 7.20924 14.3784 7.36549C14.4534 7.56236 14.6284 7.61236 14.7971 7.48736C14.894 7.41861 14.8815 7.14673 14.7784 7.04673C14.6815 6.95298 14.569 6.92486 14.469 6.97798Z" fill="#737791"/>
<path id="Vector_21" d="M6.63434 14.0062C6.54059 14.0499 6.48121 14.203 6.51871 14.3062C6.57809 14.478 6.93121 14.5655 7.04684 14.4374C7.12184 14.3562 7.12496 14.178 7.05309 14.0999C7.00309 14.0468 6.79996 13.9655 6.73121 13.9718C6.71559 13.9718 6.67184 13.9874 6.63434 14.0062Z" fill="#737791"/>
<path id="Vector_22" d="M10.5967 14.0123C10.4467 14.0655 10.3654 14.178 10.3873 14.2936C10.4279 14.4905 10.5936 14.553 10.8279 14.4561C11.0186 14.3748 11.0529 14.2061 10.9092 14.0592C10.8092 13.9623 10.7592 13.953 10.5967 14.0123Z" fill="#737791"/>
<path id="Vector_23" d="M7.44057 14.2781C7.35932 14.3594 7.35307 14.5281 7.4312 14.6219C7.4687 14.6719 7.54682 14.7 7.6937 14.725C7.89057 14.7594 7.91245 14.7594 7.99057 14.6969C8.06245 14.6469 8.07807 14.6094 8.07807 14.5C8.07807 14.3219 7.99057 14.2563 7.71557 14.2313C7.5312 14.2125 7.49995 14.2188 7.44057 14.2781Z" fill="#737791"/>
<path id="Vector_24" d="M9.60314 14.2593C9.45627 14.3124 9.39689 14.3874 9.40002 14.5061C9.40314 14.578 9.42814 14.6311 9.48752 14.6843C9.56564 14.7499 9.59377 14.7561 9.74689 14.7374C10.0531 14.6999 10.1844 14.5686 10.1156 14.3655C10.1 14.3186 10.0625 14.2655 10.0313 14.2499C9.95314 14.2093 9.72814 14.2155 9.60314 14.2593Z" fill="#737791"/>
<path id="Vector_25" d="M8.45312 14.3906C8.40313 14.4375 8.375 14.5031 8.375 14.5625C8.375 14.6219 8.40313 14.6875 8.45312 14.7344C8.51875 14.8031 8.55625 14.8125 8.75 14.8125C8.94688 14.8125 8.98125 14.8031 9.05313 14.7312C9.11875 14.6656 9.12813 14.6312 9.1125 14.5375C9.0875 14.3625 9.00313 14.3125 8.74375 14.3125C8.55625 14.3125 8.51875 14.3219 8.45312 14.3906Z" fill="#737791"/>
</g>
</g>
<defs>
<clipPath id="clip0_230_7906">
<rect width="16" height="16" fill="white" transform="translate(0.75)"/>
</clipPath>
</defs>
</svg>
