<svg width="21" height="21" viewBox="0 0 21 21" fill="none" xmlns="http://www.w3.org/2000/svg">
<g id="carbon:building">
<path id="Vector" d="M18.25 2H10.75C10.4186 2.00033 10.1008 2.13213 9.86648 2.36648C9.63213 2.60083 9.50033 2.91858 9.5 3.25V9.5H3.25C2.91858 9.50033 2.60083 9.63213 2.36648 9.86648C2.13213 10.1008 2.00033 10.4186 2 10.75V19.5H19.5V3.25C19.4997 2.91858 19.3679 2.60083 19.1335 2.36648C18.8992 2.13213 18.5814 2.00033 18.25 2ZM6.375 18.25V13.875H8.875V18.25H6.375ZM18.25 18.25H10.125V13.25C10.125 13.0842 10.0592 12.9253 9.94194 12.8081C9.82473 12.6908 9.66576 12.625 9.5 12.625H5.75C5.58424 12.625 5.42527 12.6908 5.30806 12.8081C5.19085 12.9253 5.125 13.0842 5.125 13.25V18.25H3.25V10.75H10.75V3.25H18.25V18.25Z" fill="#737791"/>
<path id="Vector_2" d="M12 5.75H13.25V7H12V5.75ZM15.75 5.75H17V7H15.75V5.75ZM12 9.5H13.25V10.75H12V9.5ZM15.75 9.5H17V10.75H15.75V9.5ZM12 13.25H13.25V14.5H12V13.25ZM15.75 13.25H17V14.5H15.75V13.25Z" fill="#737791"/>
</g>
</svg>
