<svg width="29" height="29" viewBox="0 0 29 29" fill="none" xmlns="http://www.w3.org/2000/svg">
<g id="calendar-icon-for-graphic-design-logo-website-social-media-mobile-app-ui-illustration-vector 1">
<g id="Group">
<path id="Vector" d="M9.20628 2.85526C8.96857 2.90922 8.7367 3.08859 8.6317 3.30005C8.54128 3.48526 8.53545 3.53776 8.53545 4.22901V4.84588H6.87878C5.26149 4.84588 5.2192 4.84588 5.07482 4.87651C4.49149 4.99463 4.05253 5.41609 3.87899 6.02276L3.8469 6.13651L3.84253 15.4407C3.83815 24.074 3.83961 24.755 3.86295 24.8834C3.9694 25.4857 4.40107 25.9538 5.00336 26.12L5.14482 26.1594H14.5H23.8552L23.9967 26.12C24.599 25.9538 25.0307 25.4857 25.1371 24.8834C25.1604 24.755 25.1619 24.074 25.1575 15.4407L25.1532 6.13651L25.1211 6.02276C24.9475 5.41609 24.5086 4.99463 23.9252 4.87651C23.7809 4.84588 23.7386 4.84588 22.1213 4.84588H20.4646V4.22172C20.4646 3.64713 20.4617 3.58734 20.4354 3.4838C20.3946 3.32338 20.3275 3.20671 20.2094 3.08859C19.9207 2.79838 19.4773 2.75317 19.1361 2.9763C18.9713 3.08422 18.8604 3.22567 18.7904 3.41817L18.7511 3.52609L18.7467 4.18526L18.7423 4.84588H14.5H10.2577L10.2534 4.18526L10.249 3.52609L10.2096 3.41817C10.1688 3.30734 10.1032 3.19651 10.02 3.10172C9.95149 3.02296 9.77357 2.91067 9.65982 2.87567C9.53295 2.8363 9.33024 2.82755 9.20628 2.85526ZM8.53545 6.99401C8.53545 7.59047 8.53836 7.65026 8.56461 7.7538C8.60545 7.91567 8.67107 8.03088 8.79065 8.14901C8.95836 8.31817 9.16107 8.40421 9.39149 8.40421C9.53732 8.40421 9.63065 8.38234 9.77503 8.3138C10.0054 8.20296 10.1819 7.97984 10.2344 7.72609C10.2519 7.64588 10.2563 7.48984 10.2563 6.98526C10.2563 6.63526 10.2621 6.34797 10.2679 6.34797C10.2884 6.34797 10.4357 6.48213 10.5129 6.56817C10.8513 6.9488 10.9679 7.49859 10.8148 7.98859C10.6632 8.4713 10.2957 8.83005 9.7969 8.98172C9.6744 9.01963 9.64815 9.02255 9.39586 9.02255C9.14357 9.02255 9.11732 9.01963 8.99774 8.98317C8.72065 8.89859 8.53253 8.7863 8.33857 8.58797C8.1417 8.38963 8.02503 8.18692 7.95065 7.90838C7.92149 7.80192 7.91711 7.75088 7.91711 7.5438C7.91857 7.34546 7.92295 7.28276 7.9492 7.19088C8.01336 6.95463 8.11545 6.75776 8.25836 6.58859C8.33857 6.49234 8.49899 6.34797 8.52378 6.34797C8.53107 6.34797 8.53545 6.63963 8.53545 6.99401ZM18.7438 6.98526C18.7438 7.48984 18.7482 7.64588 18.7657 7.72609C18.8182 7.97984 18.9946 8.20296 19.225 8.3138C19.3694 8.38234 19.4627 8.40421 19.6086 8.40421C19.839 8.40421 20.0417 8.31817 20.2094 8.14901C20.329 8.03088 20.3946 7.91567 20.4354 7.7538C20.4617 7.65026 20.4646 7.59047 20.4646 6.99401C20.4646 6.63963 20.469 6.34797 20.4763 6.34797C20.5011 6.34797 20.6615 6.49234 20.7417 6.58859C21.1063 7.0188 21.1938 7.64442 20.9619 8.16067C20.8904 8.31817 20.7913 8.46109 20.6557 8.59526C20.4646 8.7863 20.275 8.89859 20.0023 8.98317C19.8827 9.01963 19.8565 9.02255 19.6042 9.02255C19.3519 9.02255 19.3257 9.01963 19.2032 8.98172C18.5236 8.77463 18.089 8.17234 18.1211 7.48547C18.1415 7.06255 18.3165 6.69942 18.6373 6.41942C18.6825 6.38005 18.7248 6.34797 18.7321 6.34797C18.7379 6.34797 18.7438 6.63526 18.7438 6.98526ZM23.8552 17.6938C23.8552 22.9482 23.8523 23.9996 23.8348 24.0667C23.7677 24.3423 23.5636 24.5742 23.2996 24.6763L23.199 24.7157L14.5729 24.72C6.01982 24.723 5.94545 24.723 5.83315 24.6938C5.68149 24.6559 5.57503 24.5932 5.44961 24.4692C5.34024 24.3584 5.27024 24.2403 5.23232 24.0959C5.21336 24.0259 5.21045 23.1742 5.21045 17.704V11.3938L14.5336 11.3967L23.8552 11.4011V17.6938Z" fill="#06D6A0"/>
<path id="Vector_2" d="M7.44453 12.6816C7.37016 12.7049 7.27245 12.7997 7.24183 12.8784C7.21703 12.9426 7.21558 13.0184 7.21558 14.0918V15.238L7.25349 15.3095C7.29433 15.3911 7.3862 15.4684 7.46787 15.4918C7.50287 15.5005 7.91412 15.5063 8.63891 15.5063C9.85224 15.5063 9.82162 15.5078 9.92953 15.4261C9.95433 15.4072 9.9937 15.3561 10.0141 15.3138L10.052 15.238V14.0816C10.052 13.1438 10.0477 12.9149 10.0331 12.877C10.001 12.8011 9.93391 12.7341 9.85516 12.6976L9.78224 12.6626L8.63745 12.6641C7.88058 12.6655 7.47662 12.6713 7.44453 12.6816Z" fill="#06D6A0"/>
<path id="Vector_3" d="M11.3383 12.7004C11.296 12.7208 11.2449 12.7588 11.226 12.785C11.1429 12.8944 11.1458 12.8404 11.1458 14.0873C11.1458 15.3692 11.1414 15.2963 11.2479 15.3998C11.3558 15.5048 11.2697 15.499 12.5677 15.499H13.7343L13.7927 15.4669C13.8612 15.4304 13.9166 15.3735 13.9545 15.3021C13.9808 15.254 13.9822 15.1942 13.9822 14.0844V12.9177L13.9502 12.8594C13.9327 12.8273 13.8977 12.7806 13.8699 12.7544C13.7722 12.6596 13.8131 12.6625 12.5545 12.6625H11.4141L11.3383 12.7004Z" fill="#06D6A0"/>
<path id="Vector_4" d="M15.3037 12.6829C15.2337 12.7077 15.1462 12.7864 15.1083 12.8564L15.0762 12.9177V14.0843C15.0762 15.1941 15.0776 15.2539 15.1039 15.302C15.1418 15.3735 15.1972 15.4304 15.2658 15.4668C15.3241 15.4989 15.3285 15.4989 16.4601 15.5033C17.742 15.5077 17.7012 15.5106 17.8076 15.4041C17.9199 15.2918 17.9141 15.3618 17.9097 14.061L17.9053 12.9002L17.8616 12.8287C17.8339 12.785 17.7901 12.7412 17.7464 12.7135L17.6749 12.6697L16.5141 12.6668C15.6289 12.6654 15.3416 12.6683 15.3037 12.6829Z" fill="#06D6A0"/>
<path id="Vector_5" d="M19.2032 12.6976C19.1157 12.7384 19.0763 12.7793 19.037 12.8668C19.0078 12.9309 19.0063 12.9557 19.0063 14.0859V15.238L19.0428 15.3124C19.0647 15.3532 19.1041 15.4057 19.1332 15.4261C19.2382 15.5078 19.2251 15.5063 20.4268 15.5063C21.1457 15.5063 21.5555 15.5005 21.5905 15.4918C21.6722 15.4684 21.7641 15.3911 21.8049 15.3095L21.8428 15.238V14.0772V12.9178L21.8107 12.858C21.7699 12.7807 21.678 12.702 21.6036 12.6801C21.5628 12.667 21.2318 12.6626 20.4122 12.6626H19.2761L19.2032 12.6976Z" fill="#06D6A0"/>
<path id="Vector_6" d="M7.46946 16.6058C7.34259 16.6393 7.25217 16.737 7.223 16.8697C7.21279 16.9193 7.20842 17.3029 7.21134 18.051C7.21571 19.1404 7.21571 19.1608 7.24634 19.2249C7.28425 19.3066 7.37759 19.3927 7.45196 19.4145C7.49134 19.4262 7.85009 19.4291 8.66967 19.4262L9.8305 19.4218L9.89321 19.3781C9.92821 19.3533 9.97634 19.3052 10.0011 19.2702L10.0449 19.2074L10.0493 18.032L10.0522 16.8566L10.0143 16.7793C9.97196 16.6904 9.88592 16.6233 9.78821 16.6014C9.68904 16.5781 7.5555 16.5824 7.46946 16.6058Z" fill="#06D6A0"/>
<path id="Vector_7" d="M11.4155 16.5986C11.3033 16.6263 11.188 16.7313 11.1603 16.8319C11.1516 16.864 11.1458 17.3161 11.1458 18.0219V19.1594L11.1808 19.2338C11.2201 19.3184 11.2974 19.3884 11.3776 19.4132C11.417 19.4248 11.7626 19.4292 12.5778 19.4292H13.7212L13.797 19.3913C13.8845 19.3475 13.9501 19.2644 13.9749 19.1652C13.9851 19.1215 13.9895 18.7511 13.9866 17.9709L13.9822 16.8407L13.9501 16.7794C13.9326 16.7473 13.8933 16.6992 13.8626 16.6744C13.7533 16.584 13.7737 16.5854 12.5618 16.5869C11.9551 16.5884 11.4403 16.5927 11.4155 16.5986Z" fill="#06D6A0"/>
<path id="Vector_8" d="M15.3122 16.6088C15.267 16.6234 15.2189 16.654 15.1781 16.6948C15.0643 16.8086 15.0672 16.7619 15.0716 18.0452C15.076 19.1682 15.076 19.174 15.1066 19.2323C15.1489 19.3111 15.2087 19.3694 15.2802 19.4015C15.3356 19.4277 15.4041 19.4292 16.4906 19.4292H17.6427L17.7156 19.3942C17.8031 19.3534 17.8425 19.3125 17.8818 19.225C17.911 19.1609 17.9125 19.1361 17.9125 18.0102C17.9125 16.7429 17.9168 16.8042 17.8206 16.705C17.7943 16.6773 17.7477 16.6423 17.7156 16.6248C17.6572 16.5927 17.6558 16.5927 16.5197 16.5898C15.5441 16.5869 15.372 16.5898 15.3122 16.6088Z" fill="#06D6A0"/>
<path id="Vector_9" d="M19.2762 16.5985C19.2091 16.6146 19.1493 16.651 19.0983 16.705C19.002 16.8042 19.0064 16.7444 19.0064 18.0029C19.0064 18.7744 19.0122 19.1638 19.0224 19.2017C19.0428 19.276 19.1551 19.3883 19.2339 19.4117C19.2791 19.4248 19.578 19.4292 20.4341 19.4292C21.6912 19.4292 21.6314 19.4335 21.7305 19.3373C21.7583 19.311 21.7933 19.2644 21.8108 19.2323L21.8428 19.174V18.0219C21.8428 17.0798 21.8385 16.8596 21.8224 16.8129C21.8122 16.7808 21.7743 16.7283 21.7408 16.6933C21.6285 16.5825 21.6708 16.5854 20.4224 16.5869C19.8158 16.5883 19.301 16.5927 19.2762 16.5985Z" fill="#06D6A0"/>
<path id="Vector_10" d="M7.41974 20.5506C7.34683 20.5827 7.26224 20.676 7.23599 20.7504C7.21995 20.7971 7.21558 21.0202 7.21558 21.9521C7.21558 23.0181 7.21703 23.1012 7.24183 23.1523C7.27537 23.2252 7.37162 23.3171 7.4387 23.3404C7.48099 23.355 7.73328 23.3594 8.64474 23.3594H9.79683L9.86099 23.3258C9.93974 23.2835 9.98933 23.231 10.0243 23.1552C10.0506 23.0998 10.052 23.0327 10.052 21.9404C10.052 20.9925 10.0491 20.7752 10.0316 20.7358C10.001 20.6644 9.92808 20.5885 9.85516 20.5535C9.79099 20.5229 9.77933 20.5229 8.63453 20.5229C7.54662 20.5229 7.47516 20.5258 7.41974 20.5506Z" fill="#06D6A0"/>
<path id="Vector_11" d="M11.3426 20.5579C11.2551 20.5987 11.2158 20.6396 11.1764 20.7271C11.1472 20.7912 11.1458 20.816 11.1458 21.9317C11.1458 23.1902 11.1428 23.1494 11.2376 23.2471C11.2639 23.2748 11.3106 23.3098 11.3426 23.3273L11.401 23.3594H12.5603H13.7212L13.7926 23.3215C13.8743 23.2806 13.9516 23.1887 13.9749 23.1071C13.9837 23.0721 13.9895 22.6623 13.9895 21.9433C13.9895 20.7067 13.991 20.7344 13.8918 20.6323C13.7795 20.5171 13.8612 20.5229 12.5676 20.5229H11.4156L11.3426 20.5579Z" fill="#06D6A0"/>
<path id="Vector_12" d="M15.2803 20.5506C15.1928 20.5899 15.1039 20.6979 15.0849 20.7868C15.0747 20.8349 15.0689 21.2316 15.0689 21.9506C15.0689 23.1872 15.0659 23.1449 15.1782 23.2572C15.292 23.371 15.2453 23.3681 16.5286 23.3637C17.6545 23.3593 17.6574 23.3593 17.7157 23.3272C17.7478 23.3097 17.7945 23.2747 17.8207 23.247C17.917 23.1479 17.9126 23.2091 17.9126 21.9418V20.7926L17.8776 20.7197C17.8368 20.6322 17.7959 20.5929 17.7084 20.5535C17.6443 20.5243 17.6195 20.5229 16.4907 20.5229C15.4043 20.5229 15.3357 20.5243 15.2803 20.5506Z" fill="#06D6A0"/>
</g>
</g>
</svg>
