<svg width="20" height="22" viewBox="0 0 20 22" fill="none" xmlns="http://www.w3.org/2000/svg">
<g id="Group">
<g id="Group 2">
<circle id="Oval" cx="8" cy="20" r="2" fill="#B8BCBF"/>
<path id="Path" d="M16 18C14.8954 18 14 18.8954 14 20C14 21.1046 14.8954 22 16 22C17.1046 22 18 21.1046 18 20C18 18.8954 17.1046 18 16 18Z" fill="#B8BCBF"/>
<path id="Path_2" d="M19.2519 14.3805H6.50873L6.25935 12.8157H16.7332C17.0413 12.8167 17.3185 12.6132 17.4314 12.303L19.9252 5.50404C20.0767 5.08816 19.8879 4.61812 19.5035 4.45424C19.4154 4.41666 19.3216 4.39754 19.2269 4.39785H4.96259L4.36409 0.674585C4.30262 0.280896 3.98496 -0.00550544 3.61596 8.03043e-05H0.74813C0.334954 8.03043e-05 0 0.362469 0 0.809486C0 1.2565 0.334954 1.61889 0.74813 1.61889H2.99252L5.13716 14.6823C5.34279 15.9993 6.11398 16.0053 6.50873 15.9993H19.2519C19.665 15.9993 20 15.6369 20 15.1899C20 14.7429 19.665 14.3805 19.2519 14.3805Z" fill="#B8BCBF"/>
</g>
</g>
</svg>
