<svg width="25" height="25" viewBox="0 0 25 25" fill="none" xmlns="http://www.w3.org/2000/svg">
<g id="Icon Frame">
<path id="Subtract" fill-rule="evenodd" clip-rule="evenodd" d="M2.83301 12.5C2.83301 6.97715 7.31016 2.5 12.833 2.5C18.3559 2.5 22.833 6.97715 22.833 12.5C22.833 18.0228 18.3559 22.5 12.833 22.5C7.31016 22.5 2.83301 18.0228 2.83301 12.5ZM12.833 8.5C12.833 7.94772 12.3853 7.5 11.833 7.5C11.2807 7.5 10.833 7.94772 10.833 8.5V13.5C10.833 14.0523 11.2807 14.5 11.833 14.5H16.833C17.3853 14.5 17.833 14.0523 17.833 13.5C17.833 12.9477 17.3853 12.5 16.833 12.5H12.833V8.5Z" fill="#737791"/>
</g>
</svg>
