<svg width="24" height="24" viewBox="0 0 24 24" fill="none" xmlns="http://www.w3.org/2000/svg">
<g id="Icon Frame">
<path id="Subtract" fill-rule="evenodd" clip-rule="evenodd" d="M9.76484 2.99755C10.9573 1.66553 13.0427 1.66553 14.2352 2.99754L14.936 3.78031C15.1385 4.0066 15.433 4.12855 15.7362 4.11179L16.7852 4.0538C18.5703 3.95511 20.0449 5.42976 19.9462 7.21482L19.8883 8.26383C19.8715 8.56708 19.9934 8.86151 20.2197 9.06409L21.0025 9.76484C22.3345 10.9573 22.3345 13.0428 21.0025 14.2352L20.2197 14.936C19.9934 15.1385 19.8715 15.433 19.8883 15.7362L19.9462 16.7852C20.0449 18.5703 18.5703 20.0449 16.7852 19.9462L15.7362 19.8883C15.433 19.8715 15.1385 19.9934 14.936 20.2197L14.2352 21.0025C13.0428 22.3345 10.9573 22.3345 9.76484 21.0025L9.06409 20.2197C8.86151 19.9934 8.56708 19.8715 8.26383 19.8883L7.21482 19.9462C5.42976 20.0449 3.95511 18.5703 4.0538 16.7852L4.11179 15.7362C4.12855 15.433 4.0066 15.1385 3.78031 14.936L2.99755 14.2352C1.66553 13.0428 1.66553 10.9573 2.99754 9.76484L3.78031 9.06409C4.0066 8.86151 4.12855 8.56708 4.11179 8.26383L4.0538 7.21482C3.95511 5.42976 5.42976 3.95511 7.21482 4.0538L8.26383 4.11179C8.56708 4.12855 8.86151 4.0066 9.06409 3.78031L9.76484 2.99755ZM15.7071 8.29291C16.0976 8.68344 16.0976 9.3166 15.7071 9.70713L9.70712 15.7071C9.3166 16.0977 8.68343 16.0977 8.29291 15.7071C7.90238 15.3166 7.90238 14.6834 8.29291 14.2929L14.2929 8.29291C14.6834 7.90239 15.3166 7.90239 15.7071 8.29291ZM9.50002 8.00002C8.67159 8.00002 8.00002 8.67159 8.00002 9.50002V9.51002C8.00002 10.3384 8.67159 11.01 9.50002 11.01H9.51002C10.3384 11.01 11.01 10.3384 11.01 9.51002V9.50002C11.01 8.67159 10.3384 8.00002 9.51002 8.00002H9.50002ZM14.5 13C13.6716 13 13 13.6716 13 14.5V14.51C13 15.3384 13.6716 16.01 14.5 16.01H14.51C15.3384 16.01 16.01 15.3384 16.01 14.51V14.5C16.01 13.6716 15.3384 13 14.51 13H14.5Z" fill="white"/>
</g>
</svg>
