<svg width="92" height="92" viewBox="0 0 92 92" fill="none" xmlns="http://www.w3.org/2000/svg">
<g id="Frame 1000006748">
<rect width="91.75" height="91.75" rx="45.875" fill="white"/>
<g id="g38">
<path id="path40" d="M71.4237 33.3592C71.4024 33.4629 71.3615 33.5596 71.3028 33.6461C71.1997 33.7978 71.052 33.9068 70.876 33.9621C69.6986 34.3292 67.3349 34.939 64.6974 34.9019C64.0962 34.8971 63.5253 35.1694 63.1661 35.641C62.942 35.9363 62.8139 36.2886 62.7961 36.6598C62.7677 37.2136 62.7072 37.9172 62.5827 38.7229C60.8664 38.8468 54.8782 38.9306 52.0414 34.4542C52.1179 34.3648 52.1926 34.2737 52.2619 34.1784L52.3438 34.0658C53.1263 34.9406 54.2539 35.4164 55.5913 35.4164C55.8172 35.4164 56.052 35.4034 56.2903 35.3771C59.6268 35.0145 60.3009 31.9698 60.7935 29.7465C60.9856 28.891 61.1634 28.08 61.4445 27.502C61.9069 26.5487 61.978 25.5172 61.6437 24.5994L61.6348 24.5745C61.5778 24.4145 61.5067 24.2597 61.4285 24.1121L62.2252 24.0285C63.335 24.041 64.3879 24.466 65.1971 25.2273L67.4897 27.3864C67.6124 27.502 67.7635 27.5873 67.9272 27.6336L69.1775 27.984C68.2651 30.4721 69.8729 32.2394 69.9458 32.3173C70.1059 32.4897 70.3211 32.6033 70.554 32.6394L71.5162 32.789L71.4237 33.3592ZM65.8018 39.42C66.1113 39.42 66.4546 39.8111 66.4546 40.3723C66.4546 40.9341 66.1113 41.325 65.8018 41.325C65.4941 41.325 65.1509 40.9341 65.1509 40.3723C65.1509 39.8111 65.4941 39.42 65.8018 39.42ZM60.9162 44.4141C60.1355 46.2987 59.1235 48.2922 57.9105 50.3389C57.8216 50.4876 57.7362 50.6358 57.6527 50.7812L57.6295 50.8248C57.0889 51.7781 56.5998 52.7575 56.1391 53.814C56.1178 53.849 56.1 53.8856 56.0822 53.9234C53.5265 59.8266 53.4927 64.679 53.4927 64.8826C53.4927 65.2813 53.7168 65.6468 54.0743 65.8254L56.7118 67.144C56.9733 67.2749 57.1369 67.5386 57.1369 67.8319V68.3863H52.5785C52.1819 68.3863 51.844 68.0758 51.812 67.68L50.6328 53.4407C50.6328 53.4401 50.6328 53.4401 50.6328 53.4396L50.631 53.4202C50.631 53.4113 50.6275 53.4024 50.6275 53.3935C50.6239 53.3685 50.6222 53.3432 50.6168 53.3181C50.6133 53.303 50.6097 53.2877 50.6062 53.2726C50.6044 53.2585 50.6008 53.2443 50.5973 53.2303C50.583 53.1762 50.2327 51.9063 49.5799 50.5447C48.6178 48.5398 47.4848 47.3556 46.215 47.0243C45.653 46.8777 45.0785 47.2148 44.9309 47.777C44.7833 48.3399 45.1212 48.915 45.6832 49.0618C46.295 49.2213 47.0189 50.0846 47.668 51.4304C47.8921 51.8948 48.0771 52.3524 48.2211 52.7397C45.0607 53.3359 40.6429 53.1611 36.7959 52.2498C36.675 52.2209 36.5558 52.1911 36.4367 52.1612L36.3922 52.1503C36.3211 52.1318 36.2481 52.1135 36.177 52.0952C35.5563 51.9314 34.9889 51.7534 34.4732 51.565C35.3767 49.6741 35.8213 47.6886 35.848 47.5666C35.9725 46.9992 35.6132 46.4379 35.0459 46.3129C34.4785 46.1882 33.9165 46.5473 33.792 47.1148C33.6195 47.8938 33.093 49.738 32.3123 51.1771C32.2109 51.2456 32.1202 51.3326 32.0473 51.4368C28.4387 56.4926 23.4037 57.617 23.3556 57.6269C22.8665 57.7285 22.5162 58.1589 22.5162 58.6578V64.8835C22.5162 65.3139 22.7794 65.7013 23.1778 65.861L26.5872 67.2251C26.8825 67.3423 27.071 67.6229 27.071 67.9392V68.3858H22.4077C22.0306 68.3858 21.7034 68.1035 21.6483 67.7293L20.1187 57.4109L22.2903 54.4252C23.2187 53.147 23.7113 51.6356 23.7113 50.0547V44.9728C23.7113 44.4906 23.7611 44.0027 23.8607 43.5217C23.9479 43.0966 23.7665 42.661 23.4019 42.4248C22.1249 41.5989 19.1566 39.285 19.1566 35.654C19.1566 33.7067 19.9764 31.509 21.3032 29.6166C20.9635 30.513 20.6896 31.4627 20.542 32.4326C20.0245 35.8546 21.2392 38.6496 24.0528 40.5147C24.4957 40.8084 25.0879 40.7256 25.433 40.3226C26.637 38.919 28.3106 38.0449 30.1407 37.8617L48.9166 36.0787C49.4145 36.0311 49.8965 35.9048 50.3465 35.7092C52.0165 38.2596 54.7341 39.9394 58.2431 40.5812C59.4685 40.8046 60.5961 40.8676 61.4782 40.8676C61.7166 40.8676 61.9371 40.8628 62.1363 40.8555C62.0616 41.1391 61.9798 41.4276 61.8891 41.7223L60.9162 44.4141ZM53.7079 28.6954C54.2112 27.6496 55.7034 25.6719 57.4428 24.5443C57.6847 24.3878 57.9621 24.306 58.2467 24.306C58.8745 24.306 59.4418 24.7026 59.6553 25.2913L59.6659 25.3162C59.8029 25.6968 59.762 26.1468 59.5503 26.5825C59.1608 27.3846 58.9474 28.3539 58.7393 29.2912C58.2164 31.6424 57.8092 33.0937 56.0627 33.2838C55.899 33.3016 55.7407 33.3105 55.5913 33.3105C54.7145 33.3105 54.1009 33.0142 53.7186 32.4048C53.057 31.3543 53.2206 29.7091 53.7079 28.6954ZM73.1987 30.6678C73.1969 30.6749 73.1952 30.6838 73.1934 30.6909C73.1791 30.7691 73.1525 30.8403 73.1169 30.9079L71.3064 30.6251C71.0894 30.2569 70.8084 29.5117 71.2157 28.5549L73.5117 29.1987L73.1987 30.6678ZM74.2036 27.205L68.7453 25.6754L66.6395 23.6942C65.4248 22.5524 63.8383 21.9228 62.1719 21.9228C62.1345 21.9228 62.0972 21.9245 62.0598 21.9281L59.3245 22.2198C59.2249 22.2304 59.1306 22.2553 59.0417 22.2909C58.7838 22.2322 58.517 22.2002 58.2467 22.2002C57.5566 22.2002 56.8825 22.3994 56.2992 22.7765C54.0832 24.2099 52.4007 26.5558 51.8102 27.7812C51.2838 28.875 50.9992 30.4543 51.3051 31.9205L50.5635 32.9341C50.1259 33.5303 49.4537 33.9125 48.7174 33.982L29.9379 35.7661C27.8891 35.9708 25.9967 36.8392 24.5152 38.2375C22.8932 36.8702 22.2743 35.0657 22.6247 32.7477C22.9679 30.481 24.1631 28.2667 25.1057 26.8101C25.4828 26.225 25.3956 25.4816 24.8941 25.0014C24.389 24.5158 23.6367 24.4607 23.0657 24.8644C19.5798 27.3295 17.0508 31.8666 17.0508 35.654C17.0508 37.5967 17.6857 39.4368 18.9396 41.1219C19.8217 42.306 20.8426 43.1907 21.6821 43.7975C21.6305 44.1892 21.6056 44.5822 21.6056 44.9728V50.0547C21.6056 51.1876 21.2534 52.2706 20.5865 53.1867L18.3811 56.2192C18.077 56.6381 17.9507 57.1501 18.0272 57.662L19.5638 68.0381C19.7719 69.4369 20.9938 70.4917 22.4077 70.4917H27.2133C28.2964 70.4917 29.1767 69.6106 29.1767 68.5275V67.9392C29.1767 66.7566 28.4671 65.7091 27.3698 65.27L24.622 64.1705V59.4586C26.1604 58.9697 29.5307 57.5866 32.5044 54.2337C32.6324 54.1825 32.7534 54.1049 32.8565 54.0013C33.0397 53.8186 33.214 53.6171 33.3776 53.4019C34.0517 53.6669 34.8093 53.9118 35.6417 54.1316C35.7199 54.1521 35.8 54.1725 35.88 54.1924L35.9227 54.2028C36.0489 54.2348 36.177 54.2668 36.3104 54.2981C39.7803 55.1205 44.7424 55.545 48.632 54.8059L49.7133 67.8538C49.836 69.3332 51.0935 70.4917 52.5785 70.4917H57.2774C58.3605 70.4917 59.2426 69.6106 59.2426 68.5275V67.8319C59.2426 66.7362 58.6326 65.7505 57.6527 65.2605L55.6269 64.2475C55.723 62.8184 56.1409 59.1518 57.9532 54.9054C57.9728 54.8713 57.9906 54.8357 58.0066 54.7986C58.4565 53.7553 58.9314 52.7952 59.4596 51.8659L59.4827 51.8258C59.5592 51.6885 59.6393 51.5508 59.7211 51.4131C60.9909 49.2722 62.0509 47.1808 62.8708 45.1972C62.8779 45.1826 62.8833 45.1675 62.8886 45.1527L63.8401 42.5175C64.3417 43.0802 65.0353 43.4304 65.8018 43.4304C67.3225 43.4304 68.5603 42.0585 68.5603 40.3723C68.5603 38.6862 67.3225 37.3141 65.8018 37.3141C65.4675 37.3141 65.1456 37.3847 64.8485 37.5067C64.8628 37.3324 64.8752 37.1659 64.8859 37.0089C64.9001 37.0089 64.9144 37.0094 64.9286 37.0094C67.7475 37.0089 70.2446 36.3645 71.502 35.9718C72.128 35.7766 72.6758 35.3709 73.044 34.8297C73.2663 34.5014 73.4175 34.1377 73.4939 33.7476C73.4957 33.7361 73.4975 33.7245 73.5011 33.7131L73.5864 33.1796C74.4401 32.8105 75.0751 32.0441 75.26 31.0964L75.6015 29.485C75.6033 29.4779 75.6051 29.4708 75.6068 29.4619C75.7954 28.4642 75.1764 27.4717 74.2036 27.205Z" fill="#06D6A0"/>
</g>
</g>
</svg>
