<svg width="20" height="20" viewBox="0 0 20 20" fill="none" xmlns="http://www.w3.org/2000/svg">
<g id="mingcute:pdf-fill" clip-path="url(#clip0_229_5151)">
<g id="Group">
<path id="Vector" fill-rule="evenodd" clip-rule="evenodd" d="M10.0002 1.66663V7.08329C10.0002 7.41481 10.1319 7.73276 10.3663 7.96718C10.6007 8.2016 10.9186 8.33329 11.2502 8.33329H16.6668V16.6666C16.6668 17.1087 16.4912 17.5326 16.1787 17.8451C15.8661 18.1577 15.4422 18.3333 15.0002 18.3333H5.00016C4.55814 18.3333 4.13421 18.1577 3.82165 17.8451C3.50909 17.5326 3.3335 17.1087 3.3335 16.6666V3.33329C3.3335 2.89127 3.50909 2.46734 3.82165 2.15478C4.13421 1.84222 4.55814 1.66663 5.00016 1.66663H10.0002ZM9.176 9.87329C8.97636 11.1425 8.31265 12.2923 7.3135 13.1C6.57433 13.6966 7.25016 14.8675 8.13683 14.5266C9.33589 14.0651 10.6636 14.0651 11.8627 14.5266C12.7493 14.8683 13.4252 13.6975 12.686 13.1C11.6869 12.2922 11.0232 11.1424 10.8235 9.87329C10.676 8.93496 9.3235 8.93413 9.176 9.87329ZM10.0002 11.9191L10.6718 13.0808H9.33016L10.0002 11.9191ZM11.6668 1.70246C11.9826 1.76942 12.2721 1.92662 12.5002 2.15496L16.1785 5.83329C16.4068 6.0614 16.564 6.35089 16.631 6.66663H11.6668V1.70246Z" fill="black"/>
</g>
</g>
<defs>
<clipPath id="clip0_229_5151">
<rect width="20" height="20" fill="white"/>
</clipPath>
</defs>
</svg>
