<svg width="17" height="16" viewBox="0 0 17 16" fill="none" xmlns="http://www.w3.org/2000/svg">
<g id="icons8:gender">
<path id="Vector" d="M11.7501 1.5V2.5H13.5316L11.8441 4.203C11.241 3.74755 10.5059 3.50079 9.75014 3.5C8.81514 3.5 7.94214 3.87 7.28114 4.5315C6.95441 4.85429 6.69501 5.23873 6.51798 5.66253C6.34095 6.08634 6.24982 6.54107 6.24986 7.00035C6.24991 7.45964 6.34114 7.91436 6.51825 8.33812C6.69536 8.76189 6.95484 9.14628 7.28164 9.469C7.71664 9.904 8.23464 10.2165 8.81264 10.375C8.86964 10.3315 8.93364 10.286 8.98464 10.235C9.19421 10.0218 9.3448 9.75788 9.42164 9.469C8.8773 9.4018 8.37118 9.15411 7.98414 8.7655C7.51214 8.294 7.25014 7.668 7.25014 7C7.25014 6.332 7.51264 5.707 7.98514 5.235C8.45614 4.7615 9.08214 4.5 9.75014 4.5C10.4181 4.5 11.0436 4.7625 11.5151 5.235C11.7484 5.46586 11.9335 5.74077 12.0597 6.04376C12.1859 6.34675 12.2506 6.67179 12.2501 7C12.2501 7.4325 12.1276 7.835 11.9221 8.203C11.9701 8.461 12.0001 8.732 12.0001 9C12.0001 9.249 11.9791 9.495 11.9376 9.735C12.0376 9.6535 12.1266 9.561 12.2191 9.469C12.8801 8.807 13.2501 7.935 13.2501 7C13.2501 6.235 12.9981 5.508 12.5471 4.906L14.2501 3.219V5H15.2501V1.5H11.7501ZM8.68764 5.625C8.63064 5.6685 8.56664 5.714 8.51564 5.765C8.29964 5.982 8.15864 6.245 8.07864 6.5315C8.62364 6.6015 9.12114 6.8395 9.51614 7.2345C9.98864 7.706 10.2511 8.332 10.2511 8.9995C10.2511 9.667 9.98864 10.2925 9.51614 10.7645C9.04414 11.2385 8.41814 11.5 7.75014 11.5C7.08214 11.5 6.45664 11.2375 5.98514 10.765C5.75166 10.5343 5.56643 10.2594 5.44025 9.95637C5.31406 9.65335 5.24943 9.32825 5.25014 9C5.25014 8.5675 5.37264 8.165 5.57814 7.797C5.52793 7.53426 5.50183 7.26749 5.50014 7C5.50014 6.751 5.52114 6.505 5.56264 6.265C5.46264 6.3465 5.37414 6.439 5.28114 6.5315C4.62114 7.192 4.25014 8.065 4.25014 9C4.25014 9.765 4.50214 10.492 4.95314 11.094L4.11014 11.9375L3.11014 10.9375L2.39014 11.6405L3.39014 12.6405L2.39014 13.6405L3.11014 14.3605L4.11014 13.3605L5.11014 14.3605L5.81264 13.6405L4.81264 12.6405L5.65664 11.7975C6.25922 12.2536 6.99438 12.5003 7.75014 12.5C8.68514 12.5 9.55814 12.13 10.2191 11.4685C10.8801 10.808 11.2501 9.935 11.2501 9C11.2501 8.065 10.8801 7.193 10.2186 6.531C9.78364 6.096 9.26564 5.7835 8.68764 5.625Z" fill="#737791"/>
</g>
</svg>
