<svg width="24" height="24" viewBox="0 0 24 24" fill="none" xmlns="http://www.w3.org/2000/svg">
<g id="Emoji happy smile">
<path id="Vector" fill-rule="evenodd" clip-rule="evenodd" d="M12 20C14.1217 20 16.1566 19.1571 17.6569 17.6569C19.1571 16.1566 20 14.1217 20 12C20 9.87827 19.1571 7.84344 17.6569 6.34315C16.1566 4.84285 14.1217 4 12 4C9.87827 4 7.84344 4.84285 6.34315 6.34315C4.84285 7.84344 4 9.87827 4 12C4 14.1217 4.84285 16.1566 6.34315 17.6569C7.84344 19.1571 9.87827 20 12 20ZM9 11C9.26522 11 9.51957 10.8946 9.70711 10.7071C9.89464 10.5196 10 10.2652 10 10C10 9.73478 9.89464 9.48043 9.70711 9.29289C9.51957 9.10536 9.26522 9 9 9C8.73478 9 8.48043 9.10536 8.29289 9.29289C8.10536 9.48043 8 9.73478 8 10C8 10.2652 8.10536 10.5196 8.29289 10.7071C8.48043 10.8946 8.73478 11 9 11ZM16 10C16 10.2652 15.8946 10.5196 15.7071 10.7071C15.5196 10.8946 15.2652 11 15 11C14.7348 11 14.4804 10.8946 14.2929 10.7071C14.1054 10.5196 14 10.2652 14 10C14 9.73478 14.1054 9.48043 14.2929 9.29289C14.4804 9.10536 14.7348 9 15 9C15.2652 9 15.5196 9.10536 15.7071 9.29289C15.8946 9.48043 16 9.73478 16 10ZM15.536 15.535C15.6288 15.4421 15.7025 15.3318 15.7527 15.2104C15.8029 15.0891 15.8287 14.959 15.8287 14.8276C15.8287 14.6963 15.8027 14.5662 15.7524 14.4449C15.7021 14.3236 15.6284 14.2133 15.5355 14.1205C15.4426 14.0277 15.3323 13.954 15.2109 13.9038C15.0896 13.8536 14.9595 13.8278 14.8281 13.8278C14.6968 13.8278 14.5667 13.8538 14.4454 13.9041C14.3241 13.9544 14.2138 14.0281 14.121 14.121C13.5584 14.6834 12.7955 14.9994 12 14.9994C11.2045 14.9994 10.4416 14.6834 9.879 14.121C9.69149 13.9334 9.43712 13.8279 9.17185 13.8278C8.90658 13.8277 8.65214 13.933 8.4645 14.1205C8.27686 14.308 8.17139 14.5624 8.1713 14.8276C8.1712 15.0929 8.27649 15.3474 8.464 15.535C8.92831 15.9994 9.47956 16.3678 10.0863 16.6192C10.693 16.8706 11.3433 16.9999 12 16.9999C12.6567 16.9999 13.307 16.8706 13.9137 16.6192C14.5204 16.3678 15.0717 15.9994 15.536 15.535Z" fill="#84919A"/>
</g>
</svg>
