<svg width="25" height="25" viewBox="0 0 25 25" fill="none" xmlns="http://www.w3.org/2000/svg">
<g id="mdi:internet">
<path id="Vector" d="M16.5265 14.5C16.6065 13.84 16.6665 13.18 16.6665 12.5C16.6665 11.82 16.6065 11.16 16.5265 10.5H19.9065C20.0665 11.14 20.1665 11.81 20.1665 12.5C20.1665 13.19 20.0665 13.86 19.9065 14.5M14.7565 20.06C15.3565 18.95 15.8165 17.75 16.1365 16.5H19.0865C18.1177 18.1683 16.5806 19.432 14.7565 20.06ZM14.5065 14.5H9.8265C9.7265 13.84 9.6665 13.18 9.6665 12.5C9.6665 11.82 9.7265 11.15 9.8265 10.5H14.5065C14.5965 11.15 14.6665 11.82 14.6665 12.5C14.6665 13.18 14.5965 13.84 14.5065 14.5ZM12.1665 20.46C11.3365 19.26 10.6665 17.93 10.2565 16.5H14.0765C13.6665 17.93 12.9965 19.26 12.1665 20.46ZM8.1665 8.5H5.2465C6.20536 6.82721 7.7413 5.56149 9.5665 4.94C8.9665 6.05 8.5165 7.25 8.1665 8.5ZM5.2465 16.5H8.1665C8.5165 17.75 8.9665 18.95 9.5665 20.06C7.74513 19.4317 6.21135 18.1677 5.2465 16.5ZM4.4265 14.5C4.2665 13.86 4.1665 13.19 4.1665 12.5C4.1665 11.81 4.2665 11.14 4.4265 10.5H7.8065C7.7265 11.16 7.6665 11.82 7.6665 12.5C7.6665 13.18 7.7265 13.84 7.8065 14.5M12.1665 4.53C12.9965 5.73 13.6665 7.07 14.0765 8.5H10.2565C10.6665 7.07 11.3365 5.73 12.1665 4.53ZM19.0865 8.5H16.1365C15.8235 7.26146 15.3601 6.0659 14.7565 4.94C16.5965 5.57 18.1265 6.84 19.0865 8.5ZM12.1665 2.5C6.6365 2.5 2.1665 7 2.1665 12.5C2.1665 15.1522 3.22007 17.6957 5.09544 19.5711C6.02402 20.4997 7.12641 21.2362 8.33967 21.7388C9.55293 22.2413 10.8533 22.5 12.1665 22.5C14.8187 22.5 17.3622 21.4464 19.2376 19.5711C21.1129 17.6957 22.1665 15.1522 22.1665 12.5C22.1665 11.1868 21.9078 9.88642 21.4053 8.67317C20.9028 7.45991 20.1662 6.35752 19.2376 5.42893C18.309 4.50035 17.2066 3.76375 15.9933 3.2612C14.7801 2.75866 13.4797 2.5 12.1665 2.5Z" fill="#737791"/>
</g>
</svg>
