<svg width="21" height="21" viewBox="0 0 21 21" fill="none" xmlns="http://www.w3.org/2000/svg">
<g id="Group 1972">
<path id="Path-17" d="M14.584 1H5.91479C2.8938 1 1 3.13802 1 6.16602V14.334C1 17.361 2.88479 19.5 5.91479 19.5H14.583C17.614 19.5 19.5 17.361 19.5 14.334V6.16602C19.5 3.13802 17.614 1 14.584 1Z" stroke="#18173C" stroke-width="1.5" stroke-linecap="round" stroke-linejoin="round"/>
<g id="Group 1971">
<g id="Group 1970">
<path id="Line 886" d="M5.20703 6.79895H12.349" stroke="#18173C" stroke-width="1.5" stroke-linecap="round" stroke-linejoin="round"/>
<path id="Line 887" d="M8.59375 5.91003V6.79903" stroke="#18173C" stroke-width="1.5" stroke-linecap="round" stroke-linejoin="round"/>
<path id="Path 1061" d="M12.165 13.603C10.282 13.731 7.62925 11.394 7.15625 9.39197" stroke="#18173C" stroke-width="1.5" stroke-linecap="round" stroke-linejoin="round"/>
<path id="Path 1062" d="M10.6768 6.79895C10.5564 8.22271 9.99413 9.57333 9.06885 10.6621C8.14357 11.7509 6.90132 12.5235 5.51562 12.8719" stroke="#18173C" stroke-width="1.5" stroke-linecap="round" stroke-linejoin="round"/>
</g>
<path id="Path 1063" d="M10.2578 14.589L12.7759 9.65796L15.2939 14.589" stroke="#18173C" stroke-width="1.5" stroke-linecap="round" stroke-linejoin="round"/>
</g>
</g>
</svg>
