<svg width="16" height="16" viewBox="0 0 16 16" fill="none" xmlns="http://www.w3.org/2000/svg">
<g id="ion:location-outline">
<path id="Vector" d="M8.00024 1.5C5.51587 1.5 3.50024 3.41844 3.50024 5.78125C3.50024 8.5 6.50024 12.8084 7.60181 14.2966C7.64753 14.3594 7.70746 14.4105 7.77671 14.4457C7.84595 14.481 7.92255 14.4994 8.00024 14.4994C8.07794 14.4994 8.15454 14.481 8.22378 14.4457C8.29303 14.4105 8.35296 14.3594 8.39868 14.2966C9.50024 12.8091 12.5002 8.50219 12.5002 5.78125C12.5002 3.41844 10.4846 1.5 8.00024 1.5Z" stroke="#737791" stroke-width="1.2" stroke-linecap="round" stroke-linejoin="round"/>
<path id="Vector_2" d="M8.00024 7.5C8.82867 7.5 9.50024 6.82843 9.50024 6C9.50024 5.17157 8.82867 4.5 8.00024 4.5C7.17182 4.5 6.50024 5.17157 6.50024 6C6.50024 6.82843 7.17182 7.5 8.00024 7.5Z" stroke="#737791" stroke-width="1.2" stroke-linecap="round" stroke-linejoin="round"/>
</g>
</svg>
