<svg width="16" height="16" viewBox="0 0 16 16" fill="none" xmlns="http://www.w3.org/2000/svg">
<g id="map-pin">
<path id="Vector" d="M14 6.72727C14 11.1818 8 15 8 15C8 15 2 11.1818 2 6.72727C2 5.20831 2.63214 3.75155 3.75736 2.67748C4.88258 1.60341 6.4087 1 8 1C9.5913 1 11.1174 1.60341 12.2426 2.67748C13.3679 3.75155 14 5.20831 14 6.72727Z" stroke="#C8CAD8" stroke-width="2" stroke-linecap="round" stroke-linejoin="round"/>
<path id="Vector_2" d="M8 8.66667C9.10457 8.66667 10 7.77124 10 6.66667C10 5.5621 9.10457 4.66667 8 4.66667C6.89543 4.66667 6 5.5621 6 6.66667C6 7.77124 6.89543 8.66667 8 8.66667Z" stroke="#C8CAD8" stroke-width="2" stroke-linecap="round" stroke-linejoin="round"/>
</g>
</svg>
