<svg width="20" height="13" viewBox="0 0 20 13" fill="none" xmlns="http://www.w3.org/2000/svg">
<g id="master-card">
<path id="Vector" d="M12.9778 11.0417H7.02734V1.32285H12.9778V11.0417Z" fill="#FF5F00"/>
<path id="Vector_2" d="M7.63892 6.1814C7.63818 7.11724 7.85033 8.04099 8.25931 8.88274C8.66829 9.72449 9.26338 10.4622 9.99954 11.04C9.08776 11.7566 7.99278 12.2021 6.83974 12.3258C5.6867 12.4495 4.52212 12.2463 3.4791 11.7394C2.43608 11.2326 1.55671 10.4425 0.941483 9.45947C0.326257 8.47646 0 7.3402 0 6.18054C0 5.02088 0.326257 3.88462 0.941483 2.90162C1.55671 1.91861 2.43608 1.12852 3.4791 0.62165C4.52212 0.114778 5.6867 -0.0884275 6.83974 0.0352583C7.99278 0.158944 9.08776 0.604531 9.99954 1.32109C9.26315 1.89908 8.66792 2.63705 8.25893 3.47911C7.84995 4.32118 7.63792 5.24527 7.63892 6.1814Z" fill="#EB001B"/>
<path id="Vector_3" d="M20.0005 6.18141C20.0004 5.02167 19.6741 3.88533 19.0588 2.90229C18.4434 1.91926 17.5639 1.12918 16.5208 0.62238C15.4776 0.115581 14.3129 -0.0874929 13.1598 0.0363703C12.0067 0.160234 10.9117 0.606038 10 1.32282C10.7359 1.90114 11.3308 2.63904 11.7399 3.48083C12.149 4.32263 12.3615 5.24634 12.3615 6.18227C12.3615 7.1182 12.149 8.04191 11.7399 8.88371C11.3308 9.7255 10.7359 10.4634 10 11.0417C10.9117 11.7585 12.0067 12.2043 13.1598 12.3282C14.3129 12.452 15.4776 12.249 16.5208 11.7422C17.5639 11.2354 18.4434 10.4453 19.0588 9.46225C19.6741 8.47921 20.0004 7.34287 20.0005 6.18313V6.18141Z" fill="url(#paint0_linear_723_2242)"/>
</g>
<defs>
<linearGradient id="paint0_linear_723_2242" x1="21.8025" y1="12.2862" x2="15.0002" y2="0.00101511" gradientUnits="userSpaceOnUse">
<stop stop-color="#F79E1B"/>
<stop offset="1" stop-color="#FFBF62"/>
</linearGradient>
</defs>
</svg>
