<svg width="24" height="25" viewBox="0 0 24 25" fill="none" xmlns="http://www.w3.org/2000/svg">
<g id="maki:veterinary">
<path id="Vector" d="M12 10.4497C7.99995 10.4497 7.19995 14.0977 7.19995 16.0017C6.22435 16.3311 5.30651 16.8116 4.47995 17.4257C3.81021 17.9343 3.36758 18.6861 3.24781 19.5184C3.12805 20.3508 3.34076 21.1969 3.83995 21.8737C4.36391 22.532 5.11981 22.9651 5.95275 23.0841C6.7857 23.2031 7.63261 22.999 8.31995 22.5137C9.4046 21.7775 10.6892 21.3921 12 21.4097C13.3107 21.3921 14.5953 21.7775 15.68 22.5137C16.3391 23.0405 17.1797 23.2857 18.0187 23.1958C18.8578 23.1059 19.6274 22.6882 20.16 22.0337C20.4222 21.7243 20.6208 21.3662 20.7445 20.98C20.8683 20.5938 20.9147 20.1869 20.8811 19.7827C20.8475 19.3786 20.7346 18.985 20.5488 18.6245C20.363 18.2639 20.108 17.9436 19.7984 17.6817C19.76 17.6483 19.7205 17.6163 19.68 17.5857L19.52 17.4257C18.6667 16.8554 17.7548 16.378 16.8 16.0017C16.8 14.1137 16 10.4497 12 10.4497ZM3.32795 7.72969C2.76088 8.01339 2.32113 8.49982 2.0959 9.09255C1.87066 9.68527 1.87639 10.341 2.11195 10.9297C2.16114 11.5665 2.4589 12.1585 2.9409 12.5776C3.4229 12.9967 4.05044 13.2094 4.68795 13.1697C5.25502 12.886 5.69477 12.3996 5.92 11.8068C6.14524 11.2141 6.13951 10.5584 5.90395 9.96969C5.85476 9.33284 5.557 8.74091 5.075 8.32178C4.593 7.90265 3.96546 7.68997 3.32795 7.72969ZM20.688 7.72969C21.255 8.01339 21.6948 8.49982 21.92 9.09255C22.1452 9.68527 22.1395 10.341 21.904 10.9297C21.8548 11.5665 21.557 12.1585 21.075 12.5776C20.593 12.9967 19.9655 13.2094 19.328 13.1697C18.7609 12.886 18.3211 12.3996 18.0959 11.8068C17.8707 11.2141 17.8764 10.5584 18.112 9.96969C18.1611 9.33284 18.4589 8.74091 18.9409 8.32178C19.4229 7.90265 20.0504 7.68997 20.688 7.72969ZM8.12795 2.92969C7.03995 3.07369 6.52795 4.43369 6.91195 5.92169C6.99745 6.56246 7.2996 7.1547 7.7682 7.60001C8.2368 8.04533 8.84366 8.31693 9.48795 8.36969C10.576 8.22569 11.088 6.86569 10.704 5.37769C10.6185 4.73692 10.3163 4.14468 9.8477 3.69936C9.3791 3.25404 8.77224 2.98244 8.12795 2.92969ZM15.888 2.92969C16.976 3.07369 17.488 4.43369 17.104 5.92169C17.0178 6.56496 16.7134 7.15913 16.2415 7.60476C15.7697 8.05039 15.1591 8.32043 14.512 8.36969C13.424 8.24169 12.912 6.86569 13.296 5.37769C13.3818 4.7343 13.6862 4.13996 14.1581 3.69428C14.63 3.2486 15.2407 2.97866 15.888 2.92969Z" fill="#32395F"/>
</g>
</svg>
