<svg width="25" height="25" viewBox="0 0 25 25" fill="none" xmlns="http://www.w3.org/2000/svg">
<g id="Icon Frame">
<path id="Union" fill-rule="evenodd" clip-rule="evenodd" d="M8.5 3.5C5.83145 3.5 3.27414 5.75833 4.02462 8.70623C5.55466 14.7163 10.2837 19.4453 16.2938 20.9754C19.2417 21.7259 21.5 19.1685 21.5 16.5V15.5C21.5 14.3731 20.5989 13.5547 19.6002 13.4557C18.7645 13.3728 17.963 13.1758 17.2112 12.8805C16.841 12.735 16.4198 12.8229 16.1385 13.1041L15.1364 14.1062C13.3604 13.1123 11.8877 11.6396 10.8938 9.86358L11.8959 8.86149C12.1771 8.58023 12.265 8.15902 12.1195 7.7888C11.8242 7.03697 11.6272 6.23553 11.5443 5.39977C11.4454 4.40113 10.6269 3.5 9.5 3.5H8.5Z" fill="#737791"/>
</g>
</svg>
