<svg width="25" height="24" viewBox="0 0 25 24" fill="none" xmlns="http://www.w3.org/2000/svg">
<g id="Phone">
<path id="Vector" d="M4.40625 5C4.40625 4.73478 4.51161 4.48043 4.69914 4.29289C4.88668 4.10536 5.14103 4 5.40625 4H7.55925C7.79596 4.00011 8.02495 4.08418 8.20549 4.23726C8.38604 4.39034 8.50643 4.6025 8.54525 4.836L9.28525 9.271C9.32061 9.48222 9.28722 9.69921 9.19001 9.89003C9.0928 10.0809 8.9369 10.2354 8.74525 10.331L7.19725 11.104C7.75236 12.4797 8.57908 13.7293 9.62803 14.7782C10.677 15.8272 11.9266 16.6539 13.3022 17.209L14.0763 15.661C14.1718 15.4695 14.3262 15.3138 14.5168 15.2166C14.7074 15.1194 14.9242 15.0859 15.1353 15.121L19.5702 15.861C19.8038 15.8998 20.0159 16.0202 20.169 16.2008C20.3221 16.3813 20.4061 16.6103 20.4062 16.847V19C20.4062 19.2652 20.3009 19.5196 20.1134 19.7071C19.9258 19.8946 19.6715 20 19.4062 20H17.4062C10.2263 20 4.40625 14.18 4.40625 7V5Z" fill="white"/>
</g>
</svg>
