<svg width="20" height="20" viewBox="0 0 20 20" fill="none" xmlns="http://www.w3.org/2000/svg">
<g id="promotions_svgrepo.com" clip-path="url(#clip0_917_15079)">
<path id="Vector" d="M12.8428 11.0231C12.6061 11.0253 12.3754 11.0976 12.1796 11.2306C11.9839 11.3637 11.8319 11.5517 11.7427 11.7709C11.6536 11.9901 11.6312 12.2309 11.6785 12.4628C11.7258 12.6947 11.8406 12.9074 12.0085 13.0742C12.1764 13.2411 12.3898 13.3545 12.622 13.4003C12.8542 13.4461 13.0948 13.4223 13.3135 13.3317C13.5321 13.2411 13.7191 13.0879 13.851 12.8913C13.9828 12.6948 14.0535 12.4636 14.0543 12.2269C14.0543 11.909 13.9285 11.6039 13.7044 11.3784C13.4803 11.1528 13.1761 11.0251 12.8581 11.0231H12.8428Z" fill="#18173C"/>
<path id="Vector_2" d="M7.12382 6.56923C6.88665 6.56923 6.65479 6.63951 6.45754 6.7712C6.26028 6.90289 6.10648 7.09008 6.01554 7.30912C5.9246 7.52817 5.90062 7.76926 5.94661 8.00193C5.9926 8.2346 6.10651 8.44842 6.27394 8.6164C6.44138 8.78437 6.65484 8.89896 6.88737 8.9457C7.11989 8.99244 7.36105 8.96922 7.58038 8.87898C7.79972 8.78875 7.9874 8.63554 8.11972 8.43871C8.25204 8.24188 8.32306 8.01025 8.32382 7.77307C8.32433 7.61517 8.29366 7.45871 8.23358 7.31267C8.17351 7.16664 8.08519 7.0339 7.97371 6.92206C7.86223 6.81022 7.72977 6.72149 7.58393 6.66094C7.43809 6.60039 7.28173 6.56923 7.12382 6.56923Z" fill="#18173C"/>
<path id="Vector_3" d="M18.7571 8.78462L17.7532 7.58077C17.4569 7.22963 17.2804 6.79305 17.2494 6.33462L17.134 4.79616C17.1034 4.32445 16.9045 3.8794 16.5734 3.542C16.2424 3.20459 15.8012 2.99725 15.3302 2.95769L13.9879 2.85C13.39 2.79755 12.8243 2.55646 12.3725 2.16154L11.3532 1.26539C10.9971 0.954765 10.5416 0.781716 10.069 0.777484C9.59648 0.773252 9.13798 0.938116 8.77631 1.24231L7.66862 2.17692C7.25717 2.52285 6.74705 2.73013 6.21093 2.76923L4.77247 2.86923C4.30043 2.90072 3.85533 3.10044 3.51799 3.43213C3.18066 3.76382 2.97346 4.20548 2.93401 4.67692L2.83016 5.98846C2.77642 6.59128 2.53419 7.16186 2.13785 7.61923L1.25708 8.63462C0.946751 8.99016 0.773843 9.44498 0.769611 9.91689C0.765378 10.3888 0.930101 10.8466 1.23401 11.2077L2.1917 12.3615C2.51357 12.7489 2.70472 13.2282 2.73785 13.7308L2.84554 15.2115C2.87691 15.683 3.07609 16.1276 3.40699 16.4648C3.73789 16.8021 4.17864 17.0097 4.64939 17.05L5.99555 17.1692C6.59108 17.2188 7.15482 17.4588 7.60324 17.8538L8.62631 18.7385C8.98363 19.0471 9.43911 19.2185 9.91124 19.222C10.3834 19.2255 10.8414 19.0609 11.2032 18.7577L12.3763 17.7769C12.7457 17.4683 13.2037 17.2851 13.684 17.2538L15.2225 17.1423C15.6942 17.1117 16.1392 16.9128 16.4766 16.5817C16.814 16.2507 17.0214 15.8095 17.0609 15.3385L17.1725 14.0923C17.2331 13.4309 17.5025 12.8059 17.9417 12.3077L18.7609 11.3731C19.0731 11.014 19.2447 10.554 19.244 10.0781C19.2433 9.60228 19.0704 9.14279 18.7571 8.78462ZM4.91093 7.77308C4.91017 7.33138 5.04055 6.89941 5.28555 6.53189C5.53055 6.16437 5.87914 5.87785 6.28714 5.70865C6.69514 5.53944 7.14419 5.49517 7.57738 5.58144C8.01056 5.6677 8.40839 5.88062 8.72045 6.19322C9.03251 6.50581 9.24474 6.90401 9.33026 7.33735C9.41577 7.77069 9.37072 8.21966 9.20081 8.62736C9.0309 9.03507 8.74379 9.38316 8.37584 9.62753C8.0079 9.87189 7.5757 10.0015 7.13401 10C6.84059 10.0015 6.54977 9.94504 6.27826 9.83381C6.00674 9.72258 5.75988 9.55878 5.55187 9.35184C5.34386 9.1449 5.17879 8.8989 5.06616 8.62796C4.95352 8.35702 4.89554 8.0665 4.89554 7.77308H4.91093ZM8.13785 14.3538C8.12402 14.3782 8.1046 14.3989 8.0812 14.4143C8.05779 14.4297 8.03107 14.4393 8.00324 14.4423H7.33785C7.30887 14.4416 7.28056 14.4334 7.25564 14.4186C7.23073 14.4038 7.21003 14.3828 7.19554 14.3577C7.18064 14.3327 7.17277 14.3041 7.17277 14.275C7.17277 14.2459 7.18064 14.2173 7.19554 14.1923L11.8571 5.63462C11.8728 5.61145 11.8933 5.59191 11.9172 5.57732C11.941 5.56273 11.9678 5.55341 11.9955 5.55H12.6917C12.712 5.55948 12.7302 5.57291 12.7453 5.58948C12.7604 5.60606 12.772 5.62547 12.7795 5.64658C12.787 5.66769 12.7903 5.69008 12.7891 5.71246C12.7879 5.73483 12.7822 5.75675 12.7725 5.77692L8.13785 14.3538ZM15.1109 12.2231C15.1132 12.6649 14.9845 13.0974 14.741 13.4661C14.4975 13.8347 14.1502 14.1229 13.743 14.2943C13.3358 14.4656 12.8869 14.5124 12.4531 14.4287C12.0193 14.3451 11.62 14.1347 11.3058 13.8242C10.9915 13.5136 10.7763 13.1169 10.6874 12.6842C10.5985 12.2514 10.6399 11.802 10.8063 11.3928C10.9728 10.9835 11.2568 10.6328 11.6225 10.3849C11.9882 10.137 12.4191 10.003 12.8609 10C13.1537 10.001 13.4434 10.0597 13.7134 10.1728C13.9835 10.2859 14.2286 10.4511 14.4347 10.659C14.6408 10.867 14.8039 11.1135 14.9147 11.3845C15.0255 11.6555 15.0817 11.9457 15.0802 12.2385L15.1109 12.2231Z" fill="#18173C"/>
</g>
<defs>
<clipPath id="clip0_917_15079">
<rect width="20" height="20" fill="white"/>
</clipPath>
</defs>
</svg>
