<svg width="29" height="29" viewBox="0 0 29 29" fill="none" xmlns="http://www.w3.org/2000/svg">
<g id="Iconly/Bold/Wallet">
<g id="Wallet">
<path id="Wallet_2" fill-rule="evenodd" clip-rule="evenodd" d="M21.2303 10.2788H26.1666C26.1666 6.31536 23.7918 4 19.7681 4H9.23177C5.20807 4 2.83325 6.31536 2.83325 10.2282V18.7718C2.83325 22.6846 5.20807 25 9.23177 25H19.7681C23.7918 25 26.1666 22.6846 26.1666 18.7718V18.4078H21.2303C18.9393 18.4078 17.0821 16.5971 17.0821 14.3635C17.0821 12.1299 18.9393 10.3192 21.2303 10.3192V10.2788ZM21.2303 12.0178H25.2955C25.7766 12.0178 26.1666 12.3981 26.1666 12.8671V15.8195C26.161 16.2862 25.7742 16.6633 25.2955 16.6688H21.3236C20.1638 16.684 19.1497 15.9098 18.8866 14.8084C18.7548 14.1247 18.9398 13.4192 19.3918 12.8809C19.8439 12.3427 20.5168 12.0268 21.2303 12.0178ZM21.4066 15.1218H21.7903C22.2828 15.1218 22.6821 14.7325 22.6821 14.2523C22.6821 13.7721 22.2828 13.3828 21.7903 13.3828H21.4066C21.171 13.3801 20.9441 13.4694 20.7766 13.6309C20.609 13.7923 20.5147 14.0125 20.5147 14.2422C20.5147 14.7241 20.9124 15.1163 21.4066 15.1218ZM8.36066 10.2788H14.9458C15.4384 10.2788 15.8377 9.88947 15.8377 9.40924C15.8377 8.92902 15.4384 8.53972 14.9458 8.53972H8.36066C7.87213 8.53969 7.47449 8.92286 7.46881 9.39913C7.46878 9.88102 7.86643 10.2732 8.36066 10.2788Z" fill="#E91895"/>
</g>
</g>
</svg>
