<svg width="24" height="24" viewBox="0 0 24 24" fill="none" xmlns="http://www.w3.org/2000/svg">
<g id="material-symbols:rewarded-ads">
<path id="Vector" d="M12 11C12.55 11 13.021 10.8043 13.413 10.413C13.805 10.0217 14.0007 9.55067 14 9C14 8.45 13.8043 7.97933 13.413 7.588C13.0217 7.19667 12.5507 7.00067 12 7C11.45 7 10.9793 7.196 10.588 7.588C10.1967 7.98 10.0007 8.45067 10 9C10 9.55 10.196 10.021 10.588 10.413C10.98 10.805 11.4507 11.0007 12 11ZM7 21V19H11V15.9C10.1833 15.7167 9.45433 15.371 8.813 14.863C8.17167 14.355 7.70067 13.7173 7.4 12.95C6.15 12.8 5.10433 12.2543 4.263 11.313C3.42167 10.3717 3.00067 9.26733 3 8V7C3 6.45 3.196 5.97933 3.588 5.588C3.98 5.19667 4.45067 5.00067 5 5H7V3H17V5H19C19.55 5 20.021 5.196 20.413 5.588C20.805 5.98 21.0007 6.45067 21 7V8C21 9.26667 20.579 10.371 19.737 11.313C18.895 12.255 17.8493 12.8007 16.6 12.95C16.3 13.7167 15.8293 14.3543 15.188 14.863C14.5467 15.3717 13.8173 15.7173 13 15.9V19H17V21H7ZM7 10.8V7H5V8C5 8.63333 5.18333 9.20433 5.55 9.713C5.91667 10.2217 6.4 10.584 7 10.8ZM17 10.8C17.6 10.5833 18.0833 10.2207 18.45 9.712C18.8167 9.20333 19 8.63267 19 8V7H17V10.8Z" fill="#737791"/>
</g>
</svg>
