<svg width="29" height="29" viewBox="0 0 29 29" fill="none" xmlns="http://www.w3.org/2000/svg">
<g id="material-symbols:rewarded-ads">
<path id="Vector" d="M14.8335 13.3333C15.4752 13.3333 16.0247 13.1051 16.482 12.6485C16.9393 12.1919 17.1676 11.6424 17.1668 11C17.1668 10.3583 16.9386 9.80922 16.482 9.35267C16.0254 8.89611 15.4759 8.66744 14.8335 8.66667C14.1918 8.66667 13.6427 8.89533 13.1862 9.35267C12.7296 9.81 12.5009 10.3591 12.5002 11C12.5002 11.6417 12.7288 12.1912 13.1862 12.6485C13.6435 13.1058 14.1926 13.3341 14.8335 13.3333ZM9.00016 25V22.6667H13.6668V19.05C12.7141 18.8361 11.8636 18.4328 11.1153 17.8402C10.3671 17.2475 9.81761 16.5036 9.46683 15.6083C8.0085 15.4333 6.78855 14.7967 5.807 13.6985C4.82544 12.6003 4.33427 11.3119 4.3335 9.83333V8.66667C4.3335 8.025 4.56216 7.47589 5.0195 7.01933C5.47683 6.56278 6.02594 6.33411 6.66683 6.33333H9.00016V4H20.6668V6.33333H23.0002C23.6418 6.33333 24.1913 6.562 24.6487 7.01933C25.106 7.47667 25.3343 8.02578 25.3335 8.66667V9.83333C25.3335 11.3111 24.8423 12.5995 23.86 13.6985C22.8777 14.7975 21.6577 15.4341 20.2002 15.6083C19.8502 16.5028 19.3011 17.2467 18.5528 17.8402C17.8046 18.4336 16.9537 18.8369 16.0002 19.05V22.6667H20.6668V25H9.00016ZM9.00016 13.1V8.66667H6.66683V9.83333C6.66683 10.5722 6.88072 11.2384 7.3085 11.8318C7.73627 12.4253 8.30016 12.848 9.00016 13.1ZM20.6668 13.1C21.3668 12.8472 21.9307 12.4241 22.3585 11.8307C22.7863 11.2372 23.0002 10.5714 23.0002 9.83333V8.66667H20.6668V13.1Z" fill="#FF6F61"/>
</g>
</svg>
