<svg width="24" height="24" viewBox="0 0 24 24" fill="none" xmlns="http://www.w3.org/2000/svg">
<g id="Icon Frame">
<path id="Subtract" fill-rule="evenodd" clip-rule="evenodd" d="M8.99984 3.22214C8.99984 2.75558 9.32248 2.35101 9.77735 2.24721C11.2596 1.90896 12.7791 1.9203 14.2224 2.24961C14.6773 2.3534 14.9999 2.75797 14.9999 3.22455L14.9999 5.07129C14.9999 5.84109 15.8333 6.32221 16.4999 5.93731L18.101 5.01296C18.5054 4.77944 19.0176 4.85698 19.3349 5.19973C19.8331 5.73808 20.279 6.33932 20.6601 6.99955C21.0413 7.65976 21.3391 8.34647 21.5562 9.04712C21.6944 9.49322 21.5054 9.9756 21.101 10.2091L19.4999 11.1335C18.8332 11.5184 18.8332 12.4806 19.4999 12.8655L21.0993 13.7889C21.5034 14.0222 21.6924 14.5039 21.5548 14.9498C21.1184 16.3643 20.3684 17.686 19.3344 18.8005C19.0171 19.1425 18.5054 19.2197 18.1013 18.9864L16.4999 18.0618C15.8333 17.6769 14.9999 18.158 14.9999 18.9278L14.9999 20.777C14.9999 21.2435 14.6773 21.6481 14.2224 21.7519C12.7402 22.0901 11.2206 22.0788 9.77738 21.7495C9.32249 21.6457 8.99983 21.2411 8.99983 20.7745L8.99984 18.9278C8.99984 18.158 8.1665 17.6768 7.49983 18.0617L5.89878 18.9861C5.49432 19.2196 4.98209 19.1421 4.66487 18.7993C4.16664 18.261 3.72081 17.6598 3.33964 16.9995C2.95846 16.3393 2.66069 15.6526 2.44359 14.9519C2.30537 14.5058 2.49433 14.0234 2.89879 13.7899L4.49981 12.8656C5.16647 12.4807 5.16648 11.5184 4.49981 11.1335L2.9005 10.2102C2.49643 9.97688 2.30739 9.49517 2.44495 9.04932C2.88139 7.63477 3.63134 6.31312 4.66537 5.19861C4.98271 4.85658 5.49439 4.77945 5.89845 5.01273L7.49984 5.93729C8.1665 6.32219 8.99984 5.84106 8.99983 5.07127L8.99984 3.22214ZM12 14.9995C13.6569 14.9995 15 13.6564 15 11.9995C15 10.3427 13.6569 8.99951 12 8.99951C10.3431 8.99951 9 10.3427 9 11.9995C9 13.6564 10.3431 14.9995 12 14.9995Z" fill="white"/>
</g>
</svg>
