<svg width="17" height="16" viewBox="0 0 17 16" fill="none" xmlns="http://www.w3.org/2000/svg">
<g id="3088638-200 1" clip-path="url(#clip0_230_7896)">
<g id="Group">
<path id="Vector" d="M8.15002 0.360254C7.97402 0.424254 7.67802 0.632254 7.49402 0.824254C6.80602 1.55225 6.82202 2.49625 7.54202 3.20825C8.27002 3.94425 9.23002 3.94425 9.95802 3.20825C10.694 2.48025 10.694 1.52025 9.95802 0.792254C9.43002 0.264254 8.83002 0.120254 8.15002 0.360254ZM9.27002 1.48025C9.53402 1.74425 9.53402 2.00025 9.27002 2.00025C9.15802 2.00025 8.99802 1.92825 8.91002 1.84025C8.82202 1.75225 8.75002 1.59225 8.75002 1.48025C8.75002 1.21625 9.00602 1.21625 9.27002 1.48025Z" fill="#737791"/>
<path id="Vector_2" d="M5.222 3.16027C4.99 3.28027 4.75 3.72027 4.75 4.00027C4.75 4.28827 4.998 4.72027 5.238 4.84027C5.486 4.97627 6.006 5.00027 6.182 4.88827C6.254 4.84027 6.63 5.01627 7.382 5.47227L8.47 6.12827L8.494 8.70427L8.51 11.2803H8.75H8.99V9.20827V7.14427L10.062 6.49627C11.094 5.88027 11.158 5.85627 11.414 5.93627C11.982 6.11227 12.678 5.76827 12.91 5.20027C13.046 4.88027 12.974 4.31227 12.766 4.01627C12.246 3.29627 11.014 3.39227 10.638 4.19227C10.478 4.53627 10.47 4.97627 10.63 5.28027L10.75 5.51227L9.886 6.03227L9.03 6.54427L9.006 5.39227L8.982 4.24027H8.75H8.51V4.88027C8.51 5.23227 8.494 5.52027 8.478 5.52027C8.454 5.52027 8.046 5.28027 7.558 4.99227L6.67 4.45627L6.718 4.16027C6.782 3.77627 6.574 3.31227 6.262 3.16027C5.982 3.00827 5.494 3.00827 5.222 3.16027Z" fill="#737791"/>
<path id="Vector_3" d="M1.90993 7.87221C1.58993 8.00821 1.18993 8.47221 1.06993 8.84021C0.773934 9.74421 1.50193 10.7202 2.46993 10.7202C2.94993 10.7202 3.29393 10.5682 3.60593 10.2162C4.02993 9.73621 4.10993 9.12021 3.82993 8.56021C3.49393 7.91221 2.58193 7.57621 1.90993 7.87221ZM2.50993 8.69621C2.50993 8.96821 2.22193 9.28021 1.97393 9.28021C1.51793 9.28021 1.95793 8.53621 2.45393 8.48821C2.48593 8.48021 2.50993 8.57621 2.50993 8.69621Z" fill="#737791"/>
<path id="Vector_4" d="M14.3899 7.88821C13.4459 8.37621 13.2139 9.44021 13.8859 10.2082C14.2219 10.5922 14.5019 10.7202 14.9979 10.7202C15.9979 10.7202 16.7339 9.75221 16.4299 8.84021C16.3019 8.46421 15.9019 8.00821 15.5739 7.87221C15.2299 7.72021 14.6859 7.73621 14.3899 7.88821ZM15.5339 8.74421C15.7659 8.96021 15.7739 9.28021 15.5339 9.28021C15.2779 9.28021 14.9899 8.97621 14.9899 8.70421C14.9899 8.49621 15.0139 8.47221 15.1739 8.52021C15.2699 8.55221 15.4299 8.65621 15.5339 8.74421Z" fill="#737791"/>
<path id="Vector_5" d="M5.25402 8.15996C4.67002 8.51196 4.59002 9.32796 5.11002 9.75996C5.19802 9.83196 5.22202 9.93596 5.19002 10.096C5.16602 10.216 5.12602 10.432 5.10202 10.56L5.05402 10.808L4.66202 10.52L4.26202 10.232L4.11002 10.416C3.93402 10.624 3.91802 10.592 4.50202 11.04L4.76602 11.24L4.23002 11.544L3.70202 11.848L3.49402 11.68C2.99002 11.288 2.27002 11.624 2.27002 12.256C2.27002 12.688 2.55002 12.96 2.99002 12.96C3.23002 12.96 3.36602 12.912 3.51002 12.76C3.62202 12.656 3.71002 12.536 3.71002 12.488C3.71002 12.408 5.07802 11.6 5.22202 11.6C5.27002 11.6 5.61402 11.816 5.99802 12.088C6.37402 12.36 6.69402 12.56 6.70202 12.544C6.82202 12.408 6.91002 12.128 6.85402 12.088C6.81402 12.064 6.50202 11.84 6.15802 11.6L5.53402 11.16L5.59002 10.76C5.67002 10.152 5.71802 9.99996 5.84602 9.99996C6.24602 9.99996 6.75002 9.44796 6.75002 8.99996C6.75002 8.49596 6.24602 7.99996 5.73402 7.99996C5.61402 7.99996 5.39802 8.07196 5.25402 8.15996Z" fill="#737791"/>
<path id="Vector_6" d="M11.2539 8.15996C10.7659 8.45596 10.6219 9.02396 10.9099 9.49596C11.0619 9.75196 11.4379 9.99996 11.6539 9.99996C11.7819 9.99996 11.8299 10.152 11.9099 10.76L11.9659 11.16L11.3419 11.6C10.9979 11.84 10.6859 12.064 10.6459 12.088C10.5899 12.128 10.6779 12.408 10.7979 12.552C10.8059 12.568 11.1259 12.36 11.4939 12.088C11.8699 11.816 12.2139 11.6 12.2619 11.6C12.4059 11.6 13.7899 12.408 13.7899 12.496C13.7899 12.536 13.8779 12.656 13.9899 12.76C14.1339 12.912 14.2699 12.96 14.5099 12.96C14.9499 12.96 15.2299 12.688 15.2299 12.256C15.2299 11.632 14.5019 11.296 14.0059 11.68L13.7979 11.848L13.2699 11.544L12.7419 11.24L12.9339 11.08C13.0379 10.992 13.2219 10.848 13.3339 10.76C13.5499 10.6 13.5499 10.6 13.3899 10.416L13.2379 10.232L12.8379 10.52L12.4459 10.808L12.3979 10.56C12.3739 10.432 12.3339 10.216 12.3099 10.096C12.2779 9.93596 12.3019 9.83196 12.3899 9.75996C12.7579 9.45596 12.8459 8.91196 12.5899 8.50396C12.2939 8.01596 11.7259 7.87196 11.2539 8.15996Z" fill="#737791"/>
<path id="Vector_7" d="M7.95786 11.9681C6.34186 12.7761 6.94186 15.2241 8.74986 15.2241C10.5579 15.2241 11.1579 12.7761 9.54186 11.9681C8.98186 11.6961 8.51786 11.6961 7.95786 11.9681ZM9.30986 12.4161C10.4619 13.0081 10.0459 14.7201 8.74986 14.7201C8.33386 14.7201 7.95786 14.5201 7.67786 14.1441C7.46986 13.8481 7.46186 13.2481 7.67786 12.8721C7.84586 12.5761 8.41386 12.2401 8.74986 12.2401C8.86186 12.2401 9.11786 12.3201 9.30986 12.4161Z" fill="#737791"/>
<path id="Vector_8" d="M8.41403 12.8482C8.14203 12.9922 8.03003 13.1922 8.03003 13.5442C8.03003 13.8882 8.39803 14.2402 8.75003 14.2402C9.10203 14.2402 9.47003 13.8882 9.47003 13.5442C9.47003 13.1842 9.35803 12.9922 9.07003 12.8402C8.78203 12.6962 8.69403 12.6962 8.41403 12.8482Z" fill="#737791"/>
</g>
</g>
<defs>
<clipPath id="clip0_230_7896">
<rect width="16" height="16" fill="white" transform="translate(0.75)"/>
</clipPath>
</defs>
</svg>
