<svg width="15" height="20" viewBox="0 0 15 20" fill="none" xmlns="http://www.w3.org/2000/svg">
<g id="Frame 1000006727">
<path id="path502" d="M9.60791 11.7042H12.9649V10.4225H9.60791V11.7042Z" fill="#E0E0E0"/>
<path id="path504" d="M14.5634 19.4999H8.00937C7.76841 19.4999 7.57275 19.3069 7.57275 19.0692V12.6614C7.57275 11.8691 8.22427 11.2267 9.02734 11.2267H13.5455C14.3489 11.2267 15 11.8691 15 12.6614V19.0692C15 19.3069 14.8048 19.4999 14.5634 19.4999Z" fill="#EEEEEE"/>
<path id="path506" d="M14.962 18.0032H7.61084L7.57275 17.9656V12.7231H15V17.9656L14.962 18.0032Z" fill="#FAFAFA"/>
<path id="path508" d="M14.9784 18.0032H7.59441L7.57275 17.9819V17.1382H15V17.9819L14.9784 18.0032Z" fill="#FF9800"/>
<path id="path510" d="M14.9784 13.5882H7.59441L7.57275 13.5668V12.7231H15V13.5668L14.9784 13.5882Z" fill="#FF9800"/>
<path id="path512" d="M14.5843 19.4999H7.98852C7.75878 19.4999 7.57275 19.316 7.57275 19.0898V19.0692C7.57275 19.3069 7.76841 19.4999 8.00937 19.4999H14.5634C14.8048 19.4999 15 19.3069 15 19.0692V18.6796V19.0898C15 19.316 14.814 19.4999 14.5843 19.4999Z" fill="#EAEAEA"/>
<path id="path514" d="M14.5634 19.4999H8.00937C7.76841 19.4999 7.57275 19.3069 7.57275 19.0692V18.6796H15V19.0692C15 19.3069 14.8048 19.4999 14.5634 19.4999Z" fill="#DEDEDE"/>
<path id="path516" d="M15 11.9102H14.7847C14.6584 11.7077 14.4832 11.5388 14.2748 11.4194L14.6396 11.5547C14.8389 11.5547 15 11.7137 15 11.9102ZM7.78805 11.9102H7.57275C7.57275 11.7137 7.73393 11.5547 7.93319 11.5547L8.29844 11.4194C8.08995 11.5388 7.91434 11.7077 7.78805 11.9102Z" fill="#EAEAEA"/>
<path id="path518" d="M14.7848 11.9102H7.78809C7.91438 11.7077 8.08999 11.5388 8.29847 11.4194L8.30409 11.4174C8.28124 11.4305 8.25879 11.4443 8.23634 11.4581H14.3365C14.3145 11.4443 14.2916 11.4305 14.2688 11.4174L14.2748 11.4194C14.4833 11.5388 14.6585 11.7077 14.7848 11.9102Z" fill="#DEDEDE"/>
<path id="path520" d="M8.74951 11.2529L9.60792 10.9352V11.2268H9.02737C9.02536 11.2268 9.02335 11.2268 9.02135 11.2268C9.02094 11.2268 9.02014 11.2268 9.01974 11.2268C9.01573 11.2268 9.01133 11.2268 9.00692 11.2268C8.91911 11.2279 8.83291 11.2366 8.74951 11.2529Z" fill="#EAEAEA"/>
<path id="path522" d="M8.74805 11.2533L8.74924 11.2529C8.83264 11.2366 8.91884 11.2279 9.00665 11.2268C8.91804 11.2279 8.83184 11.237 8.74805 11.2533Z" fill="#DEDEDE"/>
<path id="path524" d="M13.8232 11.2529C13.7398 11.2366 13.6536 11.2279 13.5658 11.2268C13.5614 11.2268 13.5574 11.2268 13.553 11.2268C13.5526 11.2268 13.5518 11.2268 13.5514 11.2268C13.5494 11.2268 13.5474 11.2268 13.5454 11.2268H12.9648V10.9352L13.8232 11.2529Z" fill="#EAEAEA"/>
<path id="path526" d="M13.8244 11.2533C13.7406 11.237 13.6544 11.2279 13.5658 11.2268C13.6536 11.2279 13.7398 11.2366 13.8232 11.2529L13.8244 11.2533Z" fill="#DEDEDE"/>
<path id="path528" d="M14.5843 19.4999H7.98852C7.75878 19.4999 7.57275 19.316 7.57275 19.0898H15C15 19.316 14.814 19.4999 14.5843 19.4999Z" fill="#BDBDBD"/>
<path id="path530" d="M14.2684 11.4174L13.8242 11.2532C13.9829 11.2837 14.1325 11.3403 14.2684 11.4174ZM8.30371 11.4174C8.43963 11.3403 8.58918 11.2837 8.74795 11.2532L8.30371 11.4174Z" fill="#DEDEDE"/>
<path id="path532" d="M12.9649 10.9352L12.4662 10.7509H10.1071L9.60791 10.9352V10.4226H12.9649V10.9352Z" fill="#D4D4D4"/>
<path id="path536" d="M12.9649 11.2268H9.60791V10.9352L10.1071 10.7509H12.4662L12.9649 10.9352V11.2268Z" fill="#CCCCCC"/>
<path id="path538" d="M14.3365 11.4581H8.23633C8.25878 11.4443 8.28123 11.4305 8.30408 11.4174L8.74832 11.2533C8.83212 11.237 8.91831 11.2279 9.00692 11.2268C9.01133 11.2268 9.01573 11.2268 9.01974 11.2268C9.02055 11.2268 9.02095 11.2268 9.02135 11.2268C9.02335 11.2268 9.02536 11.2268 9.02737 11.2268H9.60792H12.9649H13.5455C13.5475 11.2268 13.5495 11.2268 13.5515 11.2268C13.5523 11.2268 13.5527 11.2268 13.5531 11.2268C13.5575 11.2268 13.5615 11.2268 13.5659 11.2268C13.6545 11.2279 13.7407 11.237 13.8245 11.2533L14.2688 11.4174C14.2916 11.4305 14.3145 11.4443 14.3365 11.4581Z" fill="#D3D3D3"/>
<path id="path540" d="M14.3195 10.4226H8.25293V9.20039C8.25293 8.96187 8.44858 8.76845 8.69034 8.76845H13.882C14.1238 8.76845 14.3195 8.96187 14.3195 9.20039V10.4226Z" fill="#FAFAFA"/>
<path id="path542" d="M8.37549 8.90173H14.1966C14.1124 8.82025 13.993 8.76843 13.8587 8.76843H8.71347C8.57916 8.76843 8.45968 8.82025 8.37549 8.90173Z" fill="#EEEEEE"/>
<path id="path544" d="M8.25293 10.2893C8.25293 10.3562 8.25293 10.3811 8.25293 10.4226H14.3195C14.3195 10.3918 14.3195 10.3301 14.3195 10.2893H8.25293Z" fill="#BDBDBD"/>
<path id="path546" d="M8.25293 10.4527V10.4499H14.3195V10.4527C14.3195 10.6117 14.1262 10.7406 13.8881 10.7406H8.68433C8.44618 10.7406 8.25293 10.6117 8.25293 10.4527Z" fill="#EEEEEE"/>
<path id="path548" d="M11.2485 14.4508C11.297 14.7289 11.1864 14.8405 11.032 14.8753C10.8777 14.9101 10.7377 14.8551 10.6892 14.5774C10.6407 14.2997 10.7133 13.9722 10.868 13.937C11.0224 13.9022 11.2 14.1732 11.2485 14.4508Z" fill="#BDBDBD"/>
<path id="path550" d="M10.6837 14.9322C10.7816 15.1925 10.6938 15.3278 10.549 15.3982C10.4043 15.4686 10.2575 15.4476 10.1593 15.1869C10.0615 14.9267 10.0731 14.5889 10.2178 14.5185C10.3626 14.4481 10.5855 14.6716 10.6837 14.9322Z" fill="#BDBDBD"/>
<path id="path552" d="M11.2863 15.0358C10.9672 15.0358 10.375 15.5465 10.375 16.0809C10.375 16.6153 11.2863 16.5618 11.2863 16.5618C11.2863 16.5618 12.1972 16.6153 12.1972 16.0809C12.1972 15.5465 11.6051 15.0358 11.2863 15.0358Z" fill="#BDBDBD"/>
<path id="path554" d="M11.3235 14.4508C11.275 14.7289 11.3857 14.8405 11.54 14.8753C11.6944 14.9101 11.8343 14.8551 11.8828 14.5774C11.9314 14.2997 11.8588 13.9722 11.704 13.937C11.5497 13.9022 11.3721 14.1732 11.3235 14.4508Z" fill="#BDBDBD"/>
<path id="path556" d="M11.8886 14.9322C11.7908 15.1925 11.8786 15.3278 12.0233 15.3982C12.168 15.4686 12.3148 15.4476 12.413 15.1869C12.5108 14.9267 12.4992 14.5889 12.3545 14.5185C12.2097 14.4481 11.9868 14.6716 11.8886 14.9322Z" fill="#BDBDBD"/>
<path id="path558" d="M2.61572 18.2034H2.8342V10.6018H2.61572V18.2034Z" fill="#80CBC4"/>
<path id="path560" d="M1.80469 10.6762H3.64585V10.1544H1.80469V10.6762Z" fill="#607D8B"/>
<path id="path562" d="M3.79694 12.9944H2.8339V12.8481H3.64539V6.25357H1.8043V10.1544V10.6762V12.8481H2.61539V12.9944H1.65234V6.12897H3.79694V12.9944Z" fill="#D9EFED"/>
<path id="path564" d="M2.61572 12.9944H2.8342V12.848H2.61572V12.9944Z" fill="#80CBC4"/>
<path id="path566" d="M3.64578 12.8481H2.83429V10.6762H3.64578V10.1544H1.80469V6.25359H3.64578V12.8481ZM2.61578 12.8481H1.80469V10.6762H2.61578V12.8481Z" fill="#BEE4E1"/>
<path id="path568" d="M2.61572 12.8481H2.8342V10.6763H2.61572V12.8481Z" fill="#80CBC4"/>
<path id="path570" d="M3.64578 10.6762H1.80469V10.1544H3.64578V10.6762Z" fill="#71A5A8"/>
<path id="path572" d="M3.39152 6.12897H2.05762V5.75676H3.39152V6.12897Z" fill="#80CBC4"/>
<path id="path574" d="M3.14173 5.75677H2.30859V4.74101H3.14173V5.75677Z" fill="#607D8B"/>
<path id="path576" d="M2.76136 4.74102H2.68799V0.499997H2.76136V4.74102Z" fill="#607D8B"/>
<path id="path578" d="M4.91389 12.9944C4.23872 13.2583 4.20143 13.2448 3.96207 12.8481H1.48791C1.24856 13.2448 1.21127 13.2583 0.536098 12.9944C-0.139074 12.7306 0.190087 13.6135 0.190087 13.6135H5.2599C5.2599 13.6135 5.58946 12.7306 4.91389 12.9944Z" fill="#FF9800"/>
<path id="path580" d="M4.30348 17.4506C3.41822 17.457 2.96195 17.8221 2.79757 17.9914C2.74505 18.0455 2.67248 18.0756 2.5967 18.0756C2.47241 18.0756 2.36416 18.1567 2.32888 18.2742C2.21943 18.6381 1.90469 19.3718 1.15495 19.3259C0.346265 19.2769 0.200728 18.7338 0.174667 18.5325C0.169054 18.4893 0.131771 18.4577 0.0880689 18.4577C0.0355466 18.4577 -0.00575661 18.5028 0.000658324 18.5542C0.0335349 18.8137 0.208746 19.5067 1.14613 19.5C2.03139 19.4932 2.48805 19.1281 2.65204 18.9588C2.70496 18.9051 2.77713 18.8746 2.8529 18.8746C2.97719 18.8746 3.08584 18.7935 3.12113 18.676C3.23058 18.3121 3.54491 17.5784 4.29466 17.6243C5.10334 17.6737 5.24888 18.2164 5.27494 18.4181C5.28055 18.4609 5.31784 18.4925 5.36194 18.4925C5.41406 18.4925 5.45576 18.4474 5.44895 18.396C5.41647 18.1365 5.24126 17.4435 4.30348 17.4506Z" fill="#F57C00"/>
</g>
</svg>
