<svg width="15" height="18" viewBox="0 0 15 18" fill="none" xmlns="http://www.w3.org/2000/svg">
<g id="Frame 1000006728">
<path id="path384" d="M9.84819 11.5338C9.84819 11.5338 10.3633 13.549 10.9198 14.8337C11.4763 16.1183 11.6015 17.5 11.6015 17.5H13.3547C13.3547 17.5 13.1738 16.7833 12.4779 16.7833C12.4779 16.7833 11.5875 13.3865 12.0883 12.3046C12.5894 11.2227 13.1259 11.3852 12.973 8.72094C12.973 8.72094 8.88846 7.74734 9.84819 11.5338Z" fill="#546E7A"/>
<path id="path386" d="M4.49756 17.5H9.50283C9.50283 17.5 9.2873 16.7833 7.9644 16.7833C6.64115 16.7833 4.49756 16.7833 4.49756 16.7833V17.5Z" fill="#546E7A"/>
<path id="path388" d="M3.92734 15.6169C3.92734 15.6169 4.7491 12.3722 7.81061 12.3722C10.8725 12.3722 9.67217 16.3197 7.96467 16.7833C7.96467 16.7833 6.22605 16.7833 5.85682 16.7833C5.48758 16.7833 4.49782 17.5 4.49782 17.5C4.49782 17.5 3.69035 17.0973 3.92734 15.6169Z" fill="#546E7A"/>
<path id="path390" d="M9.98438 3.44806C9.98438 3.44806 10.2864 1.35293 10.6975 0.667759C10.6975 0.667759 11.293 1.80133 11.4106 2.57568C11.5282 3.35038 9.98438 3.44806 9.98438 3.44806Z" fill="#546E7A"/>
<path id="path392" d="M14.8319 4.21073C14.2782 4.03024 14.2242 3.59705 14.2539 3.31888C13.5476 3.23571 12.5953 3.13803 12.5953 3.13803C12.2665 2.60575 11.6563 2.05791 10.357 2.05791C9.05772 2.05791 8.21273 3.89894 8.27528 4.56818C8.33783 5.23778 9.36905 7.90023 5.39321 10.6901C1.41773 13.4803 2.87324 16.7695 3.24891 17.5H4.90065C4.90065 17.5 10.609 15.0078 11.9637 13.0542C12.8791 11.7345 13.6444 9.68181 12.8641 7.95792C12.5735 7.31628 12.4138 5.24061 12.4138 5.24061C13.9515 5.25193 14.5784 4.70656 14.8319 4.21073Z" fill="#BDBDBD"/>
<path id="path394" d="M3.24902 17.5H8.25466C8.25466 17.5 8.03912 16.7833 6.71587 16.7833C5.39297 16.7833 3.24902 16.7833 3.24902 16.7833V17.5Z" fill="#607D8B"/>
<path id="path396" d="M2.67844 15.6169C2.67844 15.6169 3.5002 12.3722 6.5617 12.3722C9.62321 12.3722 8.42326 16.3197 6.7154 16.7833C6.7154 16.7833 4.97715 16.7833 4.60791 16.7833C4.23867 16.7833 3.24856 17.5 3.24856 17.5C3.24856 17.5 2.44109 17.0973 2.67844 15.6169Z" fill="#607D8B"/>
<path id="path398" d="M9.22452 11.5338C9.22452 11.5338 9.73923 13.549 10.2958 14.8337C10.8523 16.1183 10.9774 17.5 10.9774 17.5H12.7307C12.7307 17.5 12.5498 16.7833 11.8542 16.7833C11.8542 16.7833 10.9635 13.3865 11.4646 12.3046C11.9654 11.2227 12.814 11.3852 12.661 8.72094C12.661 8.72094 8.26442 7.74734 9.22452 11.5338Z" fill="#607D8B"/>
<path id="path400" d="M3.24883 17.5C3.24883 17.5 -0.863195 16.6998 0.208063 13.4272C1.27932 10.1546 0.255246 9.35656 0.0300567 9.08618C-0.19549 8.81579 0.875764 6.17846 2.32305 8.23432C3.76998 10.2898 1.51165 13.67 1.48806 14.4953C1.44624 15.9697 3.24883 16.7833 3.24883 16.7833V17.5Z" fill="#607D8B"/>
<path id="path402" d="M9.1709 3.2803C9.1709 3.2803 9.47294 1.18481 9.884 0.499996C9.884 0.499996 10.4795 1.63321 10.5971 2.40791C10.7143 3.18227 9.1709 3.2803 9.1709 3.2803Z" fill="#607D8B"/>
<path id="path404" d="M14.832 4.21074C15.0414 3.80056 14.996 3.424 14.996 3.424C14.9539 3.4056 14.6407 3.36419 14.254 3.31889C14.2243 3.59706 14.2783 4.03025 14.832 4.21074Z" fill="#757575"/>
<path id="path406" d="M14.8319 4.21073C14.8319 4.21073 14.0369 4.87679 12.4917 4.68462L12.457 4.85272C12.457 4.85272 14.0673 4.98402 14.8319 4.21073Z" fill="#757575"/>
<path id="path408" d="M12.132 3.1069C12.132 3.22405 12.0344 3.31889 11.914 3.31889C11.7939 3.31889 11.6963 3.22405 11.6963 3.1069C11.6963 2.99011 11.7939 2.89527 11.914 2.89527C12.0344 2.89527 12.132 2.99011 12.132 3.1069Z" fill="#757575"/>
<path id="path410" d="M11.7465 15.6186H3.75831C3.36584 15.6186 3.04736 15.3037 3.04736 14.9151V7.00591C3.04736 6.61732 3.36584 6.30199 3.75831 6.30199H11.7465C12.1389 6.30199 12.4571 6.61732 12.4571 7.00591V14.9151C12.4571 15.3037 12.1389 15.6186 11.7465 15.6186Z" fill="#FF5722"/>
<path id="path412" d="M11.1003 14.8652H4.40396C4.07476 14.8652 3.80811 14.6011 3.80811 14.2755V7.64542C3.80811 7.31947 4.07476 7.05546 4.40396 7.05546H11.1003C11.4292 7.05546 11.6962 7.31947 11.6962 7.64542V14.2755C11.6962 14.6011 11.4292 14.8652 11.1003 14.8652Z" fill="#757575"/>
<path id="path414" d="M7.35 10.4162C7.51943 10.2268 7.67456 10.0403 7.81397 9.85806C8.2118 10.2672 9.44677 11.3788 11.1318 11.3788C11.3148 11.3788 11.5031 11.3647 11.6962 11.3363V10.9913C9.82209 11.2818 8.35657 9.97238 8.00092 9.6029C8.13424 9.41462 8.25148 9.23236 8.35621 9.05646C8.69006 9.44506 9.56508 10.2718 10.9691 10.2718C11.1972 10.2718 11.4402 10.2484 11.6962 10.1992V9.84957C9.83245 10.224 8.76512 9.09256 8.51956 8.76979C8.62643 8.57196 8.71472 8.38652 8.78871 8.21558C9.07717 8.57515 9.77919 9.13963 11.3466 9.13963C11.4585 9.13963 11.575 9.13644 11.6962 9.13043V8.78041C9.69162 8.87031 9.04786 8.091 8.92705 7.86945C9.09433 7.41079 9.13866 7.11598 9.14438 7.07598L8.99103 7.05546H8.83161C8.78336 7.32939 8.14246 10.4296 3.80811 12.7184V13.0613C4.45722 12.7194 5.1503 12.3029 5.64286 11.944C5.97921 12.4915 7.23527 14.2851 9.26197 14.2851L9.3038 14.2848L9.29986 13.9754L9.26304 13.9758C7.38754 13.9758 6.18152 12.2222 5.8945 11.7564C6.11432 11.5873 6.31914 11.4177 6.51073 11.2482C6.94502 11.7281 8.59356 13.389 10.6013 13.389C10.9566 13.389 11.3233 13.3349 11.6962 13.2152V12.8953C9.40173 13.6682 7.21704 11.5554 6.74164 11.0384C6.88175 10.9067 7.01365 10.7754 7.13804 10.6448C7.56161 11.0649 9.04179 12.3921 10.859 12.3921C11.131 12.3921 11.4113 12.3598 11.6962 12.2926V11.9596C9.68447 12.4246 7.7893 10.8472 7.35 10.4162Z" fill="white"/>
<path id="path416" d="M4.95907 13.7217C4.93154 13.9899 4.54622 14.4422 4.17627 14.8202C4.24669 14.8489 4.32353 14.8652 4.40431 14.8652H4.9369C5.17889 14.6479 5.40337 14.4483 5.46092 14.4026C5.59961 14.2925 6.40207 14.507 5.90665 13.8385C5.41123 13.1703 5.01268 13.1979 4.95907 13.7217Z" fill="white"/>
<path id="path418" d="M7.17373 14.1595C7.12011 13.6357 6.72156 13.6081 6.22615 14.2763C5.73073 14.9448 6.53319 14.7303 6.67152 14.8404L6.70155 14.8652H7.59659C7.37068 14.5994 7.19196 14.3382 7.17373 14.1595Z" fill="white"/>
</g>
</svg>
