<svg width="18" height="18" viewBox="0 0 18 18" fill="none" xmlns="http://www.w3.org/2000/svg">
<g id="Frame 1000006726">
<path id="path582" d="M10.3182 2.77171C9.95427 2.77171 9.65918 3.07917 9.65918 3.45876C9.65918 3.83796 9.95427 4.14542 10.3182 4.14542C10.6822 4.14542 10.9776 3.83796 10.9776 3.45876C10.9776 3.07917 10.6822 2.77171 10.3182 2.77171Z" fill="#757575"/>
<path id="path584" d="M10.3174 3.14133C10.1494 3.14133 10.0132 3.2833 10.0132 3.45867C10.0132 3.63327 10.1494 3.77561 10.3174 3.77561C10.4853 3.77561 10.6216 3.63327 10.6216 3.45867C10.6216 3.2833 10.4853 3.14133 10.3174 3.14133Z" fill="#009688"/>
<path id="path586" d="M10.2759 2.75043L0.5 3.45874H9.42964C9.63985 3.45798 9.8322 3.27806 9.97684 3.11902C10.0624 3.02488 10.1834 2.96604 10.3178 2.96604L10.2759 2.75043Z" fill="#BDBDBD"/>
<path id="path588" d="M14.6576 2.033C14.4845 1.54068 15.0182 0.884004 15.8503 0.566293C16.6821 0.248203 17.497 0.646379 17.6704 1.13832C17.8435 1.63064 17.3094 2.0311 16.4777 2.34881C15.6456 2.66652 14.831 2.52532 14.6576 2.033ZM11.1744 3.20173L14.2466 2.49116C14.4164 2.45206 14.5927 2.47787 14.7476 2.55986C15.1672 2.78306 15.8474 2.78495 16.5382 2.52114C17.5309 2.14194 18.1681 1.6147 17.9615 1.0271C17.7546 0.439888 16.7822 0.0147583 15.7899 0.393961C15.1447 0.640311 14.6499 1.05747 14.439 1.4807C14.3381 1.6834 14.1654 1.83713 13.9515 1.88799L10.394 2.73256C10.3554 2.74167 10.3161 2.74775 10.2764 2.7504L10.3183 2.96601C10.4214 2.96601 10.5164 3.00055 10.5937 3.05939C10.7627 3.18769 10.9704 3.24918 11.1744 3.20173Z" fill="#009688"/>
<path id="path590" d="M10.3178 3.95106C10.1834 3.95106 10.0624 3.89222 9.97684 3.79808C9.8322 3.63904 9.63985 3.45874 9.42964 3.45874H0.5L10.2759 4.16666L10.3178 3.95106Z" fill="#E0E0E0"/>
<path id="path592" d="M15.8503 6.3507C15.0182 6.03299 14.4845 5.37631 14.6576 4.88399C14.831 4.39168 15.6456 4.25009 16.4777 4.56818C17.3094 4.88589 17.8435 5.28635 17.6704 5.77866C17.497 6.2706 16.6821 6.66841 15.8503 6.3507ZM17.9615 5.88989C18.1681 5.30229 17.5309 4.77505 16.5382 4.39585C15.8474 4.13204 15.1672 4.13393 14.7476 4.35713C14.5927 4.43912 14.4164 4.46493 14.2466 4.42584L11.1744 3.71526C10.9704 3.66781 10.7627 3.72892 10.5937 3.8576C10.5164 3.91644 10.4214 3.95098 10.3183 3.95098L10.2764 4.16658C10.3161 4.16923 10.3554 4.17493 10.394 4.18442L13.9515 5.02899C14.1654 5.07985 14.3381 5.23358 14.439 5.43628C14.6499 5.85951 15.1447 6.27668 15.7899 6.52303C16.7822 6.90223 17.7546 6.4771 17.9615 5.88989Z" fill="#009688"/>
<path id="path594" d="M12.0972 7.9587V10.0176H12.2006V7.9587H12.0972Z" fill="#BDBDBD"/>
<path id="path596" d="M13.5474 7.9587V10.0176H13.6512V7.9587H13.5474Z" fill="#BDBDBD"/>
<path id="path598" d="M11.4766 7.9587V10.0176H11.58V7.9587H11.4766Z" fill="#BDBDBD"/>
<path id="path600" d="M12.5112 7.9587V10.0176H12.6147V7.9587H12.5112Z" fill="#BDBDBD"/>
<path id="path602" d="M11.8906 7.9587V10.0176H11.9941V7.9587H11.8906Z" fill="#BDBDBD"/>
<path id="path604" d="M11.6836 7.9587V10.0176H11.7871V7.9587H11.6836Z" fill="#BDBDBD"/>
<path id="path606" d="M13.3403 7.9587V10.0176H13.4438V7.9587H13.3403Z" fill="#BDBDBD"/>
<path id="path608" d="M13.1333 7.9587V10.0176H13.2371V7.9587H13.1333Z" fill="#BDBDBD"/>
<path id="path610" d="M12.7192 7.9587V10.0176H12.8227V7.9587H12.7192Z" fill="#BDBDBD"/>
<path id="path612" d="M12.9263 7.9587V10.0176H13.0297V7.9587H12.9263Z" fill="#BDBDBD"/>
<path id="path614" d="M12.3052 7.9587V10.0176H12.4086V7.9587H12.3052Z" fill="#BDBDBD"/>
<path id="path616" d="M10.0269 7.9587V10.0176H10.1303V7.9587H10.0269Z" fill="#BDBDBD"/>
<path id="path618" d="M10.2334 7.9587V10.0176H10.3369V7.9587H10.2334Z" fill="#BDBDBD"/>
<path id="path620" d="M9.81982 7.9587V10.0176H9.92329V7.9587H9.81982Z" fill="#BDBDBD"/>
<path id="path622" d="M9.40479 7.9587V10.0176H9.50825V7.9587H9.40479Z" fill="#BDBDBD"/>
<path id="path624" d="M10.4404 7.9587V10.0176H10.5443V7.9587H10.4404Z" fill="#BDBDBD"/>
<path id="path626" d="M11.0625 7.9587V10.0176H11.166V7.9587H11.0625Z" fill="#BDBDBD"/>
<path id="path628" d="M10.8545 7.9587V10.0176H10.9583V7.9587H10.8545Z" fill="#BDBDBD"/>
<path id="path630" d="M10.6475 7.9587V10.0176H10.7509V7.9587H10.6475Z" fill="#BDBDBD"/>
<path id="path632" d="M11.2695 7.9587V10.0176H11.3734V7.9587H11.2695Z" fill="#BDBDBD"/>
<path id="path634" d="M9.61279 7.9587V10.0176H9.71626V7.9587H9.61279Z" fill="#BDBDBD"/>
<path id="path636" d="M16.6538 7.9587V10.0176H16.7576V7.9587H16.6538Z" fill="#BDBDBD"/>
<path id="path638" d="M16.8608 7.9587V10.0176H16.9643V7.9587H16.8608Z" fill="#BDBDBD"/>
<path id="path640" d="M17.0679 7.9587V10.0176H17.1717V7.9587H17.0679Z" fill="#BDBDBD"/>
<path id="path642" d="M16.0327 7.9587V10.0176H16.1362V7.9587H16.0327Z" fill="#BDBDBD"/>
<path id="path644" d="M16.2397 7.9587V10.0176H16.3436V7.9587H16.2397Z" fill="#BDBDBD"/>
<path id="path646" d="M16.4468 7.9587V10.0176H16.5502V7.9587H16.4468Z" fill="#BDBDBD"/>
<path id="path648" d="M17.9999 7.9587H17.8965V10.0176H17.9999V7.9587Z" fill="#BDBDBD"/>
<path id="path650" d="M17.2744 7.9587V10.0176H17.3779V7.9587H17.2744Z" fill="#BDBDBD"/>
<path id="path652" d="M17.6895 7.9587V10.0176H17.7929V7.9587H17.6895Z" fill="#BDBDBD"/>
<path id="path654" d="M17.4814 7.9587V10.0176H17.5849V7.9587H17.4814Z" fill="#BDBDBD"/>
<path id="path656" d="M14.79 7.9587V10.0176H14.8935V7.9587H14.79Z" fill="#BDBDBD"/>
<path id="path658" d="M14.583 7.9587V10.0176H14.6865V7.9587H14.583Z" fill="#BDBDBD"/>
<path id="path660" d="M13.7539 7.9587V10.0176H13.8574V7.9587H13.7539Z" fill="#BDBDBD"/>
<path id="path662" d="M14.376 7.9587V10.0176H14.4794V7.9587H14.376Z" fill="#BDBDBD"/>
<path id="path664" d="M14.1689 7.9587V10.0176H14.2724V7.9587H14.1689Z" fill="#BDBDBD"/>
<path id="path666" d="M13.9609 7.9587V10.0176H14.0648V7.9587H13.9609Z" fill="#BDBDBD"/>
<path id="path668" d="M14.9971 7.9587V10.0176H15.1005V7.9587H14.9971Z" fill="#BDBDBD"/>
<path id="path670" d="M15.8247 7.9587V10.0176H15.9285V7.9587H15.8247Z" fill="#BDBDBD"/>
<path id="path672" d="M15.4111 7.9587V10.0176H15.5146V7.9587H15.4111Z" fill="#BDBDBD"/>
<path id="path674" d="M15.6177 7.9587V10.0176H15.7211V7.9587H15.6177Z" fill="#BDBDBD"/>
<path id="path676" d="M15.2041 7.9587V10.0176H15.3076V7.9587H15.2041Z" fill="#BDBDBD"/>
<path id="path678" d="M3.39941 7.9587V10.0176H3.50288V7.9587H3.39941Z" fill="#BDBDBD"/>
<path id="path680" d="M4.84961 7.9587V10.0176H4.95308V7.9587H4.84961Z" fill="#BDBDBD"/>
<path id="path682" d="M2.77783 7.9587V10.0176H2.88166V7.9587H2.77783Z" fill="#BDBDBD"/>
<path id="path684" d="M3.81348 7.9587V10.0176H3.91694V7.9587H3.81348Z" fill="#BDBDBD"/>
<path id="path686" d="M3.19238 7.9587V10.0176H3.29621V7.9587H3.19238Z" fill="#BDBDBD"/>
<path id="path688" d="M2.98584 7.9587V10.0176H3.0893V7.9587H2.98584Z" fill="#BDBDBD"/>
<path id="path690" d="M4.64258 7.9587V10.0176H4.74604V7.9587H4.64258Z" fill="#BDBDBD"/>
<path id="path692" d="M4.43555 7.9587V10.0176H4.53901V7.9587H4.43555Z" fill="#BDBDBD"/>
<path id="path694" d="M4.02051 7.9587V10.0176H4.12397V7.9587H4.02051Z" fill="#BDBDBD"/>
<path id="path696" d="M4.22852 7.9587V10.0176H4.33198V7.9587H4.22852Z" fill="#BDBDBD"/>
<path id="path698" d="M3.60645 7.9587V10.0176H3.70991V7.9587H3.60645Z" fill="#BDBDBD"/>
<path id="path700" d="M1.32812 7.9587V10.0176H1.43159V7.9587H1.32812Z" fill="#BDBDBD"/>
<path id="path702" d="M1.53564 7.9587V10.0176H1.63911V7.9587H1.53564Z" fill="#BDBDBD"/>
<path id="path704" d="M1.12207 7.9587V10.0176H1.22553V7.9587H1.12207Z" fill="#BDBDBD"/>
<path id="path706" d="M0.707031 7.9587V10.0176H0.810494V7.9587H0.707031Z" fill="#BDBDBD"/>
<path id="path708" d="M0.5 7.9587V10.0176H0.603828V7.9587H0.5Z" fill="#BDBDBD"/>
<path id="path710" d="M1.74268 7.9587V10.0176H1.84614V7.9587H1.74268Z" fill="#BDBDBD"/>
<path id="path712" d="M2.36377 7.9587V10.0176H2.4676V7.9587H2.36377Z" fill="#BDBDBD"/>
<path id="path714" d="M2.15674 7.9587V10.0176H2.26021V7.9587H2.15674Z" fill="#BDBDBD"/>
<path id="path716" d="M1.94971 7.9587V10.0176H2.05317V7.9587H1.94971Z" fill="#BDBDBD"/>
<path id="path718" d="M2.5708 7.9587V10.0176H2.67427V7.9587H2.5708Z" fill="#BDBDBD"/>
<path id="path720" d="M0.914062 7.9587V10.0176H1.01753V7.9587H0.914062Z" fill="#BDBDBD"/>
<path id="path722" d="M7.95605 7.9587V10.0176H8.05952V7.9587H7.95605Z" fill="#BDBDBD"/>
<path id="path724" d="M8.16309 7.9587V10.0176H8.26691V7.9587H8.16309Z" fill="#BDBDBD"/>
<path id="path726" d="M8.37012 7.9587V10.0176H8.47358V7.9587H8.37012Z" fill="#BDBDBD"/>
<path id="path728" d="M7.33398 7.9587V10.0176H7.43745V7.9587H7.33398Z" fill="#BDBDBD"/>
<path id="path730" d="M7.54102 7.9587V10.0176H7.64448V7.9587H7.54102Z" fill="#BDBDBD"/>
<path id="path732" d="M7.74805 7.9587V10.0176H7.85187V7.9587H7.74805Z" fill="#BDBDBD"/>
<path id="path734" d="M9.19775 7.9587V10.0176H9.30122V7.9587H9.19775Z" fill="#BDBDBD"/>
<path id="path736" d="M8.57666 7.9587V10.0176H8.68049V7.9587H8.57666Z" fill="#BDBDBD"/>
<path id="path738" d="M8.99072 7.9587V10.0176H9.09419V7.9587H8.99072Z" fill="#BDBDBD"/>
<path id="path740" d="M8.78369 7.9587V10.0176H8.88715V7.9587H8.78369Z" fill="#BDBDBD"/>
<path id="path742" d="M6.09229 7.9587V10.0176H6.19575V7.9587H6.09229Z" fill="#BDBDBD"/>
<path id="path744" d="M5.88428 7.9587V10.0176H5.98811V7.9587H5.88428Z" fill="#BDBDBD"/>
<path id="path746" d="M5.05615 7.9587V10.0176H5.15998V7.9587H5.05615Z" fill="#BDBDBD"/>
<path id="path748" d="M5.67725 7.9587V10.0176H5.78071V7.9587H5.67725Z" fill="#BDBDBD"/>
<path id="path750" d="M5.47021 7.9587V10.0176H5.57404V7.9587H5.47021Z" fill="#BDBDBD"/>
<path id="path752" d="M5.26318 7.9587V10.0176H5.36665V7.9587H5.26318Z" fill="#BDBDBD"/>
<path id="path754" d="M6.29932 7.9587V10.0176H6.40278V7.9587H6.29932Z" fill="#BDBDBD"/>
<path id="path756" d="M7.12695 7.9587V10.0176H7.23042V7.9587H7.12695Z" fill="#BDBDBD"/>
<path id="path758" d="M6.71289 7.9587V10.0176H6.81635V7.9587H6.71289Z" fill="#BDBDBD"/>
<path id="path760" d="M6.91992 7.9587V10.0176H7.02339V7.9587H6.91992Z" fill="#BDBDBD"/>
<path id="path762" d="M6.50635 7.9587V10.0176H6.60982V7.9587H6.50635Z" fill="#BDBDBD"/>
<path id="path764" d="M17.9997 9.78823V10.5053C17.9997 10.8366 17.7418 11.1054 17.4237 11.1054H1.07634C0.757935 11.1054 0.5 10.8366 0.5 10.5053V9.78823H17.9997Z" fill="#546E7A"/>
<path id="path766" d="M17.9997 10.1253V10.5053C17.9997 10.8366 17.7418 11.1054 17.4237 11.1054H1.07634C0.757935 11.1054 0.5 10.8366 0.5 10.5053V10.1253H17.9997Z" fill="#607D8B"/>
<path id="path768" d="M2.9668 17.3819V13.8293H11.4589V17.3819H2.9668Z" fill="#BDBDBD"/>
<path id="path770" d="M9.22086 14.7088C8.74543 14.7088 8.36035 15.1104 8.36035 15.6054C8.36035 16.1008 8.74543 16.502 9.22086 16.502C9.69628 16.502 10.0814 16.1008 10.0814 15.6054C10.0814 15.1104 9.69628 14.7088 9.22086 14.7088Z" fill="#757575"/>
<path id="path772" d="M9.22141 16.7392C8.62066 16.7392 8.13358 16.2317 8.13358 15.6054C8.13358 14.9795 8.62066 14.472 9.22141 14.472C9.82216 14.472 10.3092 14.9795 10.3092 15.6054C10.3092 16.2317 9.82216 16.7392 9.22141 16.7392ZM4.6748 17.3819H12.2539V13.8293H4.6748V17.3819Z" fill="#F57C00"/>
<path id="path774" d="M15.8771 17.3173V17.4441H17.9697C17.9592 17.6145 17.8244 17.75 17.6579 17.75H12.0041L11.3892 17.3818V13.8293L12.0041 13.4611H17.6579C17.8244 13.4611 17.9592 13.5966 17.9697 13.767H15.8771V13.8938V17.3173Z" fill="#FF9800"/>
<path id="path776" d="M4.03746 17.3819H1.40531C0.905478 17.3819 0.5 16.9598 0.5 16.439V14.7722C0.5 14.2514 0.905478 13.8293 1.40531 13.8293H4.03746V17.3819Z" fill="#F57C00"/>
<path id="path778" d="M4.1875 13.8293H4.52485V17.3819H4.1875V13.8293Z" fill="#F57C00"/>
<path id="path780" d="M15.877 17.1905H17.9714V17.3173H15.877V17.1905Z" fill="#BDBDBD"/>
<path id="path782" d="M15.877 16.9369H17.9714V17.0633H15.877V16.9369Z" fill="#BDBDBD"/>
<path id="path784" d="M15.877 16.683H17.9714V16.8098H15.877V16.683Z" fill="#BDBDBD"/>
<path id="path786" d="M15.877 16.4294H17.9714V16.5562H15.877V16.4294Z" fill="#BDBDBD"/>
<path id="path788" d="M15.877 16.1759H17.9714V16.3027H15.877V16.1759Z" fill="#BDBDBD"/>
<path id="path790" d="M15.877 15.9223H17.9714V16.0491H15.877V15.9223Z" fill="#BDBDBD"/>
<path id="path792" d="M15.877 15.6687H17.9714V15.7955H15.877V15.6687Z" fill="#BDBDBD"/>
<path id="path794" d="M15.877 15.4156H17.9714V15.542H15.877V15.4156Z" fill="#BDBDBD"/>
<path id="path796" d="M15.877 15.1621H17.9714V15.2888H15.877V15.1621Z" fill="#BDBDBD"/>
<path id="path798" d="M15.877 14.9081H17.9714V15.0349H15.877V14.9081Z" fill="#BDBDBD"/>
<path id="path800" d="M15.877 14.6545H17.9714V14.7812H15.877V14.6545Z" fill="#BDBDBD"/>
<path id="path802" d="M15.877 14.401H17.9714V14.5277H15.877V14.401Z" fill="#BDBDBD"/>
<path id="path804" d="M15.877 14.1473H17.9714V14.2741H15.877V14.1473Z" fill="#BDBDBD"/>
<path id="path806" d="M15.877 13.8938H17.9714V14.0206H15.877V13.8938Z" fill="#BDBDBD"/>
</g>
</svg>
