<svg width="18" height="20" viewBox="0 0 18 20" fill="none" xmlns="http://www.w3.org/2000/svg">
<g id="Frame 1000006725">
<path id="path808" d="M11.8106 13.0592C10.8409 11.1015 11.3258 8.7661 11.3258 8.7661L9.27823 7.46081L9.25551 7.12105L9.00018 7.28385L8.74501 7.12105L8.72224 7.46081L6.67476 8.7661C6.67476 8.7661 7.15961 11.1015 6.18987 13.0592C5.61084 14.2275 7.00524 19.5341 8.22334 19.7427L8.21312 19.8942C8.21312 19.8942 8.54008 20.0162 9.00018 19.9717C9.46044 20.0162 9.78723 19.8942 9.78723 19.8942L9.77718 19.7427C10.9951 19.5341 12.3895 14.2275 11.8106 13.0592Z" fill="#FFE0B2"/>
<path id="path810" d="M5.71818 5.90361C5.71818 5.90361 5.29581 5.7887 5.18634 6.15052C5.07683 6.51234 5.4522 7.59822 5.54607 7.82846C5.63995 8.05871 6.07792 8.5192 6.39066 8.40429C6.70352 8.28896 5.71818 5.90361 5.71818 5.90361Z" fill="#FFE6C1"/>
<path id="path812" d="M12.2818 5.90361C12.2818 5.90361 12.7041 5.7887 12.8136 6.15052C12.9231 6.51234 12.5476 7.59822 12.4537 7.82846C12.36 8.05871 11.9221 8.5192 11.6092 8.40429C11.2965 8.28896 12.2818 5.90361 12.2818 5.90361Z" fill="#FFE6C1"/>
<path id="path814" d="M12.4882 5.1804C12.4882 6.55481 12.1162 8.41721 11.5114 9.57512C10.8768 10.7892 9.9863 11.266 9.00021 11.266C8.01456 11.266 7.12421 10.7896 6.48998 9.57637C5.88465 8.41846 5.51221 6.55523 5.51221 5.1804C5.51221 2.3637 7.07397 1.06798 9.00021 1.06798C10.9266 1.06798 12.4882 2.3637 12.4882 5.1804Z" fill="#FFEBCE"/>
<path id="path816" d="M16.2469 15.0478L13.0372 13.1983C12.5899 12.9402 12.0746 12.9685 11.6694 13.2124C10.8551 13.7033 9.93861 13.9752 9 13.9752C8.06154 13.9752 7.14486 13.7033 6.33076 13.2124C5.92542 12.9685 5.41024 12.9402 4.96281 13.1983L4.86909 13.252L1.75322 15.0478C0.991499 15.4866 0.513026 16.3219 0.5 17.2349L0.701683 20H7.25081H8.92933H9.07083H10.7493H17.2985L17.5 17.2349C17.4871 16.3219 17.0085 15.4866 16.2469 15.0478Z" fill="#80CBC4"/>
<path id="path818" d="M6.38132 12.3806L1.75322 15.0478C0.991499 15.4866 0.513026 16.3219 0.5 17.2349L0.701683 20H9.07083L6.38132 12.3806Z" fill="#4DB6AC"/>
<path id="path820" d="M11.6185 12.3806L16.2468 15.0478C17.0083 15.4866 17.487 16.3219 17.4998 17.2349L17.2983 20H8.9292L11.6185 12.3806Z" fill="#4DB6AC"/>
<path id="path822" d="M9.00025 7.54118C7.95569 7.54118 7.20652 7.65068 6.37278 7.84346C6.30132 7.86011 5.61431 5.86948 5.5415 5.88738L6.17993 7.9946C6.3092 8.58043 6.2571 9.13086 6.49002 9.57637C7.12425 10.7896 8.01444 11.266 9.00025 11.266C9.98634 11.266 10.8768 10.7892 11.5114 9.57512C11.7436 9.13044 11.6917 8.58208 11.8201 7.99751L12.459 5.8878C12.3866 5.87031 11.7001 7.86053 11.6291 7.84387C10.7949 7.65068 10.0454 7.54118 9.00025 7.54118Z" fill="#FAFAFA"/>
<path id="path824" d="M9.97273 1.90735e-06H7.95724C6.50978 1.90735e-06 5.33643 1.23368 5.33643 2.75591V4.97887C5.33643 4.97887 8.07618 4.21026 8.98941 4.21026C9.89046 4.21026 12.5935 4.97887 12.5935 4.97887V2.75591C12.5935 1.23368 11.4202 1.90735e-06 9.97273 1.90735e-06Z" fill="#4DB6AC"/>
<path id="path826" d="M5.04815 18.8063C5.02522 18.7667 2.79091 14.8292 4.83221 12.9601L4.92704 13.0742C2.97616 14.8608 5.14911 18.6893 5.1714 18.7276L5.04815 18.8063Z" fill="#8930F9"/>
<path id="path828" d="M5.92116 19.2884C5.92116 19.6811 5.61852 19.9996 5.24501 19.9996C4.87169 19.9996 4.56885 19.6811 4.56885 19.2884C4.56885 18.8958 4.87169 18.5777 5.24501 18.5777C5.61852 18.5777 5.92116 18.8958 5.92116 19.2884Z" fill="#E0E0E0"/>
<path id="path830" d="M5.65068 19.2884C5.65068 19.5241 5.46911 19.7152 5.24502 19.7152C5.02093 19.7152 4.83936 19.5241 4.83936 19.2884C4.83936 19.0528 5.02093 18.8617 5.24502 18.8617C5.46911 18.8617 5.65068 19.0528 5.65068 19.2884Z" fill="#8930F9"/>
<path id="path832" d="M14.238 14.442C14.1546 14.0568 13.7866 13.74 13.4309 13.4331C13.3447 13.3594 13.26 13.2861 13.1797 13.2129L13.2745 13.0988C13.3535 13.1708 13.4374 13.2428 13.5221 13.3161C13.8967 13.6388 14.2841 13.9727 14.3788 14.4082L14.238 14.442Z" fill="#8930F9"/>
<path id="path834" d="M15.3622 19.5982L15.1995 19.5254C15.2119 19.4954 16.4122 16.4917 15.5983 15.154C15.3532 14.7513 14.9404 14.5382 14.3713 14.5203C13.78 14.4961 13.3349 14.6847 13.0395 15.0832C12.1046 16.3439 12.916 19.2914 12.9243 19.3213L12.7545 19.3738C12.7197 19.2489 11.9099 16.3044 12.8999 14.9691C13.2324 14.5203 13.7299 14.3062 14.3775 14.3341C15.0077 14.3541 15.4691 14.596 15.7475 15.054C16.6114 16.4742 15.4137 19.4712 15.3622 19.5982Z" fill="#E0E0E0"/>
<path id="path836" d="M15.8657 16.0637C15.774 15.0673 15.2712 14.5486 14.3711 14.5202C13.5934 14.4865 13.0598 14.8321 12.7936 15.547L12.6289 15.4791C12.9258 14.683 13.5213 14.3012 14.3773 14.3341C15.3656 14.3649 15.9415 14.957 16.0416 16.0458L15.8657 16.0637Z" fill="#8930F9"/>
<path id="path838" d="M15.0964 19.5891C15.0335 19.7793 15.0567 19.9613 15.1484 19.9946C15.2401 20.0279 15.3655 19.9009 15.4285 19.7106C15.4914 19.5204 15.4682 19.3388 15.3765 19.3051C15.2848 19.2714 15.1594 19.3988 15.0964 19.5891Z" fill="#8930F9"/>
<path id="path840" d="M12.6926 19.4604C12.7324 19.6578 12.8414 19.8006 12.9365 19.7793C13.0315 19.7581 13.0763 19.5811 13.0366 19.3842C12.997 19.1868 12.8878 19.044 12.7928 19.0653C12.6979 19.0861 12.653 19.263 12.6926 19.4604Z" fill="#8930F9"/>
<path id="path842" d="M7.25078 20H9.0708L6.38129 12.3806L4.60645 12.976L7.25078 20Z" fill="#009688"/>
<path id="path844" d="M10.7492 20H8.9292L11.6185 12.3806L13.3936 12.976L10.7492 20Z" fill="#009688"/>
<path id="path846" d="M8.97087 1.30612C9.00833 1.53429 8.92324 1.62548 8.80447 1.65421C8.68569 1.68294 8.57819 1.63755 8.54078 1.4098C8.50336 1.18205 8.55951 0.913499 8.67828 0.88477C8.79706 0.856041 8.93362 1.07837 8.97087 1.30612Z" fill="#80CBC4"/>
<path id="path848" d="M8.53679 1.70085C8.6121 1.91402 8.54436 2.0252 8.43318 2.08266C8.32165 2.14053 8.20893 2.12346 8.13343 1.90986C8.05812 1.69627 8.06711 1.41939 8.17844 1.36151C8.28982 1.30364 8.46133 1.48725 8.53679 1.70085Z" fill="#80CBC4"/>
<path id="path850" d="M9.00022 1.78578C8.75495 1.78578 8.29932 2.20464 8.29932 2.64266C8.29932 3.08067 9.00022 3.03695 9.00022 3.03695C9.00022 3.03695 9.70128 3.08067 9.70128 2.64266C9.70128 2.20464 9.24549 1.78578 9.00022 1.78578Z" fill="#80CBC4"/>
<path id="path852" d="M9.02887 1.30612C8.99162 1.53429 9.07666 1.62548 9.19544 1.65421C9.31421 1.68294 9.42171 1.63755 9.45916 1.4098C9.49658 1.18205 9.44044 0.913499 9.32166 0.88477C9.20288 0.856041 9.06633 1.07837 9.02887 1.30612Z" fill="#80CBC4"/>
<path id="path854" d="M9.46353 1.70085C9.38822 1.91402 9.45581 2.0252 9.56714 2.08266C9.67851 2.14053 9.79139 2.12346 9.86685 1.90986C9.9422 1.69627 9.93305 1.41939 9.82172 1.36151C9.71035 1.30364 9.53883 1.48725 9.46353 1.70085Z" fill="#80CBC4"/>
</g>
</svg>
