<svg width="24" height="24" viewBox="0 0 24 24" fill="none" xmlns="http://www.w3.org/2000/svg">
<g id="store-2_svgrepo.com">
<path id="Vector" d="M10.505 8.80704C10.505 8.4094 10.1826 8.08704 9.785 8.08704C9.38739 8.08704 9.06503 8.4094 9.06503 8.80704H10.505ZM14.9344 8.80704C14.9344 8.4094 14.6121 8.08704 14.2144 8.08704C13.8168 8.08704 13.4944 8.4094 13.4944 8.80704H14.9344ZM9.06513 8.79467C9.05831 9.19226 9.37507 9.5201 9.77261 9.52693C10.1702 9.53377 10.4981 9.217 10.5049 8.8194L9.06513 8.79467ZM10.5145 8.26068C10.5213 7.8631 10.2046 7.53526 9.80698 7.52842C9.40941 7.52159 9.08157 7.83836 9.07473 8.23595L10.5145 8.26068ZM10.4834 8.98219C10.5802 8.59649 10.3459 8.2054 9.9602 8.10867C9.57448 8.01194 9.1834 8.24619 9.08666 8.63189L10.4834 8.98219ZM9.63428 9.408L10.331 9.5899L10.3327 9.58315L9.63428 9.408ZM6.65002 10.073C6.32326 9.84638 5.87467 9.92759 5.64808 10.2543C5.42149 10.5811 5.5027 11.0297 5.82947 11.2563L6.65002 10.073ZM6.95971 10.672C6.96379 10.2744 6.64475 9.94875 6.24713 9.94468C5.8495 9.9406 5.52387 10.2596 5.51979 10.6572L6.95971 10.672ZM6.18695 15.817L6.9069 15.8256L6.90691 15.8244L6.18695 15.817ZM10.0797 18.48C10.4774 18.48 10.7997 18.1576 10.7997 17.76C10.7997 17.3624 10.4774 17.04 10.0797 17.04V18.48ZM5.82768 11.255C6.15376 11.4827 6.60259 11.4028 6.83017 11.0767C7.05775 10.7507 6.9779 10.3018 6.65182 10.0742L5.82768 11.255ZM5.35559 8.24832L4.68065 7.99761C4.67264 8.01916 4.66567 8.04107 4.65977 8.06329L5.35559 8.24832ZM6.15719 6.09024L6.83213 6.34094C6.83908 6.32226 6.84523 6.3033 6.8506 6.2841L6.15719 6.09024ZM7.22183 5.28V4.56H7.21974L7.22183 5.28ZM16.7767 5.28L16.7788 4.56H16.7767V5.28ZM17.8413 6.09024L17.1479 6.28411C17.1533 6.30326 17.1594 6.32219 17.1663 6.34085L17.8413 6.09024ZM18.6429 8.24928L19.3388 8.06432C19.3329 8.04212 19.326 8.02021 19.3179 7.99867L18.6429 8.24928ZM17.3474 10.0744C17.0214 10.3022 16.9418 10.751 17.1695 11.0771C17.3973 11.403 17.8462 11.4826 18.1721 11.2548L17.3474 10.0744ZM9.35975 17.76C9.35975 18.1576 9.68209 18.48 10.0797 18.48C10.4774 18.48 10.7997 18.1576 10.7997 17.76H9.35975ZM13.1997 17.76C13.1997 18.1576 13.5221 18.48 13.9197 18.48C14.3174 18.48 14.6397 18.1576 14.6397 17.76H13.1997ZM10.0797 17.04C9.68209 17.04 9.35975 17.3624 9.35975 17.76C9.35975 18.1576 9.68209 18.48 10.0797 18.48V17.04ZM13.9197 18.48C14.3174 18.48 14.6397 18.1576 14.6397 17.76C14.6397 17.3624 14.3174 17.04 13.9197 17.04V18.48ZM13.4945 8.8157C13.4993 9.21331 13.8255 9.53177 14.2232 9.52699C14.6207 9.5222 14.9392 9.19599 14.9344 8.79838L13.4945 8.8157ZM14.9277 8.23966C14.9229 7.84205 14.5967 7.52359 14.1991 7.52837C13.8014 7.53316 13.483 7.85936 13.4878 8.25698L14.9277 8.23966ZM14.9155 8.6311C14.8184 8.24551 14.427 8.0117 14.0414 8.10887C13.6558 8.20604 13.422 8.59739 13.5192 8.98298L14.9155 8.6311ZM14.368 9.40512L13.6698 9.58107L13.6714 9.58677L14.368 9.40512ZM18.1691 11.257C18.4961 11.031 18.5781 10.5826 18.3521 10.2554C18.1261 9.92821 17.6776 9.84624 17.3505 10.0723L18.1691 11.257ZM18.4797 10.6576C18.4759 10.26 18.1504 9.94082 17.7528 9.94468C17.3552 9.94853 17.036 10.274 17.0398 10.6716L18.4797 10.6576ZM17.8096 15.817L17.0897 15.824V15.8256L17.8096 15.817ZM13.9197 17.04C13.5221 17.04 13.1997 17.3624 13.1997 17.76C13.1997 18.1576 13.5221 18.48 13.9197 18.48V17.04ZM9.06503 8.80704C9.06503 10.4278 10.379 11.7418 11.9997 11.7418V10.3018C11.1742 10.3018 10.505 9.63255 10.505 8.80704H9.06503ZM11.9997 11.7418C13.6206 11.7418 14.9344 10.4278 14.9344 8.80704H13.4944C13.4944 9.63255 12.8252 10.3018 11.9997 10.3018V11.7418ZM10.5049 8.8194L10.5145 8.26068L9.07473 8.23595L9.06513 8.79467L10.5049 8.8194ZM9.08666 8.63189L8.93594 9.23285L10.3327 9.58315L10.4834 8.98219L9.08666 8.63189ZM8.93766 9.22611C8.81489 9.69631 8.47025 10.0769 8.01452 10.2456L8.51444 11.596C9.41121 11.2641 10.0894 10.5152 10.331 9.5899L8.93766 9.22611ZM8.01452 10.2456C7.55878 10.4144 7.04937 10.3499 6.65002 10.073L5.82947 11.2563C6.61528 11.8012 7.61766 11.9281 8.51444 11.596L8.01452 10.2456ZM5.51979 10.6572L5.46699 15.8096L6.90691 15.8244L6.95971 10.672L5.51979 10.6572ZM5.46701 15.8083C5.45853 16.5139 5.73293 17.1936 6.22895 17.6956L7.25324 16.6835C7.02777 16.4553 6.90305 16.1463 6.9069 15.8256L5.46701 15.8083ZM6.22895 17.6956C6.72497 18.1976 7.40131 18.4801 8.10701 18.48L8.10695 17.04C7.78617 17.04 7.47869 16.9116 7.25324 16.6835L6.22895 17.6956ZM8.10701 18.48H10.0797V17.04H8.10695L8.10701 18.48ZM6.65182 10.0742C6.12677 9.70777 5.88686 9.05214 6.05141 8.43335L4.65977 8.06329C4.3397 9.26693 4.80635 10.5422 5.82768 11.255L6.65182 10.0742ZM6.03053 8.49902L6.83213 6.34094L5.48225 5.83953L4.68065 7.99761L6.03053 8.49902ZM6.8506 6.2841C6.89744 6.11654 7.04992 6.0005 7.22391 6L7.21974 4.56C6.40134 4.56237 5.68415 5.10819 5.46378 5.89638L6.8506 6.2841ZM7.22183 6H16.7767V4.56H7.22183V6ZM16.7747 6C16.9486 6.0005 17.1011 6.11654 17.1479 6.28411L18.5347 5.89637C18.3144 5.10819 17.5972 4.56237 16.7788 4.56L16.7747 6ZM17.1663 6.34085L17.9679 8.49989L19.3179 7.99867L18.5163 5.83963L17.1663 6.34085ZM17.9471 8.43423C18.1115 9.05267 17.8718 9.70792 17.3474 10.0744L18.1721 11.2548C19.1925 10.5419 19.6585 9.2673 19.3388 8.06432L17.9471 8.43423ZM10.7997 17.76V14.88H9.35975V17.76H10.7997ZM10.7997 14.88C10.7997 14.7474 10.9072 14.64 11.0397 14.64V13.2C10.1119 13.2 9.35975 13.9522 9.35975 14.88H10.7997ZM11.0397 14.64H12.9597V13.2H11.0397V14.64ZM12.9597 14.64C13.0923 14.64 13.1997 14.7474 13.1997 14.88H14.6397C14.6397 13.9522 13.8876 13.2 12.9597 13.2V14.64ZM13.1997 14.88V17.76H14.6397V14.88H13.1997ZM10.0797 18.48H13.9197V17.04H10.0797V18.48ZM14.9344 8.79838L14.9277 8.23966L13.4878 8.25698L13.4945 8.8157L14.9344 8.79838ZM13.5192 8.98298L13.6698 9.58107L15.0662 9.22918L14.9155 8.6311L13.5192 8.98298ZM13.6714 9.58677C13.9124 10.5114 14.5895 11.2602 15.4853 11.5929L15.9866 10.243C15.5314 10.0739 15.1873 9.69337 15.0648 9.22347L13.6714 9.58677ZM15.4853 11.5929C16.3811 11.9256 17.3828 11.8002 18.1691 11.257L17.3505 10.0723C16.9509 10.3483 16.4418 10.4121 15.9866 10.243L15.4853 11.5929ZM17.0398 10.6716L17.0897 15.824L18.5296 15.81L18.4797 10.6576L17.0398 10.6716ZM17.0897 15.8256C17.0936 16.1463 16.9689 16.4553 16.7434 16.6835L17.7677 17.6956C18.2637 17.1936 18.5381 16.5139 18.5296 15.8083L17.0897 15.8256ZM16.7434 16.6835C16.518 16.9116 16.2105 17.04 15.8897 17.04L15.8896 18.48C16.5953 18.4801 17.2717 18.1976 17.7677 17.6956L16.7434 16.6835ZM15.8897 17.04H13.9197V18.48H15.8896L15.8897 17.04Z" fill="#18173C"/>
</g>
</svg>
