<svg width="24" height="24" viewBox="0 0 24 24" fill="none" xmlns="http://www.w3.org/2000/svg">
<g id="store-2_svgrepo.com">
<path id="Vector" d="M10.5049 8.80704C10.5049 8.4094 10.1825 8.08704 9.78488 8.08704C9.38726 8.08704 9.06491 8.4094 9.06491 8.80704H10.5049ZM14.9343 8.80704C14.9343 8.4094 14.6119 8.08704 14.2143 8.08704C13.8167 8.08704 13.4943 8.4094 13.4943 8.80704H14.9343ZM9.06501 8.79467C9.05819 9.19226 9.37495 9.5201 9.77249 9.52693C10.1701 9.53377 10.498 9.217 10.5048 8.8194L9.06501 8.79467ZM10.5144 8.26068C10.5212 7.8631 10.2045 7.53526 9.80686 7.52842C9.40929 7.52159 9.08145 7.83836 9.07461 8.23595L10.5144 8.26068ZM10.4833 8.98219C10.58 8.59649 10.3458 8.2054 9.96008 8.10867C9.57436 8.01194 9.18327 8.24619 9.08653 8.63189L10.4833 8.98219ZM9.63416 9.408L10.3308 9.5899L10.3326 9.58315L9.63416 9.408ZM6.6499 10.073C6.32314 9.84638 5.87455 9.92759 5.64796 10.2543C5.42137 10.5811 5.50258 11.0297 5.82935 11.2563L6.6499 10.073ZM6.95959 10.672C6.96367 10.2744 6.64463 9.94875 6.24701 9.94468C5.84938 9.9406 5.52374 10.2596 5.51966 10.6572L6.95959 10.672ZM6.18683 15.817L6.90678 15.8256L6.90679 15.8244L6.18683 15.817ZM10.0796 18.48C10.4772 18.48 10.7996 18.1576 10.7996 17.76C10.7996 17.3624 10.4772 17.04 10.0796 17.04V18.48ZM5.82756 11.255C6.15364 11.4827 6.60247 11.4028 6.83004 11.0767C7.05763 10.7507 6.97778 10.3018 6.6517 10.0742L5.82756 11.255ZM5.35547 8.24832L4.68053 7.99761C4.67252 8.01916 4.66555 8.04107 4.65965 8.06329L5.35547 8.24832ZM6.15707 6.09024L6.83201 6.34094C6.83895 6.32226 6.84511 6.3033 6.85047 6.2841L6.15707 6.09024ZM7.22171 5.28V4.56H7.21962L7.22171 5.28ZM16.7766 5.28L16.7787 4.56H16.7766V5.28ZM17.8412 6.09024L17.1478 6.28411C17.1532 6.30326 17.1593 6.32219 17.1662 6.34085L17.8412 6.09024ZM18.6428 8.24928L19.3387 8.06432C19.3327 8.04212 19.3258 8.02021 19.3178 7.99867L18.6428 8.24928ZM17.3473 10.0744C17.0213 10.3022 16.9417 10.751 17.1694 11.0771C17.3972 11.403 17.8461 11.4826 18.172 11.2548L17.3473 10.0744ZM9.35963 17.76C9.35963 18.1576 9.68196 18.48 10.0796 18.48C10.4772 18.48 10.7996 18.1576 10.7996 17.76H9.35963ZM13.1996 17.76C13.1996 18.1576 13.522 18.48 13.9196 18.48C14.3172 18.48 14.6396 18.1576 14.6396 17.76H13.1996ZM10.0796 17.04C9.68196 17.04 9.35963 17.3624 9.35963 17.76C9.35963 18.1576 9.68196 18.48 10.0796 18.48V17.04ZM13.9196 18.48C14.3172 18.48 14.6396 18.1576 14.6396 17.76C14.6396 17.3624 14.3172 17.04 13.9196 17.04V18.48ZM13.4944 8.8157C13.4992 9.21331 13.8254 9.53177 14.2231 9.52699C14.6206 9.5222 14.9391 9.19599 14.9343 8.79838L13.4944 8.8157ZM14.9276 8.23966C14.9228 7.84205 14.5966 7.52359 14.199 7.52837C13.8013 7.53316 13.4829 7.85936 13.4877 8.25698L14.9276 8.23966ZM14.9154 8.6311C14.8183 8.24551 14.4269 8.0117 14.0413 8.10887C13.6557 8.20604 13.4218 8.59739 13.5191 8.98298L14.9154 8.6311ZM14.3679 9.40512L13.6697 9.58107L13.6712 9.58677L14.3679 9.40512ZM18.1689 11.257C18.496 11.031 18.578 10.5826 18.352 10.2554C18.1259 9.92821 17.6775 9.84624 17.3503 10.0723L18.1689 11.257ZM18.4796 10.6576C18.4758 10.26 18.1503 9.94082 17.7527 9.94468C17.3551 9.94853 17.0359 10.274 17.0397 10.6716L18.4796 10.6576ZM17.8095 15.817L17.0896 15.824V15.8256L17.8095 15.817ZM13.9196 17.04C13.522 17.04 13.1996 17.3624 13.1996 17.76C13.1996 18.1576 13.522 18.48 13.9196 18.48V17.04ZM9.06491 8.80704C9.06491 10.4278 10.3788 11.7418 11.9996 11.7418V10.3018C11.1741 10.3018 10.5049 9.63255 10.5049 8.80704H9.06491ZM11.9996 11.7418C13.6205 11.7418 14.9343 10.4278 14.9343 8.80704H13.4943C13.4943 9.63255 12.8251 10.3018 11.9996 10.3018V11.7418ZM10.5048 8.8194L10.5144 8.26068L9.07461 8.23595L9.06501 8.79467L10.5048 8.8194ZM9.08653 8.63189L8.93581 9.23285L10.3326 9.58315L10.4833 8.98219L9.08653 8.63189ZM8.93754 9.22611C8.81477 9.69631 8.47013 10.0769 8.0144 10.2456L8.51432 11.596C9.41109 11.2641 10.0893 10.5152 10.3308 9.5899L8.93754 9.22611ZM8.0144 10.2456C7.55866 10.4144 7.04925 10.3499 6.6499 10.073L5.82935 11.2563C6.61516 11.8012 7.61754 11.9281 8.51432 11.596L8.0144 10.2456ZM5.51966 10.6572L5.46686 15.8096L6.90679 15.8244L6.95959 10.672L5.51966 10.6572ZM5.46688 15.8083C5.45841 16.5139 5.73281 17.1936 6.22883 17.6956L7.25312 16.6835C7.02765 16.4553 6.90293 16.1463 6.90678 15.8256L5.46688 15.8083ZM6.22883 17.6956C6.72485 18.1976 7.40119 18.4801 8.10688 18.48L8.10683 17.04C7.78605 17.04 7.47857 16.9116 7.25312 16.6835L6.22883 17.6956ZM8.10688 18.48H10.0796V17.04H8.10683L8.10688 18.48ZM6.6517 10.0742C6.12664 9.70777 5.88674 9.05214 6.05128 8.43335L4.65965 8.06329C4.33957 9.26693 4.80623 10.5422 5.82756 11.255L6.6517 10.0742ZM6.03041 8.49902L6.83201 6.34094L5.48213 5.83953L4.68053 7.99761L6.03041 8.49902ZM6.85047 6.2841C6.89732 6.11654 7.0498 6.0005 7.22379 6L7.21962 4.56C6.40121 4.56237 5.68403 5.10819 5.46366 5.89638L6.85047 6.2841ZM7.22171 6H16.7766V4.56H7.22171V6ZM16.7745 6C16.9485 6.0005 17.1009 6.11654 17.1478 6.28411L18.5346 5.89637C18.3143 5.10819 17.5971 4.56237 16.7787 4.56L16.7745 6ZM17.1662 6.34085L17.9678 8.49989L19.3178 7.99867L18.5162 5.83963L17.1662 6.34085ZM17.947 8.43423C18.1113 9.05267 17.8717 9.70792 17.3473 10.0744L18.172 11.2548C19.1924 10.5419 19.6584 9.2673 19.3387 8.06432L17.947 8.43423ZM10.7996 17.76V14.88H9.35963V17.76H10.7996ZM10.7996 14.88C10.7996 14.7474 10.9071 14.64 11.0396 14.64V13.2C10.1118 13.2 9.35963 13.9522 9.35963 14.88H10.7996ZM11.0396 14.64H12.9596V13.2H11.0396V14.64ZM12.9596 14.64C13.0922 14.64 13.1996 14.7474 13.1996 14.88H14.6396C14.6396 13.9522 13.8874 13.2 12.9596 13.2V14.64ZM13.1996 14.88V17.76H14.6396V14.88H13.1996ZM10.0796 18.48H13.9196V17.04H10.0796V18.48ZM14.9343 8.79838L14.9276 8.23966L13.4877 8.25698L13.4944 8.8157L14.9343 8.79838ZM13.5191 8.98298L13.6697 9.58107L15.0661 9.22918L14.9154 8.6311L13.5191 8.98298ZM13.6712 9.58677C13.9123 10.5114 14.5894 11.2602 15.4852 11.5929L15.9865 10.243C15.5312 10.0739 15.1872 9.69337 15.0647 9.22347L13.6712 9.58677ZM15.4852 11.5929C16.3809 11.9256 17.3827 11.8002 18.1689 11.257L17.3503 10.0723C16.9508 10.3483 16.4417 10.4121 15.9865 10.243L15.4852 11.5929ZM17.0397 10.6716L17.0896 15.824L18.5295 15.81L18.4796 10.6576L17.0397 10.6716ZM17.0896 15.8256C17.0935 16.1463 16.9688 16.4553 16.7432 16.6835L17.7676 17.6956C18.2636 17.1936 18.538 16.5139 18.5295 15.8083L17.0896 15.8256ZM16.7432 16.6835C16.5178 16.9116 16.2103 17.04 15.8896 17.04L15.8895 18.48C16.5952 18.4801 17.2715 18.1976 17.7676 17.6956L16.7432 16.6835ZM15.8896 17.04H13.9196V18.48H15.8895L15.8896 17.04Z" fill="#B8BCBF"/>
</g>
</svg>
