<svg width="19" height="16" viewBox="0 0 19 16" fill="none" xmlns="http://www.w3.org/2000/svg">
<g id="Group">
<g id="Group_2">
<path id="Path-9_1_" d="M14.3206 1H4.78134C2.46097 1 1 2.63285 1 4.95322V11.2268C1 13.5472 2.46097 15.18 4.78134 15.18H14.4066C16.7269 15.18 18.1879 13.5472 18.1879 11.2268V4.95322C18.1879 2.63285 16.7269 1 14.3206 1Z" stroke="#18173C" stroke-width="1.5" stroke-miterlimit="10" stroke-linecap="round" stroke-linejoin="round"/>
<path id="Vector" d="M1 5.297H18.1879" stroke="#18173C" stroke-width="1.5" stroke-miterlimit="10" stroke-linecap="round" stroke-linejoin="round"/>
</g>
<g id="Group_3">
<g id="Group_4">
<path id="Vector_2" d="M4.26562 11.3987H7.53133" stroke="#18173C" stroke-width="1.5" stroke-miterlimit="10" stroke-linecap="round" stroke-linejoin="round"/>
<path id="Vector_3" d="M4.26562 8.73458H6.67193" stroke="#18173C" stroke-width="1.5" stroke-miterlimit="10" stroke-linecap="round" stroke-linejoin="round"/>
</g>
<path id="Vector_4" d="M12.6875 11.5706H13.8907C14.4063 11.5706 14.836 11.1409 14.836 10.6252V9.4221C14.836 8.90646 14.4063 8.47676 13.8907 8.47676H12.6875C12.1719 8.47676 11.7422 8.90646 11.7422 9.4221V10.6252C11.7422 11.1409 12.1719 11.5706 12.6875 11.5706Z" stroke="#18173C" stroke-width="1.5" stroke-miterlimit="10" stroke-linecap="round" stroke-linejoin="round"/>
</g>
</g>
</svg>
