<svg width="547" height="362" viewBox="0 0 547 362" fill="none" xmlns="http://www.w3.org/2000/svg">
<g clip-path="url(#clip0_294_6740)">
<path d="M0.0763401 283.412C1.0944 292.791 13.67 290.723 21.9977 297.724C30.3254 304.725 22.074 314.284 41.1677 316.336C52.9288 317.608 52.0991 312.677 63.794 324.758C74.0866 335.393 76.0107 317.854 87.5224 320.629C102.384 324.209 103.511 294.98 89.8258 289.297C76.1405 283.613 69.4315 291.586 66.9195 279.295C64.4074 267.005 55.1889 262.408 43.4787 265.151C28.9841 268.549 31.0304 281.213 23.5629 274.248C16.0955 267.282 -1.28277 271.008 0.0763401 283.412Z" fill="#464672"/>
<path d="M107.772 321.681C66.0136 289.32 16.9101 284.381 16.4011 284.333C14.5304 284.152 14.7467 281.904 16.6174 282.085C17.1265 282.133 67.2022 287.273 109.472 320.029L107.772 321.681Z" fill="#18173C"/>
<path d="M47.9685 251.214C45.5404 257.202 53.7893 260.033 56.5355 266.957C59.2817 273.881 51.9542 279.771 62.8118 287.201C69.4928 291.779 72.295 283.069 78.663 290.955C85.0309 298.841 81.9284 301.127 87.571 303.199C97.3876 306.836 107.711 291.588 101.315 283.72C94.9188 275.852 86.1788 278.652 88.6577 270.433C91.1367 262.214 91.9664 258.736 84.0052 256.584C74.1631 253.929 67.3701 259.933 65.133 253.309C62.8958 246.685 51.183 243.292 47.9685 251.214Z" fill="#303056"/>
<path d="M107.772 321.681L109.479 320.273C94.6387 286.805 58.6656 255.977 58.378 255.783C57.1563 254.967 56.2961 256.251 57.5178 257.07C57.8003 257.258 93.1192 288.643 107.772 321.681Z" fill="#18173C"/>
<g opacity="0.3">
<path d="M521.029 125.449H502.172V102.179H521.029V125.449ZM503.173 124.45H520.032V103.175H503.173V124.45Z" fill="#80B2FF"/>
<path d="M517.751 106.334H508.515V107.783H517.751V106.334Z" fill="#80B2FF"/>
<path d="M517.754 109.736H505.784V111.186H517.754V109.736Z" fill="#80B2FF"/>
<path d="M517.754 113.141H505.784V114.591H517.754V113.141Z" fill="#80B2FF"/>
<path d="M517.754 116.544H505.784V117.993H517.754V116.544Z" fill="#80B2FF"/>
<path d="M517.754 119.946H505.784V121.396H517.754V119.946Z" fill="#80B2FF"/>
<path d="M523.391 105.408H505.532V127.679H523.391V105.408Z" fill="#80B2FF"/>
<path d="M520.609 109.065H511.373V110.514H520.609V109.065Z" fill="#80B2FF"/>
<path d="M520.612 112.467H508.642V113.917H520.612V112.467Z" fill="#80B2FF"/>
<path d="M520.612 115.87H508.642V117.319H520.612V115.87Z" fill="#80B2FF"/>
<path d="M520.612 119.275H508.642V120.724H520.612V119.275Z" fill="#80B2FF"/>
<path d="M520.612 122.677H508.642V124.127H520.612V122.677Z" fill="#80B2FF"/>
<path d="M420.313 38.063H418.646V39.3116H420.313V38.063Z" fill="#80B2FF"/>
<path d="M420.313 86.2774H418.646V83.6811H420.313V86.2774ZM420.313 81.0593H418.646V78.4502H420.313V81.0593ZM420.313 75.8411H418.646V73.232H420.313V75.8411ZM420.313 70.623H418.646V68.0114H420.313V70.623ZM420.313 65.4023H418.646V62.7932H420.313V65.4023ZM420.313 60.1841H418.646V57.5751H420.313V60.1841ZM420.313 54.966H418.646V52.3569H420.313V54.966ZM420.313 49.7479H418.646V47.1388H420.313V49.7479ZM420.313 44.5297H418.646V41.9181H420.313V44.5297Z" fill="#80B2FF"/>
<path d="M420.313 88.8865H418.646V90.1351H420.313V88.8865Z" fill="#80B2FF"/>
<path d="M406.702 38.063H405.037V39.3116H406.702V38.063Z" fill="#80B2FF"/>
<path d="M55.8991 149.622H54.2346V147.123H55.8991V149.622ZM55.9322 144.684L54.2702 144.562C54.3352 143.675 54.4895 142.796 54.7309 141.94L56.3344 142.39C56.1228 143.139 55.988 143.908 55.9322 144.684ZM57.1895 140.224L55.7083 139.461C56.1166 138.671 56.6035 137.923 57.1615 137.231L58.4596 138.271C57.9721 138.878 57.5467 139.532 57.1895 140.224ZM60.0935 136.61L59.0271 135.339C59.7123 134.769 60.4523 134.269 61.2363 133.846L62.0253 135.311C61.3396 135.678 60.6924 136.114 60.0935 136.61ZM64.1785 134.411L63.7051 132.819C64.5579 132.561 65.4344 132.391 66.3215 132.31L66.4742 133.968C65.696 134.038 64.9268 134.186 64.1785 134.411ZM391.774 133.917H389.272V132.252H391.774V133.917ZM386.768 133.917H384.266V132.252H386.768V133.917ZM381.762 133.917H379.26V132.252H381.762V133.917ZM376.758 133.917H374.254V132.252H376.758V133.917ZM371.752 133.917H369.25V132.252H371.752V133.917ZM366.745 133.917H364.243V132.252H366.745V133.917ZM361.739 133.917H359.237V132.252H361.739V133.917ZM356.735 133.917H354.231V132.252H356.735V133.917ZM351.729 133.917H349.225V132.252H351.729V133.917ZM346.723 133.917H344.221V132.252H346.723V133.917ZM341.716 133.917H339.215V132.252H341.716V133.917ZM336.71 133.917H334.208V132.252H336.71V133.917ZM331.706 133.917H329.202V132.252H331.706V133.917ZM326.7 133.917H324.196V132.252H326.7V133.917ZM321.694 133.917H319.192V132.252H321.694V133.917ZM316.687 133.917H314.186V132.252H316.687V133.917ZM311.681 133.917H309.179V132.252H311.681V133.917ZM306.677 133.917H304.173V132.252H306.677V133.917ZM301.671 133.917H299.169V132.252H301.671V133.917ZM296.665 133.917H294.163V132.252H296.665V133.917ZM291.658 133.917H289.157V132.252H291.658V133.917ZM286.655 133.917H284.15V132.252H286.655V133.917ZM281.648 133.917H279.144V132.252H281.648V133.917ZM276.642 133.917H274.14V132.252H276.642V133.917ZM271.636 133.917H269.134V132.252H271.636V133.917ZM266.63 133.917H264.128V132.252H266.63V133.917ZM261.626 133.917H259.121V132.252H261.626V133.917ZM256.619 133.917H254.118V132.252H256.619V133.917ZM251.613 133.917H249.111V132.252H251.613V133.917ZM246.607 133.917H244.105V132.252H246.607V133.917ZM241.603 133.917H239.099V132.252H241.603V133.917ZM236.597 133.917H234.092V132.252H236.597V133.917ZM231.59 133.917H229.089V132.252H231.59V133.917ZM226.584 133.917H224.082V132.252H226.584V133.917ZM221.578 133.917H219.076V132.252H221.578V133.917ZM216.574 133.917H214.07V132.252H216.574V133.917ZM211.568 133.917H209.063V132.252H211.568V133.917ZM206.562 133.917H204.06V132.252H206.562V133.917ZM201.555 133.917H199.053V132.252H201.555V133.917ZM196.549 133.917H194.047V132.252H196.549V133.917ZM191.545 133.917H189.028V132.252H191.532L191.545 133.917ZM186.539 133.917H184.034V132.252H186.539V133.917ZM181.533 133.917H179.031V132.252H181.533V133.917ZM176.526 133.917H174.012V132.252H176.514L176.526 133.917ZM171.523 133.917H169.018V132.252H171.523V133.917ZM166.516 133.917H164.012V132.252H166.516V133.917ZM161.51 133.917H158.995V132.252H161.497L161.51 133.917ZM156.504 133.917H154.002V132.252H156.504V133.917ZM151.497 133.917H148.995V132.252H151.497V133.917ZM146.494 133.917H143.989V132.252H146.494V133.917ZM141.487 133.917H138.983V132.252H141.487V133.917ZM136.481 133.917H133.979V132.252H136.481V133.917ZM131.475 133.917H128.973V132.252H131.475V133.917ZM126.468 133.917H123.967V132.252H126.468V133.917ZM121.465 133.917H118.96V132.252H121.465V133.917ZM116.458 133.917H113.954V132.252H116.458V133.917ZM111.452 133.917H108.95V132.252H111.452V133.917ZM106.446 133.917H103.944V132.252H106.446V133.917ZM101.439 133.917H98.9375V132.252H101.439V133.917ZM96.4357 133.917H93.9312V132.252H96.4357V133.917ZM91.4294 133.917H88.902V132.252H91.4065L91.4294 133.917ZM86.4231 133.917H83.9212V132.252H86.4231V133.917ZM81.4168 133.917H78.9149V132.252H81.4168V133.917ZM76.413 133.917H73.8857V132.252H76.3901L76.413 133.917ZM71.4067 133.917H68.9023V132.252H71.4067V133.917ZM394.335 133.887L394.22 132.226C394.995 132.172 395.762 132.041 396.511 131.834L396.956 133.439C396.095 133.677 395.211 133.827 394.319 133.887H394.335ZM399.445 132.473L398.682 130.99C399.375 130.636 400.032 130.215 400.642 129.731L401.677 131.033C400.979 131.587 400.227 132.069 399.433 132.473H399.445ZM403.594 129.167L402.321 128.096C402.822 127.5 403.262 126.855 403.635 126.171L405.098 126.967C404.668 127.753 404.16 128.493 403.581 129.177L403.594 129.167ZM406.139 124.513L404.548 124.025C404.776 123.279 404.928 122.513 405.001 121.736L406.661 121.897C406.569 122.788 406.387 123.668 406.119 124.523L406.139 124.513ZM406.722 119.323H405.057V116.823H406.722V119.323ZM406.722 114.321H405.057V111.832H406.722V114.321ZM406.722 109.319H405.057V106.822H406.722V109.319ZM406.722 104.32H405.057V101.817H406.722V104.32ZM406.722 99.3177H405.057V96.8154H406.722V99.3177ZM406.722 94.3157H405.057V91.8185H406.722V94.3157ZM406.722 89.3137H405.057V86.814H406.722V89.3137ZM406.722 84.3117H405.057V81.812H406.722V84.3117ZM406.722 79.3123H405.057V76.8151H406.722V79.3123ZM406.722 74.3103H405.057V71.808H406.722V74.3103ZM406.722 69.3083H405.057V66.8086H406.722V69.3083ZM406.722 64.3063H405.057V61.8116H406.722V64.3063ZM406.722 59.3068H405.057V56.8046H406.722V59.3068ZM406.722 54.3048H405.057V51.8026H406.722V54.3048ZM406.722 49.3028H405.057V46.8082H406.722V49.3028ZM406.722 44.3008H405.057V41.8011H406.722V44.3008Z" fill="#80B2FF"/>
<path d="M55.8991 152.15H54.2346V153.399H55.8991V152.15Z" fill="#80B2FF"/>
<path d="M430.331 38.063H428.664V39.3116H430.331V38.063Z" fill="#80B2FF"/>
<path d="M430.328 65.2802H428.664V62.6813H430.328V65.2802ZM430.328 60.085H428.664V57.4886H430.328V60.085ZM430.328 54.8923H428.664V52.2934H430.328V54.8923ZM430.328 49.697H428.664V47.1006H430.328V49.697ZM430.328 44.5043H428.664V41.9079H430.328V44.5043Z" fill="#80B2FF"/>
<path d="M430.746 69.9567H428.664V67.8766H430.328V68.2936H430.746V69.9567Z" fill="#80B2FF"/>
<path d="M490.816 143.367H489.149V140.898H490.816V143.367ZM490.816 138.403H489.149V135.918H490.816V138.403ZM490.816 133.437H489.149V130.955H490.816V133.437ZM490.816 128.473H489.149V125.991H490.816V128.473ZM490.816 123.506H489.149V121.024H490.816V123.506ZM490.816 118.542H489.149V116.061H490.816V118.542ZM490.816 113.576H489.149V111.094H490.816V113.576ZM490.816 108.612H489.149V106.13H490.816V108.612ZM490.816 103.646H489.149V101.164H490.816V103.646ZM490.816 98.682H489.149V96.2H490.816V98.682ZM490.816 93.7156H489.149V91.2336H490.816V93.7156ZM490.816 88.7517H489.149V86.2698H490.816V88.7517ZM490.816 83.7879H489.149V81.3034H490.816V83.7879ZM489.142 78.8494C489.11 78.0894 488.985 77.3361 488.77 76.6066L490.368 76.1361C490.621 76.9967 490.768 77.8847 490.806 78.7808L489.142 78.8494ZM487.869 74.5264C487.483 73.8721 487.018 73.2675 486.484 72.726L487.67 71.5588C488.299 72.1976 488.848 72.9107 489.304 73.6822L487.869 74.5264ZM484.7 71.3121C484.052 70.9147 483.357 70.5987 482.631 70.3712L483.127 68.7844C483.985 69.0515 484.805 69.4239 485.571 69.8932L484.7 71.3121ZM480.394 69.9669C480.216 69.9669 480.035 69.9516 479.854 69.9516H477.958V68.286H479.854C480.066 68.286 480.279 68.286 480.491 68.3038L480.394 69.9669ZM475.474 69.9516H472.99V68.286H475.474V69.9516ZM470.503 69.9516H468.019V68.286H470.503V69.9516ZM465.535 69.9516H463.039V68.286H465.523L465.535 69.9516ZM460.565 69.9516H458.081V68.286H460.565V69.9516ZM455.597 69.9516H453.112V68.286H455.597V69.9516ZM450.626 69.9516H448.142V68.286H450.626V69.9516ZM445.658 69.9516H443.174V68.286H445.658V69.9516ZM440.69 69.9516H438.203V68.286H440.69V69.9516ZM435.719 69.9516H433.235V68.286H435.719V69.9516Z" fill="#80B2FF"/>
<path d="M490.813 145.861H489.149V147.11H490.813V145.861Z" fill="#80B2FF"/>
<path d="M408.226 37.9562C408.259 37.529 408.279 37.0992 408.279 36.6643C408.307 34.4813 407.9 32.3146 407.082 30.2899C406.265 28.2652 405.053 26.4228 403.518 24.8694C401.983 23.3161 400.154 22.0828 398.138 21.2411C396.121 20.3994 393.958 19.9659 391.773 19.9659C389.588 19.9659 387.425 20.3994 385.408 21.2411C383.392 22.0828 381.563 23.3161 380.028 24.8694C378.492 26.4228 377.281 28.2652 376.464 30.2899C375.646 32.3146 375.239 34.4813 375.266 36.6643C375.266 37.0992 375.289 37.529 375.322 37.9562H408.226Z" fill="#80B2FF"/>
<path d="M462.453 37.9562C462.486 37.529 462.509 37.0992 462.509 36.6643C462.536 34.4813 462.129 32.3146 461.312 30.2899C460.494 28.2652 459.283 26.4228 457.747 24.8694C456.212 23.3161 454.383 22.0828 452.367 21.2411C450.351 20.3994 448.188 19.9659 446.002 19.9659C443.817 19.9659 441.654 20.3994 439.638 21.2411C437.622 22.0828 435.793 23.3161 434.257 24.8694C432.722 26.4228 431.51 28.2652 430.693 30.2899C429.876 32.3146 429.469 34.4813 429.496 36.6643C429.496 37.0992 429.516 37.529 429.552 37.9562H462.453Z" fill="#80B2FF"/>
<path d="M443.466 37.9562C443.595 36.9364 443.659 35.9096 443.659 34.8817C443.653 31.5833 442.971 28.3211 441.655 25.2961C440.339 22.2712 438.417 19.5475 436.007 17.293C433.598 15.0385 430.751 13.3009 427.644 12.1873C424.536 11.0737 421.234 10.6077 417.939 10.8179C414.645 11.0282 411.428 11.9104 408.488 13.41C405.547 14.9096 402.946 16.9949 400.843 19.5375C398.74 22.08 397.18 25.0259 396.26 28.1937C395.34 31.3614 395.079 34.6838 395.493 37.9562H443.466Z" fill="#80B2FF"/>
</g>
<path d="M143.46 153.399H30.9897C28.6212 153.399 26.7012 155.317 26.7012 157.684V221.443C26.7012 223.81 28.6212 225.728 30.9897 225.728H143.46C145.828 225.728 147.748 223.81 147.748 221.443V157.684C147.748 155.317 145.828 153.399 143.46 153.399Z" fill="#464672"/>
<path d="M147.748 167.057H26.7012V179.538H147.748V167.057Z" fill="#18173C"/>
<path d="M54.4281 211.846H36.6299C36.0889 211.847 35.5701 212.061 35.1864 212.442C34.8026 212.823 34.5851 213.34 34.5811 213.88C34.5844 214.421 34.8018 214.939 35.1856 215.32C35.5695 215.701 36.0887 215.915 36.6299 215.915H54.4281C54.6965 215.916 54.9627 215.865 55.2112 215.764C55.4597 215.662 55.6857 215.513 55.8761 215.323C56.0665 215.134 56.2176 214.91 56.3207 214.662C56.4239 214.414 56.4769 214.149 56.4769 213.88C56.4736 213.34 56.2562 212.822 55.8724 212.441C55.4885 212.06 54.9693 211.846 54.4281 211.846Z" fill="#18173C"/>
<path d="M81.7985 211.846H64.0003C63.4591 211.846 62.9399 212.06 62.556 212.441C62.1721 212.822 61.9548 213.34 61.9514 213.88C61.9514 214.149 62.0045 214.414 62.1076 214.662C62.2107 214.91 62.3619 215.134 62.5523 215.323C62.7427 215.513 62.9687 215.662 63.2172 215.764C63.4657 215.865 63.7318 215.916 64.0003 215.915H81.7985C82.3396 215.915 82.8589 215.701 83.2427 215.32C83.6266 214.939 83.8439 214.421 83.8473 213.88C83.8433 213.34 83.6257 212.823 83.242 212.442C82.8583 212.061 82.3394 211.847 81.7985 211.846Z" fill="#18173C"/>
<path d="M109.169 211.846H91.3709C90.8297 211.846 90.3105 212.06 89.9266 212.441C89.5427 212.822 89.3254 213.34 89.322 213.88C89.322 214.149 89.3751 214.414 89.4782 214.662C89.5813 214.91 89.7325 215.134 89.9229 215.323C90.1133 215.513 90.3393 215.662 90.5878 215.764C90.8363 215.865 91.1024 215.916 91.3709 215.915H109.169C109.709 215.915 110.227 215.7 110.609 215.319C110.991 214.937 111.205 214.42 111.205 213.88C111.205 213.613 111.153 213.349 111.05 213.102C110.948 212.855 110.798 212.631 110.609 212.442C110.42 212.253 110.195 212.103 109.948 212.001C109.701 211.899 109.436 211.846 109.169 211.846Z" fill="#D1F5FF"/>
<path d="M136.537 211.846H118.739C118.199 211.846 117.681 212.06 117.299 212.442C116.917 212.823 116.703 213.341 116.703 213.88C116.703 214.42 116.917 214.937 117.299 215.319C117.681 215.7 118.199 215.915 118.739 215.915H136.537C136.805 215.916 137.072 215.865 137.32 215.764C137.569 215.662 137.795 215.513 137.985 215.323C138.175 215.134 138.326 214.91 138.43 214.662C138.533 214.414 138.586 214.149 138.586 213.88C138.582 213.34 138.365 212.822 137.981 212.441C137.597 212.06 137.078 211.846 136.537 211.846Z" fill="#D1F5FF"/>
<path d="M35.8101 157.068C35.2107 157.068 34.6359 157.306 34.212 157.73C33.7882 158.153 33.5501 158.727 33.5501 159.326V160.12C33.5497 160.417 33.6079 160.71 33.7214 160.985C33.8348 161.259 34.0012 161.508 34.2111 161.718C34.421 161.928 34.6703 162.095 34.9447 162.208C35.219 162.322 35.5131 162.38 35.8101 162.38C36.1072 162.38 36.4013 162.322 36.6756 162.208C36.95 162.095 37.1993 161.928 37.4092 161.718C37.6191 161.508 37.7855 161.259 37.8989 160.985C38.0124 160.71 38.0706 160.417 38.0702 160.12V159.326C38.0702 158.727 37.8321 158.153 37.4083 157.73C36.9844 157.306 36.4096 157.068 35.8101 157.068Z" fill="#18173C"/>
<path d="M52.7609 157.068H43.3388C41.8713 157.068 40.6816 158.257 40.6816 159.723V159.726C40.6816 161.192 41.8713 162.38 43.3388 162.38H52.7609C54.2284 162.38 55.418 161.192 55.418 159.726V159.723C55.418 158.257 54.2284 157.068 52.7609 157.068Z" fill="#18173C"/>
<path d="M51.613 186.251H39.4447C37.495 186.251 35.9146 187.83 35.9146 189.778V200.26C35.9146 202.208 37.495 203.787 39.4447 203.787H51.613C53.5626 203.787 55.1431 202.208 55.1431 200.26V189.778C55.1431 187.83 53.5626 186.251 51.613 186.251Z" fill="#FFBD73"/>
<path d="M234.874 69.3032C236.548 62.7412 236.894 55.9113 235.892 49.2138L237.958 48.9036L242.03 48.2933H242.081C240.987 40.9047 238.45 33.8032 234.614 27.3927L229.236 30.5943C225.77 24.7798 221.179 19.7138 215.731 15.6926L219.468 10.6499C213.468 6.18715 206.645 2.95091 199.392 1.12653L197.849 7.21183C191.282 5.5383 184.446 5.19247 177.743 6.19465L176.811 -0.00253296C169.418 1.09842 162.311 3.63204 155.89 7.45595L159.094 12.8318C153.274 16.2938 148.204 20.8809 144.18 26.3247L139.135 22.5942C134.676 28.5915 131.444 35.4087 129.624 42.6556L135.717 44.1966C134.041 50.7583 133.695 57.5886 134.699 64.2859L130.311 64.942L128.53 65.2243H128.507C129.611 72.6108 132.146 79.7111 135.972 86.1274L141.332 82.9182C144.806 88.7346 149.405 93.802 154.859 97.825L151.136 102.855C157.127 107.316 163.942 110.55 171.189 112.371L172.731 106.285C179.299 107.957 186.135 108.303 192.838 107.303L193.556 112.134L193.769 113.512C201.156 112.408 208.255 109.872 214.668 106.046L211.476 100.665C217.299 97.1892 222.377 92.5977 226.419 87.1547L231.463 90.8853C235.911 84.8898 239.139 78.081 240.964 70.8442L234.874 69.3032ZM178.473 83.6506C173.15 82.3051 168.346 79.4128 164.668 75.3393C160.99 71.2657 158.603 66.194 157.81 60.7653C157.017 55.3367 157.853 49.795 160.212 44.8411C162.571 39.8871 166.348 35.7434 171.064 32.9338C175.78 30.1243 181.224 28.7752 186.708 29.0571C192.192 29.339 197.469 31.2393 201.871 34.5176C206.274 37.7959 209.605 42.305 211.443 47.4747C213.281 52.6444 213.543 58.2426 212.196 63.5612C211.303 67.0929 209.721 70.414 207.543 73.335C205.364 76.256 202.631 78.7196 199.5 80.5851C196.368 82.4507 192.899 83.6816 189.291 84.2075C185.684 84.7335 182.008 84.5442 178.473 83.6506Z" fill="#464672"/>
<path d="M111.427 77.2143C109.208 74.424 106.455 72.1037 103.328 70.389L103.855 69.4252L104.901 67.5206V67.4951C101.452 65.5993 97.6647 64.3991 93.753 63.963L93.3814 67.2332C89.8376 66.8343 86.2497 67.1438 82.8267 68.1436L81.9028 64.9725C78.1188 66.0631 74.5874 67.8891 71.511 70.3458L73.5726 72.932C70.7854 75.1495 68.469 77.9005 66.7592 81.0237L63.8628 79.4394C61.9698 82.8867 60.7689 86.6703 60.3276 90.5776L63.6032 90.9463C63.2014 94.4832 63.5086 98.0647 64.5068 101.482L61.333 102.407C62.4245 106.187 64.2521 109.715 66.7109 112.788L69.3044 110.741C71.5227 113.531 74.2761 115.85 77.403 117.563L76.2781 119.598L75.8276 120.437C79.2783 122.328 83.0648 123.528 86.9753 123.972L87.3469 120.699C90.8936 121.097 94.4842 120.786 97.9093 119.783L98.828 122.972C102.609 121.885 106.137 120.061 109.21 117.607L107.148 115.023C109.944 112.804 112.269 110.049 113.987 106.921L116.237 108.157L116.883 108.505C118.773 105.061 119.971 101.281 120.411 97.3774L117.128 97.0062C117.525 93.4597 117.217 89.8699 116.222 86.4427L119.393 85.5196C118.295 81.7467 116.468 78.2253 114.015 75.1545L111.427 77.2143ZM99.4643 105.406C97.2037 107.207 94.4592 108.298 91.5778 108.541C88.6964 108.784 85.8077 108.168 83.2769 106.77C80.7461 105.373 78.687 103.257 77.3599 100.69C76.0328 98.1229 75.4974 95.2205 75.8214 92.3495C76.1454 89.4786 77.3142 86.7682 79.18 84.561C81.0458 82.3538 83.5248 80.749 86.3035 79.9496C89.0822 79.1502 92.0358 79.1921 94.7907 80.0699C97.5455 80.9478 99.978 82.6222 101.78 84.8813C104.198 87.9088 105.313 91.7717 104.881 95.6205C104.448 99.4693 102.504 102.989 99.4745 105.406H99.4643Z" fill="#464672"/>
<path d="M518.056 279.504C515.496 276.282 512.319 273.602 508.711 271.621L509.319 270.509L510.525 268.31L510.541 268.282C506.56 266.097 502.189 264.715 497.675 264.213L497.247 267.989C493.158 267.528 489.018 267.885 485.069 269.04L484.002 265.38C479.635 266.637 475.559 268.744 472.01 271.58L474.389 274.563C471.163 277.12 468.48 280.296 466.499 283.903L463.158 282.075C460.976 286.053 459.593 290.419 459.085 294.927L462.865 295.354C462.403 299.44 462.76 303.578 463.914 307.525L460.254 308.59C461.512 312.953 463.621 317.024 466.459 320.57L469.444 318.195C472.003 321.418 475.18 324.099 478.79 326.078L477.495 328.441L476.985 329.409C480.967 331.59 485.337 332.972 489.849 333.478L490.276 329.702C494.37 330.162 498.514 329.803 502.467 328.647L503.534 332.303C507.897 331.048 511.968 328.944 515.514 326.111L513.137 323.128C516.362 320.567 519.045 317.389 521.027 313.78L523.623 315.207L524.368 315.609C526.551 311.634 527.934 307.272 528.441 302.767L524.661 302.337C525.118 298.245 524.763 294.103 523.615 290.149L527.275 289.083C526.008 284.732 523.899 280.671 521.067 277.131L518.056 279.504ZM504.269 312.039C501.661 314.117 498.494 315.376 495.169 315.656C491.845 315.936 488.511 315.225 485.591 313.612C482.671 311.999 480.295 309.558 478.764 306.596C477.233 303.634 476.615 300.285 476.989 296.973C477.363 293.66 478.711 290.533 480.864 287.986C483.017 285.439 485.877 283.587 489.083 282.664C492.289 281.742 495.697 281.79 498.876 282.803C502.055 283.815 504.862 285.747 506.942 288.353C509.731 291.848 511.016 296.307 510.515 300.749C510.014 305.191 507.767 309.252 504.269 312.039Z" stroke="#18173C" stroke-miterlimit="10"/>
<path d="M518.601 362H48.6021C48.2352 362.002 47.8715 361.932 47.5319 361.793C47.1923 361.654 46.8836 361.449 46.6234 361.191C46.3632 360.932 46.1568 360.625 46.0159 360.286C45.875 359.948 45.8025 359.585 45.8025 359.218C45.8025 358.851 45.875 358.488 46.0159 358.15C46.1568 357.811 46.3632 357.504 46.6234 357.245C46.8836 356.987 47.1923 356.782 47.5319 356.643C47.8715 356.504 48.2352 356.434 48.6021 356.436H518.601C518.968 356.434 519.332 356.504 519.672 356.643C520.011 356.782 520.32 356.987 520.58 357.245C520.84 357.504 521.047 357.811 521.188 358.15C521.328 358.488 521.401 358.851 521.401 359.218C521.401 359.585 521.328 359.948 521.188 360.286C521.047 360.625 520.84 360.932 520.58 361.191C520.32 361.449 520.011 361.654 519.672 361.793C519.332 361.932 518.968 362.002 518.601 362Z" fill="#003C99"/>
<path d="M473.629 90.0461H96.4151C91.3393 90.0461 87.2246 94.1573 87.2246 99.2287V333.115C87.2246 338.186 91.3393 342.297 96.4151 342.297H473.629C478.704 342.297 482.819 338.186 482.819 333.115V99.2287C482.819 94.1573 478.704 90.0461 473.629 90.0461Z" fill="#B3D1FF"/>
<path d="M481.114 99.2287V333.117C481.114 334.099 480.92 335.071 480.544 335.978C480.168 336.885 479.617 337.709 478.922 338.404C478.227 339.098 477.402 339.649 476.495 340.024C475.587 340.4 474.614 340.593 473.631 340.593H96.4151C95.4324 340.593 94.4594 340.4 93.5516 340.024C92.6437 339.649 91.8188 339.098 91.124 338.404C90.4292 337.709 89.878 336.885 89.502 335.978C89.1259 335.071 88.9324 334.099 88.9324 333.117V99.2287C88.9324 97.2452 89.721 95.3429 91.1248 93.9404C92.5285 92.5378 94.4324 91.7499 96.4176 91.7499L473.621 91.7499C474.605 91.7485 475.579 91.941 476.488 92.3163C477.397 92.6916 478.223 93.2423 478.919 93.9369C479.615 94.6316 480.167 95.4565 480.544 96.3645C480.92 97.2726 481.114 98.2458 481.114 99.2287Z" fill="black"/>
<path d="M469.857 100.246H100.587V330.93H469.857V100.246Z" fill="#18173C"/>
<path d="M509.869 342.3V348.444C509.869 348.753 509.851 349.062 509.813 349.369C509.587 351.316 508.652 353.112 507.187 354.416C505.722 355.719 503.829 356.439 501.867 356.439H63.0661C61.1046 356.439 59.2114 355.719 57.7467 354.416C56.282 353.112 55.3481 351.316 55.1227 349.369C55.0847 349.062 55.066 348.753 55.0667 348.444V342.3H509.869Z" fill="#464672"/>
<path d="M509.823 349.367C509.597 351.314 508.662 353.11 507.197 354.413C505.732 355.717 503.839 356.437 501.877 356.436H63.066C61.1045 356.437 59.2113 355.716 57.7466 354.413C56.2819 353.109 55.348 351.313 55.1226 349.367H509.823Z" fill="#18173C"/>
<path opacity="0.3" d="M388.613 149.177H184.162C178.571 149.177 174.04 153.705 174.04 159.291V277.648C174.04 283.233 178.571 287.761 184.162 287.761H388.613C394.203 287.761 398.735 283.233 398.735 277.648V159.291C398.735 153.705 394.203 149.177 388.613 149.177Z" fill="#80B2FF"/>
<path d="M320.439 241.665H287.428C284.624 241.665 282.351 243.936 282.351 246.738C282.351 249.54 284.624 251.811 287.428 251.811H320.439C323.243 251.811 325.516 249.54 325.516 246.738C325.516 243.936 323.243 241.665 320.439 241.665Z" fill="#FF9F34"/>
<path d="M344.409 201.239H272.381C269.577 201.239 267.304 203.511 267.304 206.313C267.304 209.114 269.577 211.386 272.381 211.386H344.409C347.213 211.386 349.486 209.114 349.486 206.313C349.486 203.511 347.213 201.239 344.409 201.239Z" fill="white"/>
<path d="M344.409 220.34H272.381C269.577 220.34 267.304 222.611 267.304 225.413C267.304 228.215 269.577 230.486 272.381 230.486H344.409C347.213 230.486 349.486 228.215 349.486 225.413C349.486 222.611 347.213 220.34 344.409 220.34Z" fill="white"/>
<path d="M288.912 224.97C288.912 225.147 288.859 225.32 288.761 225.468C288.662 225.615 288.523 225.729 288.359 225.797C288.195 225.865 288.015 225.883 287.841 225.848C287.667 225.814 287.508 225.728 287.382 225.603C287.257 225.478 287.172 225.319 287.137 225.145C287.103 224.971 287.121 224.791 287.188 224.628C287.256 224.464 287.371 224.324 287.518 224.226C287.666 224.128 287.839 224.075 288.016 224.075C288.254 224.075 288.481 224.169 288.649 224.337C288.817 224.505 288.912 224.733 288.912 224.97Z" fill="#18173C"/>
<path d="M296.84 225.863C296.84 226.215 296.736 226.559 296.54 226.852C296.344 227.145 296.066 227.373 295.74 227.507C295.415 227.642 295.056 227.677 294.711 227.609C294.365 227.54 294.048 227.37 293.799 227.122C293.55 226.873 293.38 226.555 293.311 226.21C293.242 225.865 293.278 225.507 293.412 225.182C293.547 224.856 293.776 224.578 294.069 224.383C294.362 224.187 294.706 224.083 295.058 224.083C295.531 224.083 295.984 224.27 296.318 224.604C296.652 224.938 296.84 225.391 296.84 225.863Z" fill="#18173C"/>
<path d="M302.948 225.863C302.948 226.215 302.844 226.559 302.648 226.852C302.452 227.145 302.174 227.373 301.849 227.507C301.523 227.642 301.165 227.677 300.819 227.609C300.474 227.54 300.156 227.37 299.907 227.122C299.658 226.873 299.488 226.555 299.419 226.21C299.351 225.865 299.386 225.507 299.521 225.182C299.656 224.856 299.884 224.578 300.177 224.383C300.47 224.187 300.814 224.083 301.167 224.083C301.639 224.083 302.093 224.27 302.427 224.604C302.761 224.938 302.948 225.391 302.948 225.863Z" fill="#18173C"/>
<path d="M309.088 225.863C309.088 226.215 308.983 226.559 308.787 226.852C308.592 227.145 308.313 227.373 307.988 227.507C307.662 227.642 307.304 227.677 306.958 227.609C306.613 227.54 306.295 227.37 306.046 227.122C305.797 226.873 305.627 226.555 305.559 226.21C305.49 225.865 305.525 225.507 305.66 225.182C305.795 224.856 306.023 224.578 306.316 224.383C306.609 224.187 306.954 224.083 307.306 224.083C307.779 224.083 308.232 224.27 308.566 224.604C308.9 224.938 309.088 225.391 309.088 225.863Z" fill="#18173C"/>
<path d="M315.218 225.863C315.218 226.215 315.114 226.559 314.918 226.852C314.722 227.145 314.444 227.373 314.119 227.507C313.793 227.642 313.435 227.677 313.089 227.609C312.744 227.54 312.426 227.37 312.177 227.122C311.928 226.873 311.758 226.555 311.69 226.21C311.621 225.865 311.656 225.507 311.791 225.182C311.926 224.856 312.154 224.578 312.447 224.383C312.74 224.187 313.085 224.083 313.437 224.083C313.909 224.083 314.363 224.27 314.697 224.604C315.031 224.938 315.218 225.391 315.218 225.863Z" fill="#18173C"/>
<path d="M321.347 225.863C321.347 226.215 321.243 226.559 321.047 226.852C320.851 227.145 320.573 227.373 320.248 227.507C319.922 227.642 319.564 227.677 319.218 227.609C318.873 227.54 318.555 227.37 318.306 227.122C318.057 226.873 317.887 226.555 317.818 226.21C317.75 225.865 317.785 225.507 317.92 225.182C318.055 224.856 318.283 224.578 318.576 224.383C318.869 224.187 319.213 224.083 319.566 224.083C320.038 224.083 320.491 224.27 320.826 224.604C321.16 224.938 321.347 225.391 321.347 225.863Z" fill="#18173C"/>
<path d="M327.479 225.863C327.479 226.215 327.374 226.559 327.178 226.852C326.983 227.145 326.704 227.373 326.379 227.507C326.053 227.642 325.695 227.677 325.35 227.609C325.004 227.54 324.687 227.37 324.437 227.122C324.188 226.873 324.019 226.555 323.95 226.21C323.881 225.865 323.916 225.507 324.051 225.182C324.186 224.856 324.414 224.578 324.707 224.383C325 224.187 325.345 224.083 325.697 224.083C326.17 224.083 326.623 224.27 326.957 224.604C327.291 224.938 327.479 225.391 327.479 225.863Z" fill="#18173C"/>
<path d="M333.607 225.863C333.607 226.215 333.503 226.559 333.307 226.852C333.111 227.145 332.833 227.373 332.507 227.507C332.182 227.642 331.824 227.677 331.478 227.609C331.132 227.54 330.815 227.37 330.566 227.122C330.317 226.873 330.147 226.555 330.078 226.21C330.009 225.865 330.045 225.507 330.18 225.182C330.314 224.856 330.543 224.578 330.836 224.383C331.129 224.187 331.473 224.083 331.826 224.083C332.298 224.083 332.751 224.27 333.085 224.604C333.419 224.938 333.607 225.391 333.607 225.863Z" fill="#18173C"/>
<path d="M306.178 189.671C312.037 189.671 316.787 184.926 316.787 179.072C316.787 173.219 312.037 168.473 306.178 168.473C300.32 168.473 295.57 173.219 295.57 179.072C295.57 184.926 300.32 189.671 306.178 189.671Z" fill="white"/>
<path d="M306.191 178.645C306.692 178.642 307.187 178.525 307.637 178.305C308.088 178.085 308.483 177.767 308.794 177.374C309.265 176.787 309.518 176.056 309.512 175.304C309.525 174.859 309.447 174.416 309.285 174.001C309.124 173.586 308.88 173.208 308.569 172.889C308.259 172.57 307.887 172.316 307.477 172.143C307.066 171.97 306.625 171.88 306.179 171.88C305.734 171.88 305.293 171.97 304.882 172.143C304.472 172.316 304.1 172.57 303.789 172.889C303.479 173.208 303.235 173.586 303.073 174.001C302.911 174.416 302.834 174.859 302.846 175.304C302.84 176.055 303.092 176.786 303.562 177.374C303.876 177.77 304.276 178.089 304.731 178.31C305.186 178.53 305.685 178.644 306.191 178.645Z" fill="#005CEA"/>
<path d="M312.07 184.601C312.07 186.711 300.281 186.711 300.281 184.601V182.144C300.747 178.783 311.111 178.64 312.07 182.144V184.601Z" fill="#005CEA"/>
<path d="M283.277 224.477V224.205C283.277 223.675 283.067 223.168 282.692 222.793C282.317 222.419 281.809 222.209 281.279 222.209C280.749 222.209 280.241 222.419 279.867 222.793C279.492 223.168 279.281 223.675 279.281 224.205V224.477H278.979V228.075C278.979 228.698 283.595 228.698 283.595 228.075V224.477H283.277ZM279.994 224.205C279.994 223.862 280.13 223.534 280.373 223.291C280.615 223.049 280.944 222.913 281.287 222.913C281.63 222.913 281.959 223.049 282.201 223.291C282.444 223.534 282.58 223.862 282.58 224.205V224.477H279.994V224.205ZM281.62 226.29V227.33C281.619 227.374 281.608 227.417 281.59 227.456C281.572 227.496 281.546 227.532 281.514 227.561C281.481 227.591 281.444 227.614 281.403 227.628C281.362 227.643 281.318 227.65 281.274 227.648C281.232 227.65 281.19 227.643 281.15 227.627C281.111 227.612 281.075 227.589 281.044 227.559C281.014 227.529 280.991 227.493 280.975 227.454C280.959 227.415 280.952 227.372 280.954 227.33V226.29C280.857 226.238 280.776 226.161 280.72 226.067C280.663 225.973 280.633 225.866 280.633 225.756C280.652 225.601 280.728 225.459 280.845 225.356C280.962 225.253 281.113 225.196 281.269 225.196C281.425 225.196 281.576 225.253 281.693 225.356C281.81 225.459 281.886 225.601 281.905 225.756C281.906 225.862 281.88 225.966 281.83 226.059C281.781 226.152 281.708 226.232 281.62 226.29Z" fill="#4D4D4D"/>
<path d="M274.624 205.944C274.821 205.941 275.015 205.894 275.191 205.806C275.368 205.718 275.522 205.591 275.642 205.435C275.825 205.207 275.924 204.922 275.922 204.629C275.93 204.453 275.902 204.278 275.84 204.114C275.778 203.949 275.683 203.799 275.562 203.672C275.44 203.544 275.294 203.443 275.132 203.374C274.97 203.305 274.796 203.27 274.62 203.27C274.444 203.27 274.27 203.305 274.108 203.374C273.946 203.443 273.8 203.544 273.678 203.672C273.557 203.799 273.462 203.949 273.4 204.114C273.338 204.278 273.31 204.453 273.318 204.629C273.316 204.922 273.415 205.207 273.598 205.435C273.72 205.592 273.875 205.719 274.053 205.807C274.23 205.895 274.426 205.942 274.624 205.944Z" fill="#4D4D4D"/>
<path d="M276.917 208.268C276.917 209.092 272.292 209.092 272.292 208.268L272.315 207.309C272.499 205.997 276.543 205.941 276.92 207.309L276.917 208.268Z" fill="#4D4D4D"/>
<path d="M301.187 207.8H282.483C282.088 207.8 281.71 207.643 281.431 207.364C281.152 207.085 280.995 206.707 280.994 206.313C280.995 205.918 281.152 205.54 281.431 205.261C281.71 204.981 282.088 204.824 282.483 204.822H301.187C301.582 204.824 301.961 204.981 302.24 205.26C302.52 205.54 302.677 205.918 302.679 206.313C302.677 206.707 302.52 207.085 302.24 207.364C301.961 207.643 301.582 207.8 301.187 207.8Z" fill="#18173C"/>
<path d="M289.597 196.937H271.526C271.131 196.936 270.752 196.779 270.472 196.5C270.193 196.22 270.035 195.842 270.035 195.447C270.036 195.052 270.194 194.674 270.473 194.395C270.753 194.116 271.131 193.96 271.526 193.959H289.597C289.991 193.96 290.37 194.117 290.649 194.395C290.928 194.674 291.085 195.052 291.086 195.447C291.085 195.841 290.928 196.219 290.649 196.499C290.37 196.778 289.992 196.935 289.597 196.937Z" fill="#18173C"/>
<path d="M325.855 207.8H307.151C306.756 207.8 306.377 207.643 306.098 207.364C305.818 207.085 305.661 206.707 305.659 206.313C305.661 205.918 305.818 205.54 306.097 205.26C306.377 204.981 306.755 204.824 307.151 204.822H325.855C326.25 204.824 326.628 204.981 326.907 205.261C327.186 205.54 327.343 205.918 327.344 206.313C327.343 206.707 327.186 207.085 326.907 207.364C326.628 207.643 326.25 207.8 325.855 207.8Z" fill="#18173C"/>
<path d="M210.924 205.646V231.966C210.924 234.89 246.742 234.89 246.742 231.966V205.646H210.924Z" fill="white"/>
<path d="M228.834 220.004C231.276 220.004 233.255 218.026 233.255 215.587C233.255 213.147 231.276 211.17 228.834 211.17C226.392 211.17 224.413 213.147 224.413 215.587C224.413 218.026 226.392 220.004 228.834 220.004Z" fill="#18173C"/>
<path d="M228.834 228.884C228.354 228.884 227.893 228.693 227.553 228.354C227.213 228.014 227.022 227.553 227.022 227.073V216.94H230.646V227.073C230.646 227.311 230.599 227.546 230.508 227.766C230.417 227.986 230.284 228.185 230.115 228.354C229.947 228.522 229.747 228.655 229.528 228.746C229.308 228.837 229.072 228.884 228.834 228.884Z" fill="#18173C"/>
<path d="M243.603 203.772H239.979V201.992C239.979 199.039 238.805 196.206 236.715 194.118C234.625 192.03 231.79 190.856 228.834 190.856C225.878 190.856 223.043 192.03 220.953 194.118C218.863 196.206 217.689 199.039 217.689 201.992V203.772H214.064V201.992C214.064 198.078 215.621 194.325 218.39 191.557C221.16 188.79 224.917 187.235 228.834 187.235C232.751 187.235 236.508 188.79 239.278 191.557C242.047 194.325 243.603 198.078 243.603 201.992V203.772Z" fill="white"/>
<path d="M382.879 204.202L384.589 211.068L384.902 212.339C385.248 213.962 395.984 213.273 395.223 211.371L394.584 209.972L391.275 202.735L382.879 204.202Z" fill="#F7A58E"/>
<path d="M376.6 194.005C376.491 201.458 379.955 207.521 385.376 207.495C390.797 207.47 396.04 202.875 396.228 193.908C396.351 188.197 391.785 183.586 386.366 183.612C380.947 183.637 376.684 188.291 376.6 194.005Z" fill="#F7A58E"/>
<path d="M386.203 181.562C386.203 181.562 375.401 182.096 374.495 190.269C373.296 197.44 378.682 192.169 380.881 196.983C383.401 202.496 380.833 206.531 377.572 207.625C380.481 211.693 397.124 211.541 401.408 204.416C404.334 195.482 400.186 182.058 386.203 181.562Z" fill="black"/>
<path d="M381.942 198.411C382.789 197.692 382.893 196.423 382.173 195.576C381.453 194.729 380.182 194.626 379.335 195.345C378.488 196.065 378.384 197.334 379.104 198.181C379.824 199.027 381.095 199.13 381.942 198.411Z" fill="#F7A58E"/>
<path d="M380.283 335.383C379.774 334.846 377.389 334.839 377.17 335.637C376.952 336.436 377.374 336.995 376.366 338.251C376.947 338.419 379.003 338.434 379.632 338.251C380.26 338.068 380.79 335.917 380.283 335.383Z" fill="white"/>
<path d="M384.23 338.089H378.41C377.865 313.485 377.969 286.701 378.155 266.527C378.226 259.303 378.425 255.648 379.736 251.313C382.385 242.555 394.838 245.25 395.722 253.189C396.088 257.594 396.358 266.187 388.208 295.403C391.749 308.247 385.589 323.662 384.23 338.089Z" fill="#00050D"/>
<path d="M375.15 338.465C376.007 338.419 378.01 337.595 378.387 337.026C378.944 337.646 380.102 337.819 381.5 337.611C383.152 337.356 383.368 336.593 384.554 336.7C385.063 338.086 386.269 341.201 385.096 341.921H372.859C371.767 340.927 371.798 338.798 375.15 338.465Z" fill="white"/>
<path d="M409.911 336.006C409.486 335.553 407.48 335.548 407.297 336.212C407.114 336.876 407.468 337.354 406.62 338.409C407.106 338.551 408.837 338.564 409.364 338.409C409.891 338.254 410.336 336.451 409.911 336.006Z" fill="white"/>
<path d="M390.734 252.966C391.922 243.895 408.074 244.828 409.148 252.747C409.537 257.009 410.721 263.427 407.687 295.08C414.088 307.161 412.268 324.497 414.192 337.255C414.403 339.197 408.898 339.663 408.471 337.933C402.617 314.259 394.409 287.697 391.362 268.002C390.247 260.862 390.143 257.459 390.734 252.966Z" fill="#00050D"/>
<path d="M405.582 338.089C406.437 338.043 407.702 336.929 408.078 336.359C408.636 336.982 409.697 337.819 411.094 337.611C412.746 337.356 412.965 336.593 414.149 336.7C414.658 338.086 415.867 341.201 414.691 341.921H402.79C401.7 340.927 402.227 338.424 405.582 338.089Z" fill="white"/>
<path d="M339.273 240.144L338.67 237.121C340.149 236.543 342.388 235.34 344.997 234.323L346.428 239.226C343.541 239.666 340.983 239.979 339.273 240.144Z" fill="#F7A58E"/>
<path d="M344.997 234.336C350.021 232.004 358.629 226.928 360.606 226.008L381.846 212.98C386.427 211.589 391.772 220.65 385.974 224.736C385.974 224.736 353.142 238.242 346.427 239.231L344.997 234.336Z" fill="#FF7268"/>
<path d="M337.125 242.575C335.071 241.96 334.358 238.936 334.305 238.707L338.555 237.156C340.624 236.322 341.808 238.819 340.502 240.622C340.502 240.622 339.09 243.03 337.125 242.575Z" fill="#F7A58E"/>
<path d="M335.292 239.887C330.383 240.94 330.574 239.737 330.574 239.737C330.574 239.737 332.231 239.188 335.221 238.372C336.949 237.988 336.473 239.503 335.292 239.887Z" fill="#F7A58E"/>
<path d="M378.285 225.924C377.267 220.96 376.717 216.06 381.848 212.98C384.882 211.152 394.64 209.847 399.204 211.355C403.8 213.407 402.808 222.361 403.668 236.5C406.837 243.557 408.213 245.873 409.15 252.747C409.15 252.747 407.455 257.924 395.516 257.932C390.095 257.932 382.108 257.451 378.463 254.69C378.825 250.003 380.787 245.487 381.604 238.852C381.614 238.852 378.367 226.494 378.285 225.924Z" fill="#FF7268"/>
<path d="M401.652 212.355C407.252 216.629 412.724 223.35 415.307 226.921C417.89 230.491 424.581 244.838 424.581 244.838L420.323 247.976L408.804 232.294L394.732 220.762C389.848 215.78 396.195 208.189 401.652 212.355Z" fill="#FF7268"/>
<path d="M426.365 248.477L423.604 242.779C422.955 244.493 419.786 246.054 418.888 246.023C418.888 246.023 421.855 250.29 422.581 251.015C423.306 251.74 426.304 250.512 426.365 248.477Z" fill="#F7A58E"/>
<path d="M421.883 250.062C421.883 250.105 421.883 250.163 421.883 250.204C421.938 250.89 422.165 251.551 422.544 252.126C422.922 252.701 423.44 253.171 424.049 253.492C424.082 253.516 424.119 253.531 424.159 253.538C422.659 253.238 422.209 255.244 422.973 255.71C425.182 257.202 428.317 255.148 428.595 253.901C428.872 252.655 426.35 248.452 426.35 248.452C425.077 247.417 421.792 247.577 421.883 250.062Z" fill="#F7A58E"/>
<path d="M421.894 250.204C421.983 252.549 424.095 253.51 424.133 253.523C425.37 253.487 425.813 253.413 426.991 253.416C426.228 253.039 424.642 252.043 425.253 250.11C424.044 249.177 422.224 249.99 421.894 250.204Z" fill="#E6856A"/>
<path d="M421.861 249.94C421.537 251.872 421.675 254.629 422.136 255.842C422.136 255.842 423.322 255.905 423.21 253.665C423.182 253.083 423.266 251.816 423.843 251.394C425.625 250.222 425.905 249.146 425.253 248.261C424.385 247.086 421.929 248.279 421.861 249.94Z" fill="#F7A58E"/>
<path d="M427.361 255.226C426.399 255.893 423.846 257.19 423.444 256.869C423.042 256.549 425.08 254.38 426.399 254.092C427.717 253.805 427.857 254.883 427.361 255.226Z" fill="#F7A58E"/>
<path d="M354.737 90.0385C357.493 86.0486 354.956 73.6338 343.185 70.0686C333.241 67.5053 328.064 70.6484 314.613 74.3077L316.618 90.0385H354.737Z" fill="#50318F"/>
<path d="M330.742 70.712C330.742 70.712 306.644 75.6835 297.749 78.9537C292.659 80.8279 291.386 85.0568 293.348 88.2864C296.263 93.09 330.831 89.6825 330.831 89.6825C342.757 86.3436 336.445 70.4984 330.742 70.712Z" fill="#50318F"/>
<path d="M341.958 69.3566C341.958 69.3566 357.346 74.5722 366 78.4324C374.399 79.0936 373.849 89.5146 369.873 90.1885C360.729 92.6654 340.589 88.2813 340.589 88.2813C328.909 84.149 336.29 68.7666 341.958 69.3566Z" fill="#50318F"/>
<path d="M317.558 80.0803C317.558 80.0803 312.707 72.7057 324.748 66.9891C336.789 61.2725 344.887 66.9891 342.879 73.906C340.871 80.8228 333.778 85.4357 333.778 85.4357C333.778 85.4357 321.783 85.4942 317.558 80.0803Z" fill="#50318F"/>
<path d="M331.113 79.1037C336.906 75.0859 334.58 67.2637 334.58 67.2637L332.386 63.0831L330.556 59.6018L320.884 63.3222L322.648 70.4577C323.032 71.6894 323.544 72.8775 324.175 74.0026C325.511 76.3828 327.761 79.0834 331.113 79.1037Z" fill="#F7A28A"/>
<path d="M324.178 74.0178C328.818 71.0273 331.192 66.5085 332.386 63.0831L330.556 59.6018L320.884 63.3222L322.648 70.4577C323.032 71.6947 323.544 72.888 324.178 74.0178Z" fill="#F0896C"/>
<path d="M309.765 50.3912C309.765 50.3912 307.54 50.9837 307.219 53.6386C306.899 56.2934 309.538 57.3767 309.538 57.3767C309.538 57.3767 307.81 60.6826 311.462 62.0303C318.902 64.764 318.176 48.7332 309.765 50.3912Z" fill="#3D3D3D"/>
<path d="M311.885 58.9483C314.175 65.6668 318.907 71.9631 322.725 70.3916C329.199 67.7342 334.636 60.5046 331.948 52.896C329.26 45.2875 323.486 41.7884 317.362 43.9474C311.238 46.1064 309.291 51.3042 311.885 58.9483Z" fill="#F7A28A"/>
<path d="M308.767 50.2692C310.134 51.4288 315.201 53.397 325.677 48.3263C327.418 49.58 328.713 51.4923 329.599 53.6183C330.587 53.3843 330.986 52.8706 331.666 53.7149C332.607 54.8821 333.101 57.4352 331.933 58.3736C331.648 58.6076 331.318 58.7807 330.963 58.8822C330.543 60.6622 330.943 62.6406 332.386 63.078C334.613 61.2853 334.343 60.8708 335.165 58.8084C337.766 56.9851 337.774 52.9825 335.674 51.8865C337.662 50.025 335.262 45.9461 332.32 45.8114C332.34 43.5532 329.467 39.5226 325.853 41.8825C325.957 39.4565 321.551 37.8646 319.166 41.4375C317.245 38.8182 311.414 40.4025 311.638 43.8838C308.118 43.2633 306.181 48.0008 308.767 50.2692Z" fill="#3D3D3D"/>
<path d="M293.356 86.4783C293.356 86.4783 292.745 92.3271 303.521 93.2604C311.048 93.9073 318.602 94.1619 326.155 94.0233L327.26 89.3926C327.26 89.3926 305.486 82.018 300.157 81.6925C293.812 81.2958 293.356 86.4783 293.356 86.4783Z" fill="#F7A28A"/>
<path d="M326.997 89.2908L333.869 87.8566C333.869 87.8566 338.298 89.9749 339.677 92.7264C338.659 93.858 335.918 91.4752 335.918 91.4752C335.918 91.4752 336.196 96.0805 335.521 96.9553C334.847 97.8301 331.467 98.415 330.362 97.4639C329.258 96.5128 331.179 95.3838 331.179 95.3838L326.15 94.0106C326.15 94.0106 323.819 90.5038 326.997 89.2908Z" fill="#F7A28A"/>
<path d="M330.749 50.081C330.75 50.0431 330.739 50.0058 330.718 49.9741C330.698 49.9423 330.668 49.9175 330.633 49.9028C330.598 49.888 330.559 49.884 330.522 49.8913C330.485 49.8986 330.45 49.9168 330.424 49.9436C330.397 49.9704 330.379 50.0047 330.371 50.0419C330.364 50.0791 330.368 50.1177 330.383 50.1526C330.397 50.1876 330.422 50.2173 330.454 50.2381C330.486 50.2589 330.523 50.2697 330.561 50.2692C330.611 50.2692 330.659 50.2493 330.694 50.2141C330.73 50.1788 330.749 50.1309 330.749 50.081Z" fill="#F7A28A"/>
<path d="M370.341 83.1318C370.341 83.1318 373.971 87.7549 365.345 94.2776C359.318 98.8264 353.057 103.058 346.587 106.954L343.185 103.62C343.185 103.62 357.692 85.7943 362.019 82.6893C367.198 78.9893 370.341 83.1318 370.341 83.1318Z" fill="#F7A28A"/>
<path d="M343.18 103.615L339.344 109.495C339.344 109.495 339.708 114.39 341.775 116.673C343.195 116.144 341.973 112.719 341.973 112.719C341.973 112.719 346.168 114.649 347.229 114.339C348.29 114.029 350.062 111.097 349.578 109.723C349.095 108.35 347.341 109.723 347.341 109.723L348.173 105.347C348.85 102.913 344.788 101.154 343.18 103.615Z" fill="#F7A28A"/>
<path d="M153.294 191.553C153.958 197.829 150.795 204.522 146.814 204.471C141.35 204.405 134.29 199.912 133.623 193.639C132.956 187.365 136.819 181.809 142.253 181.234C147.687 180.659 152.637 185.28 153.294 191.553Z" fill="#F7B28A"/>
<path d="M119.444 336.006C119.444 336.006 125.18 335.365 129.655 336.006C133.363 338.452 134.964 338.31 134.964 338.31C136.55 338.724 137.255 340.901 135.88 340.901H118.993L119.444 336.006Z" fill="white"/>
<path d="M146.819 336.006C146.819 336.006 152.459 335.365 157.03 336.006C161.115 338.452 162.693 338.31 162.693 338.31C164.34 338.724 165.381 340.901 164.007 340.901H147.109L146.819 336.006Z" fill="white"/>
<path d="M141.566 211.897L130.945 208.316L138.639 192.306L146.104 195.889L141.566 211.897Z" fill="#F7B28A"/>
<path d="M152.106 223.127C152.106 223.127 160.347 229.159 156.323 235.559C153.327 240.327 143.735 235.162 143.735 229.614C143.735 224.612 147.588 221.662 152.106 223.127Z" fill="#F2B231"/>
<path d="M126.654 247.956C126.654 247.956 124.674 251.389 123.345 258.225C122.875 260.653 123.427 271.639 123.269 290.139C119.418 314.065 118.991 338.025 118.991 338.025L129.663 336.006L145.997 248.953L126.654 247.956Z" fill="#333333"/>
<path d="M150.813 250.176C152.91 266.601 154.427 281.345 154.564 292.099L157.031 336.006L146.883 337.944C144.801 324.318 141.34 307.304 140.793 291.517L129.729 250.303L150.813 250.176Z" fill="#333333"/>
<path d="M123.498 249.332C124.201 253.579 124.582 253.866 124.582 253.866L151.617 254.461C151.617 254.461 150.813 250.176 151.492 247.959C151.62 247.547 151.65 246.265 151.469 244.348C151.215 241.599 150.629 237.588 149.846 233.199C148.161 223.762 145.547 212.571 143.249 208.365L131.447 205.537C131.447 205.537 126.183 210.877 125.025 215.592C123.867 220.306 122.793 245.09 123.498 249.332Z" fill="#FFD834"/>
<path d="M142.513 230.094L151.469 244.335C151.215 241.586 150.629 237.576 149.846 233.187L142.513 230.094Z" fill="#F2B231"/>
<path d="M139.296 226.542C139.296 226.542 136.122 233.375 139.418 235.203C142.714 237.032 146.01 231.178 146.01 231.178L139.296 226.542Z" fill="#F7B28A"/>
<path d="M152.36 208.337L150.069 223.086L142.961 214.722C142.961 214.722 136.57 208.248 131.439 214.094C126.308 219.94 134.32 225.792 134.32 225.792C134.32 225.792 146.028 235.307 153.49 234.318C160.952 233.329 156.29 208.634 156.29 208.634L152.36 208.337Z" fill="#FFD834"/>
<path d="M152.36 208.337L151.207 202.722L154.147 198.264C154.147 198.264 155.241 197.458 155.643 199.932C156.448 201.084 157.425 201.936 157.313 203.238C157.201 204.54 156.295 208.617 156.295 208.617L152.36 208.337Z" fill="#F7B28A"/>
<path d="M131.449 205.537L132.284 203.378L144.786 208.337L145.768 213.761L131.449 205.537Z" fill="#FFEAC2"/>
<path d="M134.969 200.062C134.969 200.062 130.897 194.198 132.169 187.187C133.442 180.176 143.844 178.709 143.844 178.709C143.844 178.709 154.691 178.071 157.114 189.099C155.967 190.564 151.245 188.143 151.245 188.143L143.485 195.218C143.485 195.218 143.577 189.671 140.841 191.075C138.105 192.479 138.919 196.939 138.919 196.939C138.919 196.939 136.359 199.617 134.969 200.062Z" fill="black"/>
<path d="M490.317 136.717C477.722 150.195 457.623 161.244 436.106 165.961C436.106 167.398 436.063 175.35 435.9 211.988C435.681 260.877 482.249 284.768 489.478 288.435C496.484 285.213 543.638 261.36 543.857 212.469C544.023 175.82 544.058 167.868 544.063 166.442C522.61 161.536 502.791 150.307 490.317 136.717Z" fill="white"/>
<path d="M490.203 142.019C477.223 153.92 459.228 163.273 439.448 168.372L439.254 211.978C439.165 231.933 447.098 249.983 462.835 265.635C470.733 273.421 479.738 280 489.559 285.159C489.798 285.04 490.068 284.905 490.322 284.77V142.121L490.203 142.019Z" fill="#464672"/>
<path d="M490.317 142.121V284.781C499.894 279.766 508.699 273.402 516.464 265.884C532.34 250.372 540.434 232.398 540.523 212.444L540.719 168.837C521.04 163.565 503.186 154.088 490.317 142.121Z" fill="#303056"/>
<path d="M529.95 185.829C514.89 188.148 494.384 201.873 481.447 218.379C479.633 210.597 471.486 203.495 467.225 201.941L454.313 214.91C462.374 218.539 471.185 228.825 472.353 239.356L485.252 241.352C490.689 230.618 504.735 204.944 532.679 191.141C532.139 189.033 530.166 186.129 529.95 185.829Z" fill="#18173C"/>
</g>
<defs>
<clipPath id="clip0_294_6740">
<rect width="547" height="362" fill="white"/>
</clipPath>
</defs>
</svg>
