<svg width="12" height="12" viewBox="0 0 12 12" fill="none" xmlns="http://www.w3.org/2000/svg">
<g id="vuesax/linear/trash">
<g id="trash">
<g id="Vector">
<path d="M10.5 2.99C8.835 2.825 7.16 2.74 5.49 2.74C4.5 2.74 3.51 2.79 2.52 2.89L1.5 2.99" fill="white"/>
<path d="M10.5 2.99C8.835 2.825 7.16 2.74 5.49 2.74C4.5 2.74 3.51 2.79 2.52 2.89L1.5 2.99" stroke="white" stroke-width="1.2" stroke-linecap="round" stroke-linejoin="round"/>
</g>
<path id="Vector_2" d="M4.25 2.485L4.36 1.83C4.44 1.355 4.5 1 5.345 1H6.655C7.5 1 7.565 1.375 7.64 1.835L7.75 2.485" stroke="white" stroke-width="1.2" stroke-linecap="round" stroke-linejoin="round"/>
<path id="Vector_3" d="M9.42495 4.57L9.09995 9.605C9.04495 10.39 8.99995 11 7.60495 11H4.39495C2.99995 11 2.95495 10.39 2.89995 9.605L2.57495 4.57" stroke="white" stroke-width="1.2" stroke-linecap="round" stroke-linejoin="round"/>
<path id="Vector_4" d="M5.16504 8.25H6.83004" stroke="white" stroke-width="1.2" stroke-linecap="round" stroke-linejoin="round"/>
<path id="Vector_5" d="M4.75 6.25H7.25" stroke="white" stroke-width="1.2" stroke-linecap="round" stroke-linejoin="round"/>
</g>
</g>
</svg>
