<svg width="29" height="29" viewBox="0 0 29 29" fill="none" xmlns="http://www.w3.org/2000/svg">
<g id="Iconly/Bold/3 User">
<g id="3 User">
<path id="3 Friends" fill-rule="evenodd" clip-rule="evenodd" d="M19.3514 10.1051C19.3514 12.8464 17.1661 15.0445 14.4406 15.0445C11.7152 15.0445 9.52978 12.8464 9.52978 10.1051C9.52978 7.36273 11.7152 5.16675 14.4406 5.16675C17.1661 5.16675 19.3514 7.36273 19.3514 10.1051ZM14.4406 23.8334C10.4376 23.8334 7.01952 23.1988 7.01952 20.6603C7.01952 18.1207 10.4156 17.463 14.4406 17.463C18.4437 17.463 21.8617 18.0976 21.8617 20.6372C21.8617 23.1757 18.4656 23.8334 14.4406 23.8334ZM21.45 10.1942C21.45 11.5916 21.0332 12.8934 20.302 13.9757C20.2268 14.087 20.2936 14.2373 20.4263 14.2604C20.6091 14.2919 20.7982 14.3098 20.9904 14.3151C22.9073 14.3655 24.6278 13.1246 25.1031 11.2564C25.8072 8.48152 23.7399 5.99029 21.1074 5.99029C20.8212 5.99029 20.5475 6.02076 20.2811 6.0754C20.2445 6.08381 20.2059 6.10062 20.185 6.13319C20.1599 6.17312 20.1787 6.2267 20.2038 6.26138C20.9946 7.37618 21.45 8.73579 21.45 10.1942ZM24.6247 16.2647C25.9127 16.518 26.7599 17.0349 27.1109 17.7862C27.4076 18.4029 27.4076 19.1185 27.1109 19.7342C26.574 20.8994 24.843 21.2735 24.1703 21.3701C24.0313 21.3911 23.9195 21.2703 23.9342 21.1306C24.2779 17.9017 21.544 16.3709 20.8368 16.0189C20.8065 16.0031 20.8003 15.979 20.8034 15.9642C20.8055 15.9537 20.818 15.9369 20.841 15.9338C22.3714 15.9054 24.0167 16.1155 24.6247 16.2647ZM8.01004 14.3149C8.20226 14.3097 8.39029 14.2929 8.57415 14.2603C8.70681 14.2372 8.77367 14.0869 8.69846 13.9756C7.96721 12.8933 7.5504 11.5915 7.5504 10.1941C7.5504 8.73569 8.00586 7.37607 8.79665 6.26127C8.82172 6.2266 8.83948 6.17301 8.81546 6.13308C8.79456 6.10156 8.75487 6.0837 8.71935 6.0753C8.45192 6.02066 8.17823 5.99019 7.892 5.99019C5.25951 5.99019 3.19218 8.48142 3.89731 11.2563C4.37262 13.1245 6.09313 14.3654 8.01004 14.3149ZM8.19651 15.9636C8.19964 15.9794 8.19338 16.0025 8.16413 16.0193C7.45586 16.3713 4.72205 17.9022 5.06573 21.1299C5.08036 21.2707 4.96963 21.3905 4.83069 21.3706C4.15795 21.2739 2.42698 20.8998 1.89004 19.7346C1.59232 19.1178 1.59232 18.4034 1.89004 17.7866C2.24104 17.0353 3.08719 16.5184 4.37523 16.2641C4.98425 16.116 6.62851 15.9058 8.15995 15.9342C8.18293 15.9373 8.19442 15.9542 8.19651 15.9636Z" fill="#8930F9"/>
</g>
</g>
</svg>
