<svg width="17" height="16" viewBox="0 0 17 16" fill="none" xmlns="http://www.w3.org/2000/svg">
<g id="pajamas:weight">
<path id="Vector" fill-rule="evenodd" clip-rule="evenodd" d="M10.0001 3.74998C10.0001 4.0815 9.8684 4.39944 9.63398 4.63386C9.39956 4.86828 9.08162 4.99998 8.7501 4.99998C8.41858 4.99998 8.10064 4.86828 7.86622 4.63386C7.6318 4.39944 7.5001 4.0815 7.5001 3.74998C7.5001 3.41846 7.6318 3.10051 7.86622 2.86609C8.10064 2.63167 8.41858 2.49998 8.7501 2.49998C9.08162 2.49998 9.39956 2.63167 9.63398 2.86609C9.8684 3.10051 10.0001 3.41846 10.0001 3.74998ZM11.2001 4.99998C11.4138 4.58074 11.5164 4.11367 11.498 3.64345C11.4796 3.17324 11.3408 2.71561 11.095 2.31436C10.8492 1.9131 10.5045 1.58164 10.0939 1.35168C9.68337 1.12173 9.22067 1.00098 8.7501 1.00098C8.27953 1.00098 7.81682 1.12173 7.40626 1.35168C6.9957 1.58164 6.65102 1.9131 6.40518 2.31436C6.15935 2.71561 6.0206 3.17324 6.0022 3.64345C5.9838 4.11367 6.08637 4.58074 6.3001 4.99998H4.5701C4.33901 5.00012 4.1151 5.08029 3.93643 5.22686C3.75777 5.37344 3.63539 5.57737 3.5901 5.80398L1.9901 13.804C1.96111 13.949 1.96465 14.0986 2.00047 14.2421C2.03628 14.3856 2.10347 14.5194 2.19721 14.6338C2.29094 14.7482 2.40888 14.8403 2.54253 14.9037C2.67618 14.967 2.82221 14.9999 2.9701 15H14.5301C14.678 14.9999 14.824 14.967 14.9577 14.9037C15.0913 14.8403 15.2093 14.7482 15.303 14.6338C15.3967 14.5194 15.4639 14.3856 15.4997 14.2421C15.5355 14.0986 15.5391 13.949 15.5101 13.804L13.9101 5.80398C13.8648 5.57737 13.7424 5.37344 13.5638 5.22686C13.3851 5.08029 13.1612 5.00012 12.9301 4.99998H11.2001ZM8.7501 6.49998H4.9801L3.5801 13.5H13.9201L12.5201 6.49998H8.7501Z" fill="#737791"/>
</g>
</svg>
