<svg width="25" height="25" viewBox="0 0 25 25" fill="none" xmlns="http://www.w3.org/2000/svg">
<g id="Work">
<path id="Work_2" fill-rule="evenodd" clip-rule="evenodd" d="M10.9883 2.6054C10.2063 2.6054 9.54094 3.14885 9.35418 3.88134H15.634C15.4472 3.14885 14.7819 2.6054 13.9998 2.6054H10.9883ZM17.4082 3.88134H19.7194C22.1706 3.88134 24.1666 5.90158 24.1666 8.38258C24.1666 8.38258 24.0965 9.43287 24.0732 10.8955C24.0709 11.0113 24.0148 11.1247 23.9226 11.1932C23.3612 11.6079 22.8476 11.9505 22.8009 11.9741C20.8633 13.2737 18.6116 14.1881 16.2129 14.643C16.0565 14.6737 15.9025 14.5922 15.8231 14.4528C15.1507 13.2879 13.8948 12.5294 12.4941 12.5294C11.1027 12.5294 9.83509 13.2796 9.14291 14.4457C9.06237 14.5827 8.91062 14.6619 8.75538 14.6323C6.37652 14.1763 4.1249 13.2631 2.19893 11.9859L1.07837 11.2062C0.984994 11.1471 0.926632 11.0408 0.926632 10.9227C0.891614 10.3201 0.833252 8.38258 0.833252 8.38258C0.833252 5.90158 2.82925 3.88134 5.28048 3.88134H7.57996C7.80174 2.16827 9.23745 0.833252 10.9883 0.833252H13.9998C15.7507 0.833252 17.1864 2.16827 17.4082 3.88134ZM23.7697 13.451L23.723 13.4747C21.3652 15.0578 18.5288 16.1092 15.5523 16.5464C15.1321 16.6054 14.7119 16.3337 14.5951 15.9084C14.3383 14.9396 13.5096 14.3017 12.5174 14.3017H12.5058H12.4824C11.4902 14.3017 10.6615 14.9396 10.4047 15.9084C10.288 16.3337 9.86777 16.6054 9.44756 16.5464C6.47107 16.1092 3.63465 15.0578 1.27681 13.4747C1.26513 13.4628 1.14841 13.392 1.05503 13.451C0.949977 13.5101 0.949977 13.6519 0.949977 13.6519L1.03168 19.6772C1.03168 22.1582 3.01601 24.1666 5.46724 24.1666H19.5209C21.9722 24.1666 23.9565 22.1582 23.9565 19.6772L24.0499 13.6519C24.0499 13.6519 24.0499 13.5101 23.9448 13.451C23.8864 13.4156 23.8164 13.4274 23.7697 13.451ZM13.3695 18.4012C13.3695 18.8974 12.9843 19.2873 12.4941 19.2873C12.0155 19.2873 11.6186 18.8974 11.6186 18.4012V16.8772C11.6186 16.3928 12.0155 15.9911 12.4941 15.9911C12.9843 15.9911 13.3695 16.3928 13.3695 16.8772V18.4012Z" fill="#FFCE1E"/>
</g>
</svg>
